<svg width="632" height="632" viewBox="0 0 632 632" fill="none" xmlns="http://www.w3.org/2000/svg">
<g clip-path="url(#clip0_3576_2)">
<path d="M344.698 275.756L348.677 290.007L350.7 297.266L385.631 422.447C385.631 422.447 394.031 419.581 404.986 414.832C407.129 413.903 409.371 412.904 411.665 411.838C428.77 403.912 448.86 392.4 453.752 380.394C461.062 362.442 439.315 295.375 419.012 272.969C409.709 262.695 382.51 266.518 363.73 270.726C361.63 271.192 359.634 271.668 357.784 272.131C349.977 274.07 344.698 275.756 344.698 275.756Z" fill="white"/>
<g opacity="0.35">
<path d="M348.677 290.007L350.7 297.267L378.435 396.662L385.631 422.447C385.631 422.447 385.806 422.387 386.138 422.27C386.232 422.235 386.345 422.196 386.464 422.155C386.558 422.12 386.664 422.083 386.77 422.045C386.853 422.019 386.933 421.987 387.015 421.962C387.046 421.948 387.085 421.939 387.115 421.925C387.265 421.871 387.435 421.812 387.609 421.745C387.647 421.736 387.685 421.721 387.728 421.704C387.872 421.651 388.022 421.597 388.185 421.539C388.404 421.462 388.628 421.377 388.865 421.289C389.033 421.224 389.215 421.162 389.396 421.093C389.583 421.024 389.77 420.954 389.963 420.882C390.207 420.793 390.462 420.694 390.725 420.6C391.254 420.398 391.815 420.189 392.405 419.959C392.929 419.765 393.476 419.552 394.048 419.327C394.706 419.069 395.396 418.803 396.109 418.518C398.746 417.469 401.753 416.234 404.986 414.833C405.614 414.56 406.254 414.279 406.9 413.996C407.349 413.799 407.809 413.592 408.269 413.386C409.381 412.888 410.521 412.371 411.665 411.838C428.777 403.91 448.86 392.401 453.745 380.396C459.769 365.614 446.094 317.527 429.732 288.495C440.278 315.059 446.93 345.103 442.389 356.244C440.145 361.753 420.294 351.638 417.646 342.875C410.82 320.277 397.616 292.67 371.274 282.427C370.589 282.161 359.05 287.719 348.677 290.007Z" fill="#371A45"/>
</g>
<path d="M383.804 425.911L341.416 273.987L343.881 273.199C344.497 273.002 359.159 268.344 375.9 265.613C399.07 261.832 414.245 263.7 421.006 271.161C442.19 294.539 463.924 362.543 456.24 381.41C446.988 404.127 388.961 424.151 386.496 424.992L383.804 425.911ZM347.99 277.552L387.441 418.949C398.963 414.735 443.971 397.289 451.263 379.383C454.367 371.763 451.587 352.056 444.182 329.179C436.592 305.729 426.185 284.881 417.023 274.77C406.425 263.074 365.753 272.209 347.99 277.552Z" fill="#371A45"/>
<path d="M441.375 328.347L417.768 338.133C415.661 339.007 414.405 341.189 414.722 343.448C415.88 351.722 419.546 370.692 429.121 374.203C437.067 377.118 447.111 373.162 451.437 366.111C456.277 358.224 451.055 340.153 448.036 331.35C447.098 328.613 444.048 327.239 441.375 328.347Z" fill="white"/>
<g opacity="0.35">
<path d="M414.724 343.45C415.877 351.722 419.547 370.693 429.122 374.201C437.07 377.117 447.111 373.162 451.44 366.108C454.413 361.256 453.583 352.552 451.801 344.525C451.989 348.767 451.315 352.483 449.867 355.253C441.569 371.123 427.861 360.146 427.861 360.146C427.861 360.146 427.398 364.06 426.202 364.667C421.199 367.204 416.86 350.357 414.817 341.587C414.67 342.18 414.632 342.809 414.724 343.45Z" fill="#371A45"/>
</g>
<path d="M434.746 377.852C432.501 377.853 430.281 377.491 428.195 376.726C417.621 372.849 413.547 354.445 412.06 343.821C411.575 340.353 413.499 336.994 416.74 335.651L440.346 325.865L440.345 325.866C442.302 325.053 444.531 325.087 446.461 325.958C448.39 326.828 449.891 328.476 450.578 330.478C454.81 342.82 458.791 359.263 453.727 367.517C449.793 373.928 442.137 377.852 434.746 377.852ZM443.298 330.65C442.997 330.65 442.694 330.709 442.405 330.83L442.404 330.83L418.797 340.616C417.818 341.021 417.237 342.033 417.383 343.075C419.596 358.891 424.33 369.584 430.045 371.681C436.603 374.085 445.351 370.891 449.147 364.706C452.154 359.805 450.789 347.662 445.494 332.222C445.284 331.608 444.842 331.123 444.252 330.857C443.946 330.719 443.623 330.65 443.298 330.65Z" fill="#371A45"/>
<path d="M441.906 376.001C441.288 375.876 440.95 375.756 440.514 375.61C440.108 375.466 439.71 375.312 439.331 375.139C438.564 374.802 437.836 374.417 437.141 373.989C435.759 373.13 434.461 372.164 433.334 371.044C431.032 368.85 429.226 366.262 427.855 363.528C427.198 362.148 426.565 360.764 426.083 359.333C425.534 357.915 425.152 356.508 424.735 355.076C424.336 353.648 423.987 352.201 423.711 350.734C423.578 349.998 423.454 349.261 423.367 348.513C423.284 347.749 423.212 347.043 423.242 346.182C423.256 345.791 423.584 345.485 423.974 345.499C424.34 345.512 424.632 345.8 424.656 346.158L424.661 346.235C424.7 346.832 424.828 347.575 424.973 348.25C425.12 348.94 425.305 349.628 425.497 350.313C425.892 351.682 426.359 353.037 426.874 354.376C427.4 355.7 427.919 357.072 428.55 358.321C429.124 359.609 429.828 360.819 430.538 362.012C432.01 364.364 433.819 366.461 435.913 368.101C436.94 368.948 438.077 369.623 439.226 370.196C439.803 370.48 440.395 370.722 440.985 370.914C441.28 371.019 441.573 371.097 441.862 371.17C442.123 371.235 442.49 371.304 442.59 371.307C443.907 371.342 444.947 372.438 444.912 373.756C444.877 375.073 443.78 376.113 442.463 376.078C442.327 376.074 442.194 376.059 442.064 376.034L441.906 376.001Z" fill="#371A45"/>
<path d="M381.233 281.887C384.087 280.494 386.943 279.192 389.835 277.921C392.725 276.654 395.639 275.433 398.596 274.294C401.554 273.154 404.536 272.059 407.604 271.118C410.673 270.179 413.786 269.317 417.114 268.808C418.582 268.583 419.955 269.591 420.179 271.059C420.404 272.527 419.396 273.899 417.928 274.124C417.868 274.133 417.808 274.14 417.748 274.145L417.721 274.147C414.824 274.385 411.826 274.981 408.852 275.673C405.871 276.365 402.898 277.227 399.938 278.139C396.975 279.05 394.03 280.05 391.1 281.099C388.175 282.15 385.243 283.249 382.376 284.411L382.362 284.417C381.653 284.704 380.845 284.362 380.558 283.653C380.283 282.975 380.587 282.205 381.233 281.887Z" fill="#371A45"/>
<path d="M245.899 290.287C248.87 296.976 253.13 303.607 254.484 307.135L247.505 319.435L239.594 333.368C235.61 333.828 231.786 334.171 228.101 334.392C162.218 338.463 142.851 306.639 140.686 291.42C136.399 261.288 153.574 242.171 161.511 234.392C162.717 233.213 164.077 232.024 165.579 230.841C191.781 210.197 260.362 190.877 280.191 218.387C291.363 233.875 283.653 260.402 248.941 270.874C240.439 273.434 242.165 281.902 245.899 290.287Z" fill="white"/>
<g opacity="0.35">
<path d="M250.476 299.318C252.221 302.498 253.765 305.257 254.484 307.135L239.594 333.367C164.44 342.073 142.971 307.491 140.686 291.42C139.969 286.398 139.855 281.683 140.188 277.284C140.275 278.197 141.89 290.165 142.113 291.087C146.301 308.394 186.179 330.016 197.667 324.226C200.492 322.802 202.642 321.098 203.949 320.654C206.33 319.843 207.539 323.245 211.236 323.013C214.619 322.801 214.962 317.098 217.569 317.826C219.665 318.411 222.238 323.512 225.309 323.339L250.476 299.318Z" fill="#371A45"/>
</g>
<path d="M216.683 337.453C194.046 337.453 175.503 332.936 161.371 323.952C146.153 314.278 139.332 300.999 138.022 291.798C134.864 269.595 142.134 249.635 159.63 232.473C176.104 216.315 219.971 199.642 251.841 202.363C266.062 203.577 276.335 208.439 282.373 216.815C287.819 224.367 289.12 234.079 285.943 243.459C281.373 256.95 268.168 267.879 249.715 273.444C229.911 279.417 206.827 289.351 204.067 294.984C203.938 295.247 203.904 295.429 203.926 295.487C204.458 296.873 203.767 298.427 202.382 298.959C200.997 299.493 199.443 298.801 198.91 297.415C198.505 296.362 198.234 294.675 199.241 292.62C204.677 281.523 246.39 268.834 248.163 268.299C264.932 263.242 276.848 253.559 280.853 241.735C283.466 234.021 282.431 226.084 278.014 219.958C272.933 212.911 263.973 208.793 251.383 207.718C221.407 205.156 178.731 221.266 163.394 236.31C147.184 252.209 140.438 270.623 143.344 291.041C145.801 308.316 169.017 338.837 239.288 330.697C240.754 330.522 242.095 331.582 242.266 333.057C242.436 334.531 241.38 335.865 239.906 336.036C231.744 336.981 224 337.453 216.683 337.453Z" fill="#371A45"/>
<path d="M491.377 210.488C490.459 215.345 488.506 220.613 485.447 226.125C463.093 266.439 384.663 298.437 384.663 298.437C384.663 298.437 389.115 312.408 398.754 337.256C398.978 337.837 399.208 338.418 399.438 339.013C402.416 346.643 405.864 355.253 409.802 364.757C414.416 375.884 419.705 388.244 425.708 401.69C440.124 434.014 452.53 476.639 452.53 476.639C452.53 476.639 486.967 488.342 486.478 509.619C486.454 510.755 486.33 511.919 486.091 513.105C482.043 533.559 403.136 529.278 396.521 519.59C388.595 507.993 385.402 497.955 377.585 480.316C371.796 467.258 365.671 453.768 352.192 442.835C336.949 431.631 311.888 431.505 295.691 432.999C272.403 435.153 268.557 449.544 265.629 459.973C260.744 477.329 263.673 513.083 247.103 523.283C238.046 528.861 163.401 537.491 159.057 511.869C158.177 506.662 159.102 502.302 161.039 498.686C167.406 486.785 184.717 482.869 184.717 482.869C184.717 482.869 182.987 454.818 184.694 439.388C188.906 401.255 236.33 383.775 236.33 383.775C236.33 383.775 236.164 380.082 234.374 368.136C232.161 353.374 229.835 341.986 228.101 334.392C226.438 327.146 225.309 323.34 225.309 323.34L220.927 310.503L218.452 303.249L245.899 290.287L349.744 241.245C353.12 239.148 356.867 236.669 360.906 233.93C391.64 213.081 439.36 177.296 470.852 181.751C486.901 184.021 494.264 195.263 491.377 210.488Z" fill="white"/>
<g opacity="0.35">
<path d="M491.377 210.488C490.459 215.345 488.505 220.613 485.447 226.126C463.093 266.439 384.662 298.437 384.662 298.437C384.662 298.437 389.115 312.408 398.754 337.256L393.735 339.558C387.943 321.655 368.64 331.397 367.361 324.16C366.717 320.507 378.121 316.938 374.522 310.05C370.93 303.161 353.43 307.462 353.727 301.902C353.962 297.639 363.437 298.296 369.963 296.571C376.489 294.845 366.453 285.535 365.758 282.495C364.662 277.741 375.181 281.837 387.798 280.877C439.567 276.953 477.793 229.796 491.377 210.488Z" fill="#371A45"/>
</g>
<g opacity="0.35">
<path d="M486.478 509.619C486.454 510.755 486.33 511.919 486.091 513.105C482.043 533.559 403.136 529.278 396.521 519.59C388.595 507.993 385.402 497.955 377.585 480.316C371.796 467.258 365.671 453.768 352.192 442.835C336.949 431.631 311.888 431.505 295.691 432.999C272.403 435.153 268.557 449.544 265.629 459.973C260.744 477.329 263.673 513.083 247.103 523.283C238.046 528.861 163.401 537.491 159.057 511.869C158.177 506.662 159.102 502.302 161.039 498.686C161.868 503.565 165.653 508.926 176.587 512.398C201.16 520.197 242.545 521.648 248.115 503.798C253.685 485.956 250.041 469.563 250.247 454.328C250.411 442.22 248.941 426.493 256.772 421.709C260.885 419.196 265.92 424.865 272.318 424.069C278.709 423.265 278.797 408.698 283.309 408.493C288.874 408.232 288.021 418.035 299.664 421.947C310.176 425.478 337.135 424.907 346.695 415.448C355.823 406.417 352.815 422.476 355.226 427.124C359.869 436.087 378.313 421.184 380.943 427.993C382.15 431.126 377.632 442.673 379.814 456.192C382.541 473.104 393.058 502.017 413.972 512.791C428.828 520.446 470.781 522.111 486.478 509.619Z" fill="#371A45"/>
</g>
<path d="M204.116 532.014C191.159 532.015 178.098 530.52 168.956 526.377C161.648 523.065 157.426 518.333 156.406 512.315C153.289 493.916 170.623 484.051 181.909 480.818C181.537 473.828 180.571 452.211 182.021 439.091C185.927 403.758 224.276 385.829 233.485 382.014C233.271 379.867 232.787 375.694 231.713 368.533C227.469 340.234 222.777 324.264 222.73 324.106C222.308 322.683 223.118 321.187 224.541 320.765C225.964 320.34 227.459 321.153 227.881 322.575C228.077 323.232 232.721 339.02 237.028 367.735C238.82 379.683 239.007 383.499 239.014 383.656L239.102 385.617L237.26 386.298C236.801 386.467 191.344 403.672 187.363 439.682C185.702 454.7 187.381 482.426 187.398 482.704L187.539 484.986L185.309 485.49C184.211 485.741 158.393 491.871 161.705 511.417C162.408 515.566 165.594 518.953 171.174 521.481C192.988 531.366 239.966 524.523 245.694 520.996C256.079 514.602 258.103 495.953 259.888 479.499C260.71 471.921 261.487 464.764 263.039 459.243L263.114 458.976C266.062 448.485 270.517 432.631 295.445 430.325C310.131 428.967 337.24 428.505 353.785 440.672L353.886 440.749C368.09 452.269 374.439 466.59 380.041 479.226C382.069 483.799 383.812 487.925 385.351 491.564C389.799 502.089 393.012 509.692 398.737 518.075C402.015 522.872 438.946 528.193 465.585 522.742C476.245 520.56 482.592 516.953 483.457 512.585C487.594 491.688 452.023 479.304 451.664 479.182L450.341 478.731L449.95 477.389C449.826 476.964 437.427 434.566 423.251 402.786C394.986 339.42 382.23 299.646 382.104 299.252L381.351 296.887L383.649 295.948C384.425 295.632 461.46 263.84 483.095 224.82C489.573 213.136 491.06 202.524 487.282 194.938C484.425 189.202 478.615 185.562 470.478 184.411C443.178 180.554 402.128 208.829 372.152 229.475C364.448 234.782 357.17 239.795 351.164 243.526C349.904 244.311 348.248 243.922 347.464 242.662C346.681 241.402 347.068 239.745 348.328 238.962C354.226 235.297 361.453 230.32 369.103 225.05C399.807 203.901 441.861 174.935 471.23 179.09C481.197 180.499 488.412 185.151 492.092 192.542C496.683 201.76 495.156 214.148 487.795 227.426C467.149 264.662 401.446 294.208 387.994 299.954C391.122 309.306 403.89 346.19 428.159 400.597C441.072 429.545 452.499 467.12 454.721 474.573C461.779 477.226 493.314 490.466 488.729 513.629C487.379 520.449 479.955 525.287 466.663 528.007C443.229 532.805 400.332 529.938 394.299 521.105C388.271 512.279 384.97 504.468 380.4 493.656C378.871 490.037 377.137 485.935 375.128 481.404C369.779 469.338 363.716 455.664 350.55 444.964C335.43 433.889 309.853 434.39 295.94 435.676C274.691 437.642 271.141 450.277 268.288 460.429L268.212 460.698C266.781 465.789 266.028 472.73 265.231 480.079C263.312 497.759 261.138 517.798 248.511 525.573C243.827 528.458 224.098 532.014 204.116 532.014Z" fill="#371A45"/>
<g opacity="0.35">
<path d="M360.906 231.56C356.543 268.526 333.048 298.127 301.707 311.286C299.977 312.009 298.22 312.686 296.442 313.316C291.562 315.025 286.515 316.353 281.341 317.247C277.059 317.993 272.678 318.452 268.239 318.596C263.089 318.777 257.859 318.543 252.568 317.859C250.865 317.628 249.175 317.37 247.505 317.065C247.458 317.059 247.417 317.046 247.37 317.04C243.854 316.391 240.409 315.56 237.035 314.554C231.428 312.881 226.05 310.72 220.927 308.133C210.911 303.076 201.887 296.372 194.148 288.401C178.649 272.437 168.319 251.429 165.579 228.471C191.781 207.827 260.362 188.507 280.191 216.018C291.363 231.505 283.653 258.032 248.941 268.504C240.438 271.064 242.165 279.532 245.899 287.917L349.743 238.875C353.12 236.777 356.867 234.298 360.906 231.56Z" fill="#371A45"/>
</g>
<path d="M183.923 272.629C196.61 285.375 212.532 295.004 230.586 300.126C234.268 301.169 238.027 302.028 241.867 302.685C243.734 303.01 245.631 303.279 247.547 303.514C253.322 304.193 259.041 304.399 264.673 304.161C269.529 303.967 274.32 303.435 279.012 302.603C284.68 301.601 290.21 300.141 295.561 298.274C297.511 297.586 299.436 296.849 301.337 296.063C336.101 281.597 362.243 249.289 366.946 209.232C373.885 150.225 331.67 96.7722 272.672 89.8305C261.308 88.5017 250.137 88.9786 239.479 91.0718C238.231 91.3045 236.984 91.5745 235.746 91.8703C232.428 92.6388 229.165 93.5604 225.965 94.632C218.567 97.1127 211.501 100.388 204.887 104.356C198.271 108.316 192.092 112.982 186.48 118.25C184.694 119.924 182.964 121.657 181.291 123.457C178.787 126.156 176.413 128.976 174.186 131.94C163.058 146.664 155.58 164.455 153.273 184.113C149.279 218.056 161.554 250.155 183.923 272.629Z" fill="white"/>
<path d="M260.188 304.54C255.969 304.54 251.723 304.292 247.513 303.797C245.407 303.538 243.544 303.266 241.818 302.965C238.045 302.32 234.24 301.456 230.508 300.4C212.873 295.397 196.695 285.863 183.722 272.83C160.322 249.32 149.121 216.972 152.99 184.08C155.223 165.055 162.474 146.966 173.959 131.769C176.128 128.882 178.525 126.02 181.083 123.264C182.727 121.495 184.477 119.738 186.285 118.043C191.912 112.761 198.121 108.074 204.741 104.113C211.419 100.106 218.529 96.8254 225.875 94.3625C229.07 93.2925 232.369 92.3609 235.682 91.5932C237.001 91.278 238.227 91.0157 239.426 90.7925C250.302 88.6566 261.498 88.2378 272.705 89.5481C331.771 96.498 374.174 150.203 367.228 209.265C362.684 247.972 337.478 281.332 301.446 296.325C299.547 297.111 297.599 297.857 295.656 298.542C290.231 300.435 284.649 301.895 279.062 302.883C274.29 303.729 269.452 304.255 264.685 304.445C263.191 304.508 261.691 304.54 260.188 304.54ZM184.125 272.429C197.029 285.393 213.122 294.876 230.663 299.853C234.375 300.904 238.161 301.762 241.914 302.405C243.632 302.704 245.486 302.974 247.581 303.232C253.259 303.899 259.006 304.117 264.661 303.877C269.404 303.687 274.215 303.165 278.962 302.323C284.52 301.34 290.073 299.888 295.467 298.005C297.4 297.324 299.339 296.582 301.228 295.8C337.07 280.886 362.143 247.702 366.663 209.199C373.572 150.448 331.393 97.0257 272.638 90.1129C261.492 88.8094 250.354 89.2261 239.533 91.3507C238.34 91.5728 237.124 91.8332 235.812 92.1469C232.515 92.9106 229.233 93.8371 226.056 94.9019C218.749 97.3517 211.676 100.615 205.033 104.6C198.448 108.541 192.271 113.204 186.674 118.458C184.875 120.144 183.135 121.891 181.5 123.651C178.955 126.393 176.571 129.239 174.413 132.111C162.988 147.228 155.776 165.221 153.555 184.146C149.705 216.865 160.848 249.042 184.125 272.429Z" fill="#371A45"/>
<g opacity="0.35">
<path d="M366.944 209.23C362.246 249.29 336.1 281.601 301.334 296.061C299.434 296.85 297.51 297.587 295.563 298.272C290.211 300.142 284.68 301.598 279.015 302.603C274.321 303.432 269.528 303.968 264.677 304.162C259.041 304.403 253.325 304.195 247.545 303.518C245.632 303.275 243.736 303.01 241.867 302.689C238.026 302.03 234.269 301.164 230.586 300.124C212.532 295.002 196.608 285.378 183.921 272.627C176.951 265.627 170.957 257.686 166.133 249.049C178.517 260.936 193.801 269.919 211.024 274.807C214.706 275.856 218.465 276.713 222.305 277.372C224.17 277.697 226.065 277.962 227.984 278.2C233.764 278.878 239.48 279.085 245.11 278.849C249.967 278.65 254.754 278.118 259.448 277.29C265.113 276.284 270.649 274.824 275.996 272.959C277.949 272.269 279.872 271.532 281.772 270.743C316.539 256.283 342.68 223.976 347.383 183.912C350.133 160.541 345.163 138.045 334.504 118.967C358.01 141.507 371.043 174.402 366.944 209.23Z" fill="#371A45"/>
</g>
<path d="M260.188 306.445C255.896 306.445 251.575 306.192 247.291 305.689C245.142 305.424 243.249 305.148 241.491 304.842C237.657 304.186 233.786 303.308 229.99 302.233C212.04 297.141 195.575 287.438 182.372 274.174C158.559 250.249 147.16 217.33 151.098 183.857C153.371 164.496 160.751 146.087 172.439 130.62C174.644 127.685 177.084 124.772 179.687 121.968C181.361 120.166 183.142 118.378 184.983 116.653C190.707 111.279 197.026 106.509 203.763 102.478C210.557 98.4016 217.793 95.0629 225.27 92.5564C228.522 91.4666 231.881 90.5185 235.252 89.7373C236.59 89.4175 237.846 89.1486 239.077 88.9195C250.13 86.7489 261.525 86.3223 272.926 87.6558C333.037 94.7284 376.188 149.382 369.12 209.487C364.496 248.877 338.845 282.826 302.178 298.084C300.244 298.884 298.264 299.641 296.29 300.338C290.763 302.267 285.081 303.753 279.394 304.758C274.538 305.619 269.614 306.155 264.761 306.349C263.243 306.413 261.717 306.445 260.188 306.445ZM185.475 271.085C198.15 283.819 213.955 293.132 231.183 298.02C234.829 299.052 238.548 299.896 242.236 300.527C243.928 300.822 245.75 301.088 247.814 301.342C253.381 301.995 259.028 302.209 264.581 301.974C269.242 301.788 273.967 301.274 278.63 300.447C284.088 299.482 289.541 298.055 294.84 296.207C296.735 295.538 298.642 294.808 300.5 294.04C335.703 279.391 360.332 246.796 364.771 208.976C371.557 151.268 330.127 98.795 272.416 92.0048C261.466 90.7237 250.526 91.1326 239.9 93.2198C238.721 93.4397 237.536 93.6935 236.254 93.9994C233.004 94.7527 229.781 95.6626 226.661 96.708C219.485 99.1138 212.538 102.319 206.013 106.233C199.543 110.106 193.476 114.685 187.978 119.846C186.21 121.503 184.501 123.219 182.895 124.947C180.396 127.64 178.054 130.436 175.936 133.255C164.712 148.106 157.629 165.779 155.447 184.368C151.666 216.506 162.611 248.113 185.475 271.085L185.475 271.085Z" fill="#371A45"/>
<path d="M260.189 307.08C255.872 307.08 251.526 306.826 247.217 306.32C245.054 306.054 243.151 305.776 241.382 305.467C237.528 304.808 233.634 303.925 229.816 302.844C211.762 297.722 195.201 287.963 181.922 274.622C157.971 250.559 146.507 217.45 150.468 183.783C152.753 164.31 160.176 145.794 171.932 130.238C174.15 127.286 176.604 124.356 179.221 121.536C180.905 119.723 182.697 117.925 184.548 116.19C190.305 110.785 196.661 105.988 203.436 101.933C210.269 97.8335 217.548 94.476 225.067 91.9543C228.339 90.8585 231.717 89.9045 235.108 89.1187C236.453 88.7973 237.719 88.5265 238.96 88.2952C250.07 86.1134 261.532 85.6838 272.999 87.0254C333.458 94.1388 376.859 149.109 369.75 209.562C365.099 249.18 339.3 283.324 302.422 298.671C300.476 299.475 298.486 300.237 296.5 300.938C290.94 302.878 285.224 304.373 279.503 305.384C274.62 306.25 269.667 306.788 264.785 306.983C263.26 307.048 261.725 307.08 260.189 307.08ZM185.925 270.637C198.523 283.294 214.233 292.551 231.357 297.409C234.981 298.436 238.678 299.274 242.343 299.901C244.026 300.194 245.838 300.459 247.891 300.711C253.422 301.361 259.035 301.573 264.554 301.339C269.188 301.154 273.885 300.644 278.52 299.822C283.944 298.863 289.364 297.445 294.631 295.607C296.513 294.943 298.409 294.217 300.258 293.453C335.247 278.893 359.728 246.495 364.14 208.903C370.886 151.542 329.705 99.3851 272.341 92.6356C261.459 91.3626 250.584 91.7693 240.023 93.8431C238.848 94.0622 237.673 94.3138 236.402 94.6173C233.167 95.3668 229.964 96.2714 226.863 97.3101C219.73 99.7017 212.826 102.887 206.34 106.778C199.908 110.627 193.878 115.18 188.413 120.309C186.655 121.957 184.956 123.662 183.361 125.38C180.877 128.056 178.549 130.835 176.444 133.637C165.287 148.399 158.246 165.965 156.078 184.442C152.319 216.387 163.198 247.803 185.925 270.637Z" fill="#371A45"/>
<path d="M205.715 289.513C278.618 313.934 351.972 259.576 334.817 185.383C323.146 134.907 264.713 107.363 216.952 121.677C182.19 132.095 152.81 157.473 154.23 215.844C154.23 215.844 158.849 241.587 170.503 256.197C182.157 270.807 195.957 283.049 195.957 283.049L205.715 289.513Z" fill="#371A45"/>
<path d="M334.815 185.384C351.971 259.575 278.614 313.933 205.715 289.516L203.738 288.203C273.753 280.467 328.294 221.104 312.345 145.768C323.162 156.414 331.211 169.808 334.815 185.384Z" fill="#220F2D"/>
<path d="M260.188 307.08C255.87 307.08 251.524 306.826 247.217 306.32C245.054 306.054 243.151 305.776 241.382 305.467C237.528 304.808 233.634 303.925 229.816 302.844C211.763 297.722 195.201 287.963 181.922 274.622C157.971 250.559 146.507 217.45 150.468 183.783C152.753 164.31 160.176 145.794 171.933 130.238L172.109 130.004L172.331 129.811C183.053 120.471 196.586 113.308 212.555 108.523C241 99.9968 274.055 104.243 300.977 119.881C325.719 134.253 342.632 156.385 348.6 182.201C355.084 210.257 350.756 237.14 336.084 259.942C320.748 283.779 294.924 300.905 265.235 306.929L264.793 306.983C263.264 307.048 261.727 307.08 260.188 307.08ZM185.925 270.637C198.523 283.294 214.233 292.551 231.357 297.409C234.981 298.436 238.678 299.274 242.343 299.901C244.026 300.194 245.838 300.459 247.891 300.711C253.347 301.353 258.881 301.566 264.331 301.349C292.444 295.586 316.855 279.39 331.335 256.886C345.162 235.395 349.229 210.009 343.096 183.473C337.484 159.194 321.518 138.344 298.14 124.766C272.543 109.897 241.156 105.848 214.177 113.933C199.094 118.454 186.34 125.163 176.262 133.878C165.213 148.585 158.235 166.064 156.078 184.442C152.319 216.387 163.198 247.804 185.925 270.637Z" fill="#371A45"/>
<path d="M241.512 298.233C229.343 298.233 216.941 296.252 204.818 292.19L204.465 292.072L194.082 285.162C193.511 284.655 179.966 272.59 168.295 257.958C156.333 242.961 151.644 217.422 151.45 216.342L151.407 215.912C150.164 164.832 171.944 132.217 216.141 118.972C241.528 111.363 271.028 115.15 295.052 129.104C317.139 141.933 332.239 161.693 337.569 184.747C345.265 218.031 335.613 249.897 311.088 272.173C292.309 289.231 267.445 298.233 241.512 298.233ZM206.963 286.951C242.884 298.855 281.296 291.604 307.29 267.992C330.257 247.131 339.288 217.253 332.066 186.019C327.091 164.503 312.938 146.025 292.215 133.989C269.515 120.804 241.682 117.213 217.762 124.382C176.372 136.787 155.946 167.46 157.048 215.548C157.512 217.971 162.18 241.233 172.711 254.435C183.441 267.888 196.195 279.466 197.688 280.808L206.963 286.951Z" fill="#371A45"/>
<path d="M379.759 199.614C377.123 206.402 372.58 211.7 366.466 214.244C352.181 220.189 334.74 208.836 327.507 188.892C326.911 187.248 326.401 185.597 325.982 183.95C321.271 165.58 327.169 147.454 340.275 141.999C354.56 136.054 372.008 147.4 379.242 167.351C383.38 178.766 383.28 190.525 379.759 199.614Z" fill="white"/>
<g opacity="0.35">
<path d="M379.759 199.614C377.123 206.402 372.58 211.7 366.466 214.244C352.181 220.189 334.74 208.836 327.507 188.892C326.911 187.248 326.401 185.597 325.982 183.95C329.378 186.903 336.44 190.897 342.957 180.975L359.389 180.493C359.389 180.493 372.041 187.748 379.759 199.614Z" fill="#371A45"/>
</g>
<path d="M358.514 218.659C354.926 218.659 351.25 217.855 347.601 216.25C337.637 211.869 329.345 202.247 324.85 189.852C317.122 168.537 323.554 145.901 339.189 139.392C345.435 136.792 352.336 136.998 359.143 139.992C369.107 144.373 377.399 153.995 381.894 166.39C389.622 187.705 383.19 210.341 367.555 216.85C364.657 218.057 361.619 218.659 358.514 218.659ZM348.227 143.242C345.854 143.242 343.547 143.696 341.36 144.607C328.469 149.973 323.445 169.406 330.16 187.926C334.073 198.717 341.442 207.372 349.874 211.079C355.234 213.435 360.597 213.628 365.384 211.636C378.275 206.269 383.299 186.836 376.583 168.316C372.671 157.526 365.301 148.87 356.87 145.163C353.959 143.884 351.047 143.242 348.227 143.242Z" fill="#371A45"/>
<path d="M370.82 207.571C382.973 204.323 389.296 188.484 384.942 172.193C380.588 155.902 367.206 145.329 355.053 148.577C342.901 151.825 336.578 167.664 340.932 183.955C345.286 200.246 358.667 210.819 370.82 207.571Z" fill="white"/>
<path d="M366.429 208.443C365.582 208.443 364.724 208.384 363.856 208.265C350.842 206.49 339.82 191.517 339.286 174.888C338.987 165.576 341.996 157.368 347.543 152.367C351.626 148.687 356.632 147.129 362.015 147.864C375.029 149.64 386.051 164.613 386.585 181.241C386.884 190.553 383.874 198.762 378.328 203.762C374.903 206.849 370.83 208.443 366.429 208.443ZM359.448 148.278C355.191 148.278 351.252 149.819 347.938 152.806C342.521 157.69 339.582 165.732 339.876 174.869C340.401 191.223 351.194 205.942 363.935 207.681C369.145 208.388 373.983 206.884 377.933 203.324C383.35 198.44 386.289 190.398 385.995 181.261C385.47 164.907 374.676 150.188 361.935 148.449C361.096 148.335 360.266 148.278 359.448 148.278Z" fill="#371A45"/>
<g opacity="0.35">
<path d="M347.117 197.558C343.878 192.764 341.943 187.065 341.294 181.29C349.598 191.599 362.046 192.519 370.005 182.995C375.151 176.843 377.232 167.74 376.223 158.805C376.751 159.451 377.259 160.149 377.752 160.874C385.992 173.085 385.815 191.195 377.353 201.325C368.891 211.454 355.354 209.76 347.117 197.558Z" fill="#371A45"/>
</g>
<path d="M367.664 210.748C364.997 210.748 362.253 210.149 359.519 208.953C351.474 205.435 344.419 197.048 340.646 186.516C334.219 168.572 338.814 150.417 351.106 145.186C355.741 143.213 360.902 143.357 366.033 145.6C374.078 149.118 381.133 157.506 384.905 168.037C391.332 185.981 386.737 204.135 374.445 209.367C372.281 210.289 370.002 210.748 367.664 210.748ZM357.886 149.463C356.296 149.463 354.761 149.769 353.318 150.383C343.933 154.377 340.635 169.732 345.964 184.611C349.222 193.706 355.135 200.871 361.782 203.778C365.452 205.382 369.065 205.518 372.233 204.17C381.617 200.175 384.916 184.821 379.587 169.942C376.329 160.847 370.416 153.682 363.769 150.775C361.771 149.901 359.789 149.463 357.886 149.463Z" fill="#371A45"/>
<g opacity="0.5">
<path d="M248.774 134.785C248.774 134.785 204.952 151.024 188.086 184.108C188.068 184.143 188.051 184.178 188.033 184.212C184.489 191.179 182.896 198.979 183.359 206.781C183.973 217.099 185.907 224.119 187.848 230.234C193.76 248.828 200.008 256.434 200.008 256.434C186.309 249.972 176.804 240.714 171.726 225.276C171.229 223.752 170.774 222.163 170.357 220.517C170.26 220.139 170.172 219.761 170.089 219.379C170.08 219.378 170.081 219.369 170.087 219.355C169.479 215.962 168.847 211.474 168.557 206.351C167.674 190.901 169.861 169.688 185.03 155.344C213.395 128.523 249.688 132.356 248.774 134.785Z" fill="white"/>
</g>
<g opacity="0.5">
<path d="M305.758 183.439C312.447 179.159 313.826 169.37 308.838 161.575C303.85 153.78 294.384 150.931 287.695 155.212C281.006 159.492 279.627 169.281 284.615 177.076C289.603 184.871 299.069 187.719 305.758 183.439Z" fill="white"/>
</g>
<g opacity="0.5">
<path d="M317.349 200.453C319.952 198.459 320.179 194.383 317.854 191.349C315.53 188.316 311.536 187.474 308.933 189.468C306.33 191.463 306.104 195.539 308.428 198.572C310.752 201.605 314.746 202.448 317.349 200.453Z" fill="white"/>
</g>
<path d="M236.169 377.368C244.033 377.368 250.409 370.992 250.409 363.128C250.409 355.264 244.033 348.888 236.169 348.888C228.305 348.888 221.929 355.264 221.929 363.128C221.929 370.992 228.305 377.368 236.169 377.368Z" fill="white"/>
<g opacity="0.35">
<path d="M222.228 366.015C223.824 373.716 231.357 378.672 239.058 377.076C246.758 375.48 251.712 367.936 250.116 360.235C249.675 358.108 248.779 356.179 247.54 354.552C246.278 359.725 242.147 363.99 236.584 365.143C231.022 366.296 225.536 364.024 222.333 359.776C221.843 361.761 221.787 363.888 222.228 366.015Z" fill="#371A45"/>
</g>
<path d="M236.165 380.056C228.311 380.056 221.25 374.549 219.594 366.563C218.677 362.136 219.538 357.616 222.02 353.837C224.502 350.057 228.307 347.471 232.734 346.553C241.871 344.663 250.849 350.553 252.744 359.692C254.638 368.831 248.744 377.808 239.604 379.702C238.451 379.941 237.299 380.056 236.165 380.056ZM224.857 365.472C226.149 371.71 232.278 375.733 238.514 374.44C244.751 373.148 248.774 367.021 247.481 360.783C246.188 354.546 240.064 350.525 233.824 351.815C230.802 352.442 228.206 354.207 226.512 356.787C224.818 359.366 224.23 362.45 224.857 365.472Z" fill="#371A45"/>
<path d="M253.937 398.719L325.868 393.122C334.382 392.462 340.812 384.952 340.151 376.427L337.17 338.15C336.589 330.687 330.757 324.835 323.594 323.94C322.58 323.807 321.537 323.786 320.475 323.867L248.555 329.463C240.031 330.124 233.6 337.634 234.272 346.157L236.626 376.475L237.243 384.436C237.904 392.961 245.423 399.379 253.937 398.719Z" fill="white"/>
<path d="M396.328 328.07C396.328 328.07 405.874 327.877 408.754 338.893C410.591 345.916 406.637 353.916 406.637 353.916C406.637 353.916 380.335 368.719 335.242 368.944C335.242 368.944 320.943 356.363 334.115 343.553C334.115 343.553 375.216 340.096 396.328 328.07Z" fill="white"/>
<path d="M253.937 398.719L325.868 393.122C334.382 392.462 340.812 384.952 340.151 376.427L337.17 338.15C336.589 330.687 330.757 324.835 323.594 323.94C322.58 323.807 321.537 323.786 320.475 323.867L248.555 329.463C240.031 330.124 233.6 337.634 234.272 346.157L236.626 376.475L237.243 384.436C237.904 392.961 245.423 399.379 253.937 398.719Z" fill="white"/>
<path d="M396.328 328.07C396.328 328.07 405.874 327.877 408.754 338.893C410.591 345.916 406.637 353.916 406.637 353.916C406.637 353.916 380.335 368.719 335.242 368.944C335.242 368.944 320.943 356.363 334.115 343.553C334.115 343.553 375.216 340.096 396.328 328.07Z" fill="white"/>
<g opacity="0.35">
<path d="M345.724 386.049C346.384 394.572 339.954 402.081 331.438 402.747L259.51 408.342C250.994 409.002 243.479 402.585 242.813 394.056L242.202 386.097L239.848 355.777C239.175 347.254 245.605 339.745 254.128 339.086L326.048 333.49C327.109 333.408 328.15 333.427 329.167 333.56C336.328 334.459 342.162 340.308 342.739 347.77L343.134 352.83C352.988 351.756 381.695 347.987 399.438 339.013C402.416 346.643 403.239 348.874 407.177 358.378C398.564 365.77 384.148 376.29 345.133 378.493L345.724 386.049Z" fill="#371A45"/>
</g>
<path d="M253.937 398.719L325.868 393.122C334.382 392.462 340.812 384.952 340.151 376.427L337.17 338.15C336.589 330.687 330.757 324.835 323.594 323.94C322.58 323.807 321.537 323.786 320.475 323.867L248.555 329.463C240.031 330.124 233.6 337.634 234.272 346.157L236.626 376.475L237.243 384.436C237.904 392.961 245.423 399.379 253.937 398.719Z" fill="white"/>
<g opacity="0.35">
<path d="M253.937 398.719L325.868 393.122C334.382 392.462 340.812 384.952 340.15 376.427L337.17 338.15C336.589 330.687 330.757 324.835 323.594 323.94C319.721 326.97 317.262 328.908 317.262 328.908C316.151 359.906 319.274 382.579 271.354 383.128C254.834 383.318 243.448 379.344 236.626 376.475L237.242 384.436C237.904 392.961 245.423 399.379 253.937 398.719Z" fill="#371A45"/>
</g>
<path d="M252.72 401.455C243.308 401.455 235.308 394.185 234.566 384.645L231.588 346.362C230.808 336.344 238.324 327.561 248.342 326.781L320.268 321.185C325.104 320.813 329.808 322.35 333.516 325.521C337.223 328.694 339.472 333.104 339.849 337.94L342.827 376.224C343.606 386.241 336.09 395.025 326.072 395.804L254.147 401.4C253.669 401.437 253.192 401.455 252.72 401.455ZM321.69 326.505C321.357 326.505 321.022 326.517 320.684 326.543L248.759 332.139C241.696 332.689 236.396 338.882 236.946 345.945L239.924 384.229C240.189 387.633 241.776 390.741 244.393 392.98C247.01 395.219 250.324 396.298 253.73 396.042L325.656 390.446C332.719 389.897 338.018 383.703 337.469 376.64L334.491 338.357C333.968 331.631 328.327 326.505 321.69 326.505Z" fill="#371A45"/>
<path d="M251.028 398.661C251.975 398.782 252.941 398.802 253.937 398.719L325.868 393.122C332.106 392.633 337.226 388.479 339.251 382.923C339.991 380.905 340.322 378.702 340.14 376.429L338.823 359.423L338.388 353.812L337.17 338.15C336.508 329.625 328.989 323.207 320.475 323.867L304.933 325.08C312.202 325.873 318.149 331.763 318.739 339.302L320.354 359.978L321.722 377.59C322.381 386.104 315.953 393.624 307.439 394.284L251.028 398.661Z" fill="white"/>
<g opacity="0.35">
<path d="M251.028 398.661C251.975 398.782 252.941 398.802 253.937 398.719L325.868 393.122C334.381 392.462 340.812 384.952 340.14 376.429L338.388 353.812C336.89 357.948 334.022 363.106 328.861 364.026C326.03 364.537 323.062 362.702 320.354 359.977L321.722 377.589C322.382 386.103 315.953 393.624 307.439 394.284L251.028 398.661Z" fill="#371A45"/>
</g>
<path d="M252.75 401.455C252.068 401.455 251.383 401.414 250.703 401.332L250.817 395.985L307.233 391.602C310.634 391.339 313.74 389.753 315.979 387.136C318.219 384.518 319.306 381.202 319.039 377.798L316.06 339.514C315.582 333.368 310.781 328.419 304.644 327.745L304.728 322.396L320.264 321.184C325.102 320.808 329.808 322.35 333.514 325.522C337.223 328.696 339.472 333.106 339.845 337.943L342.824 376.221C343.203 381.057 341.664 385.764 338.49 389.474C335.317 393.182 330.908 395.431 326.075 395.804L254.145 401.397C253.684 401.436 253.218 401.455 252.75 401.455ZM315.411 326.952C318.805 329.996 321.044 334.288 321.418 339.098L324.397 377.38C324.776 382.214 323.237 386.92 320.062 390.63C319.985 390.721 319.907 390.81 319.828 390.899L325.66 390.446C329.062 390.183 332.167 388.597 334.406 385.98C336.646 383.361 337.733 380.045 337.466 376.641V376.639L334.487 338.358C334.224 334.952 332.638 331.845 330.021 329.606C327.404 327.366 324.092 326.274 320.68 326.541L315.411 326.952Z" fill="#371A45"/>
<path d="M291.893 360.963C292.011 362.378 294.955 373.634 294.955 373.634C294.955 373.634 298.573 373.331 303.016 372.96C308.567 372.496 312.586 366.373 311.993 359.283C311.401 352.194 306.421 346.823 300.87 347.286C297.124 347.599 292.809 347.96 292.809 347.96C292.809 347.96 291.7 358.658 291.893 360.963Z" fill="#22A7F0"/>
<g opacity="0.35">
<path d="M291.893 360.963C292.011 362.378 294.955 373.634 294.955 373.634C294.955 373.634 298.573 373.331 303.016 372.96C308.567 372.496 312.586 366.373 311.993 359.283C311.401 352.194 306.421 346.823 300.87 347.286C297.124 347.599 292.809 347.96 292.809 347.96C292.809 347.96 291.7 358.658 291.893 360.963Z" fill="#371A45"/>
</g>
<path d="M293.434 375.783L293.005 374.144C292.304 371.464 290.008 362.605 289.884 361.131V361.13C289.682 358.708 290.689 348.867 290.804 347.753L290.977 346.091L300.703 345.279C304.015 345.001 307.237 346.351 309.769 349.082C312.175 351.676 313.678 355.24 314.002 359.115C314.686 367.301 309.833 374.412 303.184 374.968L293.434 375.783ZM293.901 360.792C293.981 361.576 295.208 366.572 296.478 371.484L302.848 370.952C307.282 370.581 310.484 365.422 309.985 359.452C309.736 356.469 308.609 353.76 306.813 351.823C305.143 350.021 303.086 349.123 301.038 349.295L294.646 349.829C294.248 353.912 293.789 359.44 293.901 360.792Z" fill="#371A45"/>
<path d="M294.953 373.62C300.503 373.156 304.522 367.033 303.93 359.943C303.337 352.854 298.357 347.483 292.806 347.947C287.256 348.411 283.237 354.534 283.829 361.623C284.422 368.713 289.402 374.084 294.953 373.62Z" fill="#22A7F0"/>
<g opacity="0.35">
<path d="M303.932 359.96C304.527 367.045 300.507 373.172 294.958 373.636C289.4 374.102 284.421 368.728 283.833 361.634C283.75 360.677 283.757 359.732 283.843 358.817C285.678 363.567 289.645 366.73 293.955 366.363C298.748 365.963 302.406 361.341 302.92 355.511C303.45 356.878 303.795 358.376 303.932 359.96Z" fill="#371A45"/>
</g>
<path d="M303.932 359.96C303.974 360.442 303.991 360.919 303.983 361.392C302.416 355.93 298.129 352.153 293.44 352.547C288.269 352.984 284.419 358.331 284.416 364.799C284.122 363.79 283.928 362.735 283.833 361.634C283.238 354.548 287.258 348.421 292.807 347.957C298.357 347.5 303.336 352.866 303.932 359.96Z" fill="white"/>
<path d="M294.295 375.677C287.985 375.677 282.479 369.65 281.823 361.806C281.499 357.93 282.39 354.166 284.332 351.208C286.375 348.096 289.326 346.229 292.641 345.952C299.297 345.395 305.257 351.604 305.94 359.789C306.264 363.665 305.373 367.428 303.432 370.386C301.389 373.499 298.438 375.365 295.123 375.642C294.846 375.665 294.569 375.677 294.295 375.677ZM285.84 361.469C286.339 367.44 290.36 371.982 294.787 371.626C296.841 371.454 298.714 370.229 300.062 368.174C301.512 365.966 302.173 363.107 301.924 360.125C301.425 354.155 297.397 349.598 292.977 349.969C290.923 350.141 289.05 351.366 287.701 353.42C286.252 355.628 285.591 358.487 285.84 361.469Z" fill="#371A45"/>
<path d="M276.274 398.718C275.252 398.718 274.377 397.945 274.271 396.906L271.903 373.609C271.768 372.278 270.98 371.113 269.796 370.491L262.645 366.735C260.202 365.451 258.61 363.043 258.387 360.293L255.837 328.926C255.746 327.816 256.573 326.843 257.682 326.753C258.791 326.677 259.764 327.489 259.854 328.599L262.404 359.966C262.515 361.333 263.306 362.529 264.519 363.167L271.67 366.922C274.055 368.174 275.641 370.522 275.914 373.202L278.281 396.499C278.393 397.606 277.587 398.596 276.48 398.708C276.411 398.715 276.342 398.718 276.274 398.718Z" fill="#371A45"/>
<path d="M396.328 328.07C396.328 328.07 405.874 327.877 408.754 338.893C410.591 345.916 406.637 353.916 406.637 353.916C406.637 353.916 380.335 368.719 335.242 368.944C335.242 368.944 320.943 356.363 334.115 343.553C334.115 343.553 375.216 340.096 396.328 328.07Z" fill="white"/>
<g opacity="0.35">
<path d="M406.638 353.919C406.638 353.919 380.339 368.719 335.241 368.946C335.241 368.946 325.913 360.742 329.259 350.838C329.277 350.891 329.295 350.943 329.314 350.995C331.192 356.291 336.377 359.717 341.992 359.5C382.87 357.923 406.505 344.622 406.505 344.622C406.505 344.622 407.83 341.936 408.592 338.318C408.648 338.505 408.705 338.699 408.754 338.893C410.588 345.914 406.638 353.919 406.638 353.919Z" fill="#371A45"/>
</g>
<path d="M338.925 371.578C335.375 371.578 332.049 369.874 329.988 366.985C324.739 359.63 324.464 351.871 329.213 345.14C331.024 342.572 333.869 340.905 337.018 340.564C345.611 339.636 375.019 335.913 392.669 326.984C395.572 325.514 398.898 325.358 401.794 326.557C405.125 327.933 409.487 331.074 411.354 338.213C412.593 342.953 411.589 347.939 410.529 351.287C409.611 354.183 407.477 356.591 404.674 357.894C396.401 361.735 373.462 370.758 339.191 371.575C339.103 371.577 339.014 371.578 338.925 371.578ZM397.744 331.133C396.853 331.133 395.944 331.349 395.095 331.779C377.138 340.864 348.902 344.686 337.595 345.907C335.981 346.082 334.526 346.931 333.604 348.238C330.176 353.097 330.431 358.354 334.362 363.864C335.439 365.372 337.188 366.239 339.063 366.202C372.323 365.41 394.443 356.72 402.41 353.02C403.85 352.351 404.942 351.127 405.405 349.664C406.252 346.991 407.069 343.071 406.155 339.573C405.105 335.556 402.946 332.848 399.74 331.523C399.109 331.262 398.432 331.133 397.744 331.133Z" fill="#371A45"/>
<path d="M201.418 296.451C198.365 288.507 233.65 275.482 248.939 270.872C283.656 260.402 291.364 233.878 280.193 218.386C259.222 189.301 183.765 212.563 161.512 234.392C153.577 242.174 136.396 261.29 140.683 291.419" fill="white"/>
<g opacity="0.35">
<path d="M248.941 270.874C234.665 275.17 202.973 286.808 201.3 294.8C172.992 281.18 223.862 265.948 238.565 261.963C267.55 254.098 282.748 240.293 284.449 228.176C287.481 243.336 277.091 262.384 248.941 270.874Z" fill="#371A45"/>
</g>
<g opacity="0.35">
<path d="M204.958 296.401L201.235 295.406C201.232 295.204 201.256 295.002 201.3 294.8C202.349 295.35 203.566 295.883 204.958 296.401Z" fill="#371A45"/>
</g>
<path d="M201.419 299.139C200.339 299.139 199.321 298.483 198.91 297.415C198.505 296.362 198.234 294.675 199.241 292.62C204.677 281.522 246.39 268.834 248.163 268.299C264.933 263.242 276.848 253.559 280.853 241.734C283.466 234.021 282.431 226.083 278.014 219.957C272.933 212.911 263.973 208.792 251.383 207.717C221.407 205.156 178.731 221.266 163.394 236.31C147.184 252.208 140.438 270.623 143.344 291.041C143.552 292.51 142.531 293.87 141.062 294.08C139.594 294.286 138.232 293.267 138.023 291.798C134.864 269.594 142.134 249.634 159.631 232.473C176.104 216.315 219.971 199.642 251.841 202.363C266.062 203.577 276.335 208.439 282.373 216.814C287.819 224.367 289.12 234.079 285.943 243.458C281.374 256.95 268.169 267.879 249.715 273.444C229.911 279.417 206.827 289.351 204.067 294.984C203.939 295.247 203.904 295.429 203.927 295.487C204.459 296.872 203.768 298.427 202.382 298.959C202.065 299.081 201.739 299.139 201.419 299.139Z" fill="#371A45"/>
<path d="M445.237 268.066C444.817 268.066 444.393 267.954 444.008 267.721C414.867 250.001 404.035 206.412 403.588 204.565C403.281 203.292 404.062 202.012 405.334 201.704C406.605 201.396 407.887 202.178 408.195 203.449C408.301 203.882 419.026 246.982 446.471 263.67C447.589 264.35 447.945 265.808 447.265 266.926C446.818 267.66 446.037 268.066 445.237 268.066Z" fill="#371A45"/>
<path d="M208.968 289.695C208.962 289.695 208.957 289.695 208.951 289.695C193.618 289.587 179.845 281.744 171.164 268.178C162.836 255.165 161.046 239.613 166.49 227.589C167.03 226.398 168.432 225.869 169.627 226.408C170.819 226.948 171.348 228.353 170.808 229.545C166.018 240.122 167.684 253.946 175.156 265.623C182.957 277.812 195.287 284.859 208.984 284.955C210.293 284.964 211.347 286.033 211.337 287.342C211.328 288.645 210.269 289.695 208.968 289.695Z" fill="#371A45"/>
<path d="M266.928 457.882C265.864 457.882 264.897 457.161 264.63 456.082C259.635 435.934 208.66 426.834 189.44 425.027C188.136 424.904 187.179 423.749 187.301 422.446C187.424 421.143 188.581 420.184 189.882 420.307C192.841 420.585 262.408 427.421 269.23 454.941C269.545 456.212 268.77 457.496 267.5 457.812C267.309 457.859 267.117 457.882 266.928 457.882Z" fill="#371A45"/>
<path d="M371.937 463.57C370.401 463.57 368.977 463.508 367.685 463.379C366.382 463.249 365.431 462.088 365.561 460.785C365.691 459.484 366.847 458.53 368.154 458.662C386.539 460.496 432.221 448.37 436.035 432.887C436.348 431.616 437.635 430.837 438.903 431.152C440.174 431.466 440.951 432.749 440.638 434.021C437.752 445.736 419.452 453.35 408.8 456.845C396.145 460.999 381.783 463.57 371.937 463.57Z" fill="#371A45"/>
<path d="M184.041 480.269C184.58 480.122 184.95 480.04 185.384 479.946C185.808 479.845 186.216 479.794 186.633 479.718C187.458 479.589 188.283 479.481 189.102 479.418C190.743 479.248 192.375 479.236 194 479.234C197.251 479.288 200.466 479.629 203.632 480.163C206.793 480.723 209.914 481.433 212.933 482.478C213.695 482.703 214.438 483.003 215.179 483.3C215.921 483.59 216.66 483.888 217.39 484.208C218.844 484.866 220.266 485.603 221.651 486.411C220.032 486.373 218.461 486.227 216.903 486.07C215.331 485.971 213.792 485.779 212.251 485.641L207.653 485.225C206.889 485.168 206.133 485.062 205.371 485.018L203.09 484.876C200.054 484.721 197.031 484.644 194.039 484.74C192.545 484.775 191.055 484.861 189.588 484.979C188.85 485.031 188.127 485.12 187.404 485.192L186.342 485.328C186.008 485.37 185.611 485.434 185.392 485.47L185.181 485.505C183.719 485.746 182.339 484.756 182.098 483.294C181.873 481.928 182.735 480.629 184.041 480.269Z" fill="#371A45"/>
<path d="M414.856 492.973C415.968 489.424 418.247 486.286 420.936 483.637C423.635 480.956 426.919 478.898 430.385 477.263C432.157 476.556 433.935 475.794 435.791 475.337C436.714 475.092 437.631 474.776 438.572 474.629L441.395 474.145C442.336 473.958 443.285 473.916 444.232 473.856C445.18 473.79 446.129 473.737 447.078 473.694C448.968 473.697 450.854 473.835 452.733 473.959C454.21 474.057 455.328 475.333 455.231 476.81C455.139 478.21 453.988 479.287 452.611 479.313L452.327 479.318C450.602 479.346 448.883 479.282 447.171 479.276C446.32 479.332 445.469 479.378 444.616 479.411C443.763 479.442 442.908 479.468 442.073 479.609L439.544 479.913C439.117 479.947 438.707 480.045 438.295 480.136L437.051 480.389C435.362 480.642 433.786 481.243 432.137 481.672C428.935 482.783 425.886 484.307 422.969 486.155C420.063 488.029 417.324 490.249 414.856 492.973Z" fill="#371A45"/>
</g>
<defs>
<clipPath id="clip0_3576_2">
<rect width="632" height="632" fill="white"/>
</clipPath>
</defs>
</svg>
