<?xml version="1.0" encoding="UTF-8"?>
<svg id="Capa_2" data-name="Capa 2" xmlns="http://www.w3.org/2000/svg" viewBox="0 0 115.43 45.99">
  <defs>
    <style>
      .cls-1 {
        fill: #dc005e;
      }

      .cls-2 {
        fill: #89878c;
      }
    </style>
  </defs>
  <g id="_-DO_NOT_TOUCH-Crops" data-name="-DO NOT TOUCH-Crops">
    <g>
      <path class="cls-2" d="m38.09,5.81c2.24,2.03,4.03,4.35,5.36,6.98l-8.2,4.06c-1.72-3.42-4.36-5.73-7.91-6.93-3.59-1.21-7.08-.97-10.48.73-3.4,1.7-5.7,4.33-6.91,7.9-1.21,3.59-.98,7.08.7,10.47,1.68,3.39,4.31,5.7,7.9,6.91,2.82.95,5.61.99,8.38.12,2.77-.87,5.04-2.42,6.81-4.64l-12.27-4.14,2.92-8.66,12.27,4.14,5.03,1.7,3.95,1.34c-.17,1.46-.52,2.95-1.03,4.48-2.02,5.97-5.87,10.36-11.55,13.17-5.68,2.81-11.5,3.2-17.45,1.19-5.97-2.02-10.36-5.86-13.17-11.53C-.36,27.41-.75,21.59,1.26,15.62,3.27,9.67,7.12,5.28,12.79,2.46,18.47-.35,24.29-.75,30.26,1.26c2.98,1.01,5.59,2.52,7.83,4.55Z"/>
      <path class="cls-1" d="m56.77,24.08c-.48-.3-1.03-.62-1.65-.95.66-.38,1.22-.74,1.68-1.06.46-.32,1.13-.75,1.99-1.26,1.19-.75,2.33-1.65,3.42-2.72,1.09-1.07,1.63-2.08,1.63-3.05,0-1.55-.58-2.89-1.71-4.01-1.13-1.12-2.49-1.67-4.06-1.66-1.38,0-2.59.46-3.63,1.34-1.04.89-1.68,1.97-1.94,3.26l-9.12-1.02c.51-3.56,2.14-6.57,4.91-9.02,2.77-2.45,6.01-3.69,9.71-3.71,4.09-.03,7.6,1.41,10.53,4.31s4.41,6.38,4.44,10.45c0,1.48-.23,2.88-.73,4.21-.49,1.33-1.62,2.61-3.37,3.85,1.82.88,2.98,2.06,3.46,3.54.48,1.48.73,2.96.74,4.44.03,4.09-1.41,7.6-4.31,10.53-2.9,2.93-6.39,4.41-10.48,4.44-3.71.02-6.96-1.17-9.76-3.59-2.8-2.41-4.47-5.41-5.03-8.98l9.11-1.14c.27,1.3.93,2.39,1.98,3.25,1.05.86,2.26,1.29,3.64,1.28,1.57,0,2.92-.57,4.04-1.69,1.12-1.11,1.67-2.47,1.66-4.06,0-1.44-.49-2.53-1.44-3.28-.95-.75-2.14-1.56-3.56-2.42-.97-.56-1.69-.99-2.17-1.29Z"/>
    </g>
    <g>
      <path class="cls-2" d="m78.72,16.33h2.12c2.71,0,4.41,1.7,4.41,4.22s-1.7,4.22-4.41,4.22h-1.01v4.19l-1.11.22v-12.86Zm1.11,7.38h1c2.1,0,3.28-1.2,3.28-3.15s-1.18-3.16-3.28-3.16h-1v6.31Z"/>
      <path class="cls-2" d="m88.61,19.78l1.01-.13v1.99c.77-1.48,1.86-2.2,3.25-2.2h.26l-.42,1.18c-2.12.07-3.06,1.7-3.06,4.87v3.47l-1.03.13v-9.32Z"/>
      <path class="cls-2" d="m96.15,15.94l.79.85-.79.94-.77-.85.77-.94Zm-.52,3.84l1.05-.13v9.32l-1.05.15v-9.33Z"/>
      <path class="cls-2" d="m100.54,19.78l1.03-.13v1.57c.78-1.13,1.77-1.68,3.01-1.68,1.97,0,3.21,1.24,3.21,3.54v5.88l-1.01.13v-5.5c0-2.12-.81-3.19-2.45-3.19-1.42,0-2.75,1.2-2.75,2.82v5.74l-1.03.13v-9.32Z"/>
      <path class="cls-2" d="m114.46,29.09c-2.1,0-2.55-1.24-2.55-3.62v-4.7h-1.33l.29-1h1.03v-2.18l1.03-.63v2.8h2.4v1h-2.4v4.83c0,1.62.18,2.45,1.57,2.45.24,0,.55-.04.92-.11v1.01c-.39.09-.72.13-.98.13Z"/>
    </g>
  </g>
</svg>