<?xml version="1.0" encoding="UTF-8"?>
<svg id="Capa_2" data-name="Capa 2" xmlns="http://www.w3.org/2000/svg" viewBox="0 0 131.38 52.34">
  <defs>
    <style>
      .cls-1 {
        fill: #fff;
      }
    </style>
  </defs>
  <g id="_-DO_NOT_TOUCH-Crops" data-name="-DO NOT TOUCH-Crops">
    <g>
      <path class="cls-1" d="m43.35,6.61c2.55,2.31,4.59,4.95,6.1,7.94l-9.34,4.62c-1.96-3.89-4.96-6.52-9-7.88-4.08-1.38-8.06-1.1-11.93.83-3.87,1.93-6.49,4.93-7.86,8.99-1.38,4.08-1.11,8.05.8,11.92,1.91,3.86,4.91,6.48,8.99,7.86,3.2,1.08,6.38,1.13,9.54.13,3.15-.99,5.74-2.75,7.75-5.28l-13.96-4.71,3.33-9.86,13.96,4.71,5.72,1.93,4.5,1.52c-.2,1.66-.59,3.36-1.17,5.09-2.29,6.8-6.68,11.79-13.14,14.98-6.47,3.19-13.09,3.65-19.86,1.36-6.8-2.29-11.79-6.67-14.99-13.13C-.41,31.2-.86,24.57,1.44,17.78,3.73,11,8.1,6.01,14.56,2.8,21.02-.4,27.65-.86,34.44,1.44c3.39,1.14,6.36,2.87,8.91,5.17Z"/>
      <path class="cls-1" d="m64.61,27.41c-.54-.34-1.17-.7-1.88-1.09.75-.44,1.39-.84,1.91-1.21.53-.37,1.28-.85,2.27-1.44,1.35-.85,2.65-1.88,3.89-3.09,1.24-1.21,1.86-2.37,1.85-3.47-.01-1.77-.66-3.29-1.95-4.56-1.29-1.27-2.83-1.9-4.62-1.89-1.57,0-2.95.52-4.13,1.53-1.18,1.01-1.91,2.25-2.21,3.71l-10.38-1.16c.58-4.05,2.44-7.47,5.59-10.26,3.15-2.79,6.83-4.2,11.06-4.22,4.65-.03,8.65,1.6,11.99,4.9s5.02,7.26,5.05,11.89c.01,1.68-.26,3.28-.83,4.79-.56,1.51-1.84,2.97-3.83,4.39,2.07,1,3.39,2.34,3.94,4.03.55,1.69.83,3.37.84,5.05.03,4.65-1.6,8.65-4.9,11.99-3.3,3.34-7.27,5.02-11.92,5.05-4.22.03-7.92-1.33-11.11-4.08-3.18-2.75-5.09-6.16-5.72-10.22l10.36-1.29c.31,1.48,1.06,2.72,2.25,3.7,1.19.98,2.57,1.47,4.15,1.46,1.79-.01,3.32-.65,4.59-1.92,1.27-1.27,1.9-2.81,1.89-4.62-.01-1.64-.56-2.88-1.64-3.74-1.08-.85-2.43-1.77-4.06-2.75-1.1-.64-1.92-1.13-2.47-1.47Z"/>
    </g>
    <g>
      <path class="cls-1" d="m89.59,18.58h2.41c3.09,0,5.02,1.93,5.02,4.81s-1.93,4.81-5.02,4.81h-1.15v4.77l-1.26.25v-14.63Zm1.26,8.4h1.13c2.39,0,3.74-1.36,3.74-3.59s-1.34-3.59-3.74-3.59h-1.13v7.18Z"/>
      <path class="cls-1" d="m100.84,22.51l1.15-.15v2.27c.88-1.68,2.12-2.5,3.7-2.5h.29l-.48,1.34c-2.41.08-3.49,1.93-3.49,5.54v3.95l-1.18.15v-10.6Z"/>
      <path class="cls-1" d="m109.43,18.14l.9.97-.9,1.07-.88-.97.88-1.07Zm-.59,4.37l1.2-.15v10.6l-1.2.17v-10.62Z"/>
      <path class="cls-1" d="m114.43,22.51l1.18-.15v1.79c.88-1.28,2.02-1.91,3.42-1.91,2.25,0,3.65,1.41,3.65,4.03v6.7l-1.15.15v-6.26c0-2.41-.92-3.63-2.79-3.63-1.62,0-3.13,1.36-3.13,3.21v6.53l-1.18.15v-10.6Z"/>
      <path class="cls-1" d="m130.26,33.11c-2.39,0-2.9-1.41-2.9-4.12v-5.35h-1.51l.34-1.13h1.18v-2.48l1.18-.71v3.19h2.73v1.13h-2.73v5.5c0,1.85.21,2.79,1.78,2.79.27,0,.63-.04,1.05-.13v1.16c-.44.1-.82.15-1.11.15Z"/>
    </g>
  </g>
</svg>