<svg width="4000" height="4000" viewBox="0 0 4000 4000" fill="none" xmlns="http://www.w3.org/2000/svg">
<path d="M1170.15 2126.24L994.892 3263.25L516.995 3289.57C512.594 3289.83 508.194 3289.91 503.879 3289.91C445.889 3289.91 389.711 3268.77 346.046 3230.28C332.843 3218.63 321.194 3205.86 311.183 3192.05C264.671 3128.46 251.813 3044.75 279.772 2968.72L464.7 2339.99C479.715 2288.99 507.588 2244.37 544.09 2209.34C598.197 2157.3 671.46 2126.24 750.333 2126.24H1170.15Z" fill="white"/>
<g opacity="0.15">
<path d="M1170.15 2126.24L994.892 3263.25L516.995 3289.57C512.594 3289.83 508.194 3289.91 503.879 3289.91C445.889 3289.91 389.712 3268.77 346.046 3230.28C332.843 3218.63 321.194 3205.86 311.183 3192.05C544.19 3494.64 871.49 2382.37 685.613 2251.28C636.687 2216.77 589.826 2203.64 544.09 2209.34C598.197 2157.3 671.46 2126.24 750.333 2126.24H1170.15Z" fill="#371A45"/>
</g>
<path d="M503.627 3314.78C439.425 3314.78 378.106 3291.68 329.578 3248.92C247.529 3176.59 218.761 3063.64 256.153 2960.95L440.842 2332.99C480.941 2196.64 608.212 2101.41 750.346 2101.41H1199.11L1016.41 3286.98L518.382 3314.38C513.454 3314.65 508.531 3314.78 503.627 3314.78ZM750.346 2151.11C630.112 2151.11 522.448 2231.67 488.532 2347.02L303.101 2977.3C272.401 3060.81 295.692 3152.79 362.443 3211.62C404.827 3248.98 459.248 3267.85 515.65 3264.75L973.427 3239.57L1141.16 2151.11L750.346 2151.11Z" fill="#371A45"/>
<path d="M486.155 2239.15C488.15 2236.77 489.273 2235.55 490.813 2233.85L495.143 2229.33C498.048 2226.39 501.069 2223.63 504.155 2220.94C510.302 2215.55 516.858 2210.64 523.751 2206.08C537.496 2196.97 552.95 2189.66 569.67 2185.03C586.398 2180.56 604.481 2178.81 622.1 2181.28C639.755 2183.42 656.606 2189.38 671.361 2197.64C686.23 2205.72 699.392 2216.41 709.865 2226.14C720.896 2236.2 731.528 2246.7 741.437 2257.97C751.32 2269.23 760.684 2281 769.031 2293.58C773.318 2299.76 777.096 2306.38 780.841 2312.97C784.498 2319.88 787.658 2326.21 790.739 2334.5C793.169 2341.04 789.836 2348.32 783.289 2350.75C778.061 2352.7 772.367 2350.96 769.047 2346.85L768.025 2345.57C766.47 2343.64 764.1 2340.75 762.016 2338.33C759.888 2335.78 757.606 2333.29 755.368 2330.79C750.824 2325.79 746.118 2320.94 741.296 2316.15C731.636 2306.62 721.577 2297.46 711.174 2288.7C700.905 2279.8 689.985 2271.59 679.18 2263.33C667.651 2254.98 658.246 2247.96 647.708 2242.96C626.821 2232.69 605.201 2230.55 583.612 2236.41C572.836 2239.36 562.102 2244.09 551.832 2250.33C546.689 2253.42 541.698 2256.91 536.837 2260.58C534.405 2262.41 532.079 2264.37 529.774 2266.29L526.422 2269.2L523.736 2271.68L521.955 2273.32C511.882 2282.6 496.196 2281.95 486.917 2271.88C478.37 2262.6 478.248 2248.56 486.155 2239.15Z" fill="#371A45"/>
<path d="M362.71 3211.86L366.49 3214.75L371.039 3217.94C374.12 3220.07 377.306 3222.1 380.542 3224.01C387.022 3227.81 393.726 3231.11 400.474 3233.72C413.92 3239.13 427.546 3241.79 440.104 3240.74C452.638 3239.65 464.359 3235.31 475.313 3227.4C486.206 3219.45 496.083 3208.28 504.54 3195.38C508.849 3188.82 512.683 3182.43 516.74 3174.81C520.841 3167.4 524.854 3159.93 528.634 3152.33C536.371 3137.21 543.361 3121.69 550.125 3106.04C556.93 3090.41 563.225 3074.52 568.878 3058.41C574.72 3042.51 580.021 3025.77 584.392 3010.15L584.587 3009.45C586.982 3000.9 595.861 2995.9 604.417 2998.3C612.166 3000.46 616.99 3007.95 616.055 3015.7C614.9 3025.36 613.424 3034 611.646 3042.98C609.934 3051.88 607.98 3060.69 605.886 3069.48C601.484 3087 596.39 3104.32 590.715 3121.49C585.09 3138.68 578.36 3155.49 571.248 3172.16C567.726 3180.52 563.948 3188.76 560.059 3196.97C556.357 3205.1 551.667 3214.07 546.487 3222.28C536.076 3238.89 523.051 3255.05 505.859 3268.27C488.796 3281.43 466.742 3290.88 444.181 3292.33C421.65 3294.06 399.996 3289.28 381.042 3281.42C371.539 3277.41 362.591 3272.65 354.09 3267.33C349.851 3264.65 345.698 3261.86 341.66 3258.86C339.649 3257.34 337.657 3255.79 335.671 3254.17C333.572 3252.44 331.954 3251.09 329.31 3248.68C319.197 3239.43 318.498 3223.73 327.746 3213.62C336.47 3204.08 350.93 3202.92 361.027 3210.58L362.71 3211.86Z" fill="#371A45"/>
<path d="M2394.24 3439.2C2177.9 3466.9 1967.08 3294.92 1967.08 3294.92L1915.82 3312L1900.55 3317.09C1900.55 3317.09 1904.95 3566.74 1720.71 3658.47C1699.48 3669 1675.66 3677.46 1649.09 3683.24C1480.04 3719.74 1099.13 3525.75 858.286 3388.72C721.769 3311.05 647.298 3157.54 669.475 3002.04C675.171 2962.34 681.556 2924.72 688.719 2888.99C693.724 2863.27 699.16 2838.59 704.856 2814.95C737.907 2677.14 780.45 2572.38 823.252 2493.5C897.724 2356.21 1043.3 2272.76 1199.49 2276.22L1591.36 2284.93L2025.59 2294.68L2103.34 2296.41C2223.46 2366.65 2294.31 2468.22 2335.99 2567.98C2406.32 2736.08 2393.72 2899.17 2393.72 2899.17C2489.94 2894.6 2543.7 2981.15 2558.45 3086.34C2579.25 3235.81 2521.26 3422.89 2394.24 3439.2Z" fill="white"/>
<path d="M1603.4 3712.48C1418.16 3712.48 1095.42 3552.22 845.986 3410.32C699.943 3327.24 621.01 3165.6 644.905 2998.53C674.328 2792.77 726.985 2618.88 801.41 2481.69C878.902 2338.87 1027.08 2251.25 1189.88 2251.25C1193.26 2251.25 1196.63 2251.28 1200.01 2251.36L2110.33 2271.69L2115.89 2274.93C2253.57 2355.49 2349.57 2489.47 2393.51 2662.37C2417.17 2755.49 2419.91 2835.77 2419.45 2875.2C2509.9 2885.76 2573.94 2972.99 2585.59 3105.74C2599.84 3268.07 2533.36 3446.39 2397.44 3463.81C2380.07 3466.04 2362.76 3467.07 2345.62 3467.07C2166.91 3467.08 2005.51 3355.22 1962.37 3322.71L1924.97 3335.18C1923.56 3364.3 1917.77 3423.97 1894.56 3487.87C1851.28 3607 1768.22 3682.96 1654.37 3707.55C1638.89 3710.89 1621.81 3712.48 1603.4 3712.48ZM845.098 2505.4C773.499 2637.38 722.699 2805.67 694.107 3005.57C673.126 3152.29 742.389 3294.2 870.561 3367.11C1247.56 3581.59 1522.18 3685.23 1643.88 3658.96C1741.1 3637.98 1809.56 3575.15 1847.35 3472.24C1876.51 3392.83 1875.71 3318.28 1875.7 3317.54L1875.42 3299.33L1972.23 3267.03L1982.83 3275.68C1984.85 3277.31 2188.1 3440.53 2391.12 3414.51C2492.67 3401.49 2548.05 3246.59 2536.08 3110.09C2527.93 3017.25 2486.43 2919.64 2394.91 2923.97L2366.78 2925.3L2368.95 2897.23C2369.25 2893.28 2395.25 2500.93 2096.27 2321.09L1198.91 2301.05C1050.76 2297.66 915.274 2376.05 845.098 2505.4Z" fill="#371A45"/>
<path d="M2383.37 3461.6C2380.55 3461.6 2377.72 3461.51 2374.89 3461.33C2321.58 3457.91 2274.4 3422.64 2242.06 3362.01C2211.78 3305.24 2197.8 3231.96 2202.7 3155.66C2213.27 2991.14 2305.34 2867.63 2412.58 2874.52C2519.69 2881.4 2595.33 3015.67 2584.76 3180.2C2579.86 3256.49 2556.62 3327.39 2519.32 3379.82C2481.61 3432.83 2433.61 3461.6 2383.37 3461.6ZM2404.32 2923.96C2329.58 2923.96 2260.61 3029.6 2252.31 3158.85C2247.99 3226.04 2259.92 3289.89 2285.92 3338.62C2309.85 3383.48 2342.58 3409.45 2378.07 3411.73C2413.4 3413.89 2449.34 3392.45 2478.82 3351.01C2510.83 3306 2530.84 3244.21 2535.16 3177.01C2543.64 3044.86 2486.05 2929.05 2409.39 2924.12C2407.7 2924.02 2406 2923.96 2404.32 2923.96Z" fill="#371A45"/>
<path d="M2285.79 3151.55C2252.37 3151.55 2230.48 3148.91 2227.91 3148.58C2211.86 3146.53 2200.51 3131.87 2202.56 3115.83C2204.6 3099.79 2219.28 3088.46 2235.3 3090.48C2237.93 3090.8 2406.42 3110.46 2533.41 3029.06C2547.01 3020.32 2565.13 3024.28 2573.86 3037.9C2582.6 3051.52 2578.64 3069.63 2565.02 3078.36C2467.68 3140.77 2353.25 3151.55 2285.79 3151.55Z" fill="#010151"/>
<path d="M2274.21 3320.61C2254.8 3320.61 2242.24 3319.87 2240.14 3319.73C2226.45 3318.86 2216.06 3307.05 2216.93 3293.36C2217.79 3279.67 2229.67 3269.29 2243.29 3270.13C2245.4 3270.26 2454.68 3282.37 2540.19 3198.28C2549.98 3188.65 2565.7 3188.79 2575.33 3198.57C2584.96 3208.36 2584.82 3224.09 2575.04 3233.72C2496.06 3311.38 2342.64 3320.61 2274.21 3320.61Z" fill="#371A45"/>
<path d="M3871.33 2170.16C3865.98 2177.49 3859.68 2184.49 3852.69 2191.04L3490.78 2531.39L3578.19 3023.09C3600.89 3150.72 3471.53 3250.13 3357.88 3192.49L2887.67 2892.27C2884.99 2892.27 2417.54 3192.49 2417.54 3192.49C2303.89 3250.13 2174.53 3150.72 2197.23 3023.09L2284.65 2531.39L1985.29 2249.9L1922.73 2191.04C1826.68 2100.78 1876.91 1936.91 2006.17 1918.78L2514.96 1847.51L2751.07 1386.18C2771.78 1345.53 2805.52 1319.56 2842.97 1308.25C2909.41 1287.89 2987.42 1313.95 3024.36 1386.18L3252.78 1832.4L3260.46 1847.51L3332.43 1857.6H3332.69L3769.25 1918.78C3769.77 1918.87 3770.37 1918.96 3770.89 1919.04C3889.54 1936.91 3940.63 2078 3871.33 2170.16Z" fill="#FFD770"/>
<path d="M3871.33 2188.09C3865.98 2195.43 3859.68 2202.42 3852.69 2208.97L3490.78 2549.32L3578.19 3041.02C3600.89 3168.65 3471.53 3268.06 3357.88 3210.42L2887.67 2910.2C2884.99 2910.2 2417.54 3210.42 2417.54 3210.42C2303.89 3268.06 2174.53 3168.65 2197.23 3041.02L2284.65 2549.32L1985.29 2267.83L1922.73 2208.97C1826.68 2118.71 1876.91 1954.84 2006.17 1936.72L2514.96 1865.44L2751.07 1404.11C2771.78 1363.47 2805.52 1337.49 2842.97 1326.19C2909.41 1305.82 2987.42 1331.88 3024.36 1404.11L3252.78 1850.34L3260.46 1865.44L3332.43 1875.54H3332.69L3769.25 1936.72C3769.77 1936.8 3770.37 1936.89 3770.89 1936.98C3889.54 1954.84 3940.63 2095.93 3871.33 2188.09Z" fill="#FFD13E"/>
<g opacity="0.15">
<path d="M3892.52 2037.32C3876.33 1993.16 3841.26 1956.11 3791.97 1941.63C3802.63 1987.42 3799.95 2032.97 3746.42 2079.63C3633.11 2178.4 3463.38 2312.48 3393.23 2370.41C3361.59 2396.54 3366.86 2439.98 3376.59 2479.84C3412.03 2625.11 3495.42 2941.92 3443.15 2983.83C3392.75 3024.23 3079.42 2815.81 2949.26 2700.17C2910.53 2665.76 2852.16 2666.31 2814.03 2701.37C2688.19 2817.06 2337.35 3052.3 2276.33 3018.07C2195.5 2972.72 2359.94 2370.41 2359.94 2370.41C2359.94 2370.41 2148.73 2272.36 1978.3 2180.02L2277.65 2461.51L2265.28 2531.11L2284.64 2549.32L2197.77 3037.99C2228.47 3119.31 2324.02 3166.5 2410.55 3122.61C2410.55 3122.61 2878 2822.39 2880.67 2822.39L3350.89 3122.61C3448.21 3171.98 3556.96 3106.14 3571.97 3006.07L3490.77 2549.32L3498.16 2542.37L3483.78 2461.51L3845.7 2121.17C3871.33 2097.07 3886.45 2067.73 3892.52 2037.32Z" fill="#371A45"/>
</g>
<g opacity="0.6">
<path d="M3332.43 1857.6C3220.24 1852.79 3119.56 1787.43 3069.43 1686.95C3025.35 1598.62 2974.04 1494.32 2944.02 1428.29C2917.78 1370.65 2878.78 1332.76 2842.97 1308.25C2909.41 1287.89 2987.42 1313.95 3024.36 1386.18L3260.46 1847.51L3332.43 1857.6Z" fill="white"/>
</g>
<path d="M1900.55 3341.97C1900.53 3341.97 1900.51 3341.97 1900.49 3341.97C1886.78 3341.94 1875.68 3330.8 1875.7 3317.09C1875.7 3316.38 1875.41 3245.49 1849.05 3176.38C1815.84 3089.32 1757.58 3045.18 1675.88 3045.18C1443.83 3045.18 1338.26 3238.11 1337.22 3240.06C1330.76 3252.17 1315.7 3256.74 1303.59 3250.29C1291.48 3243.83 1286.9 3228.78 1293.36 3216.66C1298.18 3207.63 1414.33 2995.47 1675.88 2995.47C1738.78 2995.47 1791.61 3016.45 1832.89 3057.83C1924.74 3149.89 1925.42 3310.39 1925.4 3317.18C1925.37 3330.88 1914.25 3341.97 1900.55 3341.97Z" fill="#371A45"/>
<path d="M1649.69 3709.97C1644.38 3709.97 1639.04 3709.73 1633.7 3709.23C1583.01 3704.52 1536.87 3678.26 1500.25 3633.3C1441.25 3560.86 1413.84 3447.51 1426.94 3330.1C1448.79 3134.18 1576.88 2985.07 1712.16 2997.63C1762.85 3002.33 1808.99 3028.59 1845.61 3073.55C1904.61 3146 1932.02 3259.35 1918.92 3376.76C1897.92 3564.94 1779.04 3709.97 1649.69 3709.97ZM1695.64 3046.56C1591.44 3046.56 1494.52 3172.63 1476.34 3335.61C1464.69 3440.04 1488.03 3539.59 1538.8 3601.92C1566.8 3636.29 1601.2 3656.29 1638.29 3659.74C1746.88 3669.93 1850.64 3540.42 1869.52 3371.25C1881.17 3266.82 1857.83 3167.26 1807.06 3104.94C1779.06 3070.56 1744.65 3050.57 1707.56 3047.12C1703.59 3046.75 1699.6 3046.56 1695.64 3046.56Z" fill="#371A45"/>
<path d="M1397.04 3005.43C857.777 3005.43 488.034 2772.9 471.808 2762.51C435.686 2739.38 425.143 2691.36 448.268 2655.23C471.375 2619.12 519.376 2608.56 555.482 2631.64C561.508 2635.44 941.824 2871.82 1472.74 2848.43C1515.44 2846.42 1551.87 2879.74 1553.75 2922.6C1555.65 2965.45 1522.44 3001.72 1479.59 3003.61C1451.69 3004.84 1424.11 3005.43 1397.04 3005.43Z" fill="white"/>
<g opacity="0.2">
<path d="M1494.38 2934.42C1466.49 2935.65 1438.9 2936.24 1411.84 2936.24C872.571 2936.24 502.828 2703.71 486.602 2693.32C468.566 2681.77 456.912 2664.02 452.637 2644.64C451.102 2646.59 449.635 2648.63 448.268 2650.76C425.143 2686.89 435.686 2734.92 471.808 2758.04C488.034 2768.43 857.777 3000.96 1397.04 3000.96C1424.11 3000.96 1451.69 3000.37 1479.59 2999.14C1522.44 2997.25 1555.65 2960.98 1553.75 2918.13C1553.55 2913.57 1552.88 2909.15 1551.93 2904.84C1538.43 2921.97 1517.88 2933.39 1494.38 2934.42Z" fill="#010151"/>
</g>
<path d="M1397.04 3030.28C850.367 3030.28 474.155 2793.52 458.411 2783.44C410.802 2752.96 396.866 2689.43 427.339 2641.83C457.787 2594.24 521.272 2580.27 568.868 2610.71C572.462 2612.97 950.777 2846.46 1471.65 2823.6C1498.82 2822.33 1524.97 2831.79 1545.22 2850.25C1565.52 2868.79 1577.37 2894.09 1578.58 2921.5C1579.79 2948.86 1570.27 2975.05 1551.78 2995.25C1533.29 3015.45 1508.03 3027.23 1480.67 3028.43C1452.93 3029.66 1424.8 3030.28 1397.04 3030.28ZM513.724 2644.31C496.288 2644.31 479.254 2652.91 469.207 2668.63C453.5 2693.15 460.684 2725.88 485.209 2741.58C500.448 2751.33 864.744 2980.58 1397.04 2980.58C1424.06 2980.58 1451.47 2979.97 1478.49 2978.78C1492.59 2978.16 1505.59 2972.09 1515.12 2961.68C1524.65 2951.28 1529.55 2937.79 1528.93 2923.69C1528.3 2909.57 1522.19 2896.53 1511.72 2886.97C1501.3 2877.46 1487.84 2872.51 1473.91 2873.26C1448.21 2874.38 1422.77 2874.92 1397.81 2874.93C901.854 2874.96 557.381 2662.19 542.253 2652.69C533.397 2647.02 523.494 2644.31 513.724 2644.31Z" fill="#371A45"/>
<path d="M1489.53 3288.2C1474.32 3288.2 1464.97 3287.72 1463.19 3287.62C1449.48 3286.86 1439 3275.13 1439.76 3261.42C1440.53 3247.72 1452.32 3237.23 1465.94 3237.99C1468.19 3238.11 1688.59 3248.86 1860.07 3147.34C1871.88 3140.32 1887.12 3144.25 1894.11 3156.07C1901.1 3167.88 1897.2 3183.12 1885.38 3190.11C1735.01 3279.13 1556.09 3288.2 1489.53 3288.2Z" fill="#371A45"/>
<path d="M1482.61 3532.81C1471.9 3532.81 1465.2 3532.57 1463.55 3532.5C1449.84 3531.93 1439.19 3520.36 1439.75 3506.65C1440.3 3492.93 1451.86 3482.31 1465.59 3482.83C1468.39 3482.97 1746.31 3492.52 1876.28 3356.81C1885.76 3346.91 1901.5 3346.56 1911.42 3356.06C1921.32 3365.55 1921.67 3381.28 1912.17 3391.19C1786.21 3522.72 1551.51 3532.81 1482.61 3532.81Z" fill="#371A45"/>
<path d="M1967.13 3319.78C1959.89 3319.78 1952.72 3316.64 1947.81 3310.57C1939.18 3299.92 1940.81 3284.31 1951.43 3275.66C1958.48 3269.88 2122.41 3131.77 2048.09 2869.46C2044.34 2856.26 2052.01 2842.52 2065.22 2838.78C2078.41 2835.04 2092.16 2842.71 2095.9 2855.91C2179.46 3150.75 1990.83 3307.7 1982.76 3314.24C1978.16 3317.97 1972.63 3319.78 1967.13 3319.78Z" fill="#371A45"/>
<path d="M3426.98 3234.3C3399.85 3234.3 3372.5 3227.81 3346.63 3214.69L3344.5 3213.47L2887.36 2921.53C2830.85 2956.9 2593.21 3109.22 2430.98 3213.44L2428.79 3214.69C2367.81 3245.6 2298.58 3239.69 2243.58 3198.85C2187.54 3157.24 2160.41 3088.23 2172.76 3018.75L2257.83 2540.29L1905.69 2209.16C1853.72 2160.29 1834.98 2087.32 1856.77 2018.74C1878.13 1951.55 1934.05 1903.83 2002.74 1894.21L2498.75 1824.67L2728.9 1374.82C2760.34 1313.37 2819.7 1276.68 2887.7 1276.68C2955.71 1276.68 3015.07 1313.37 3046.52 1374.82L3276.66 1824.67L3772.68 1894.21C3841.36 1903.83 3897.29 1951.55 3918.64 2018.73C3940.44 2087.32 3921.69 2160.28 3869.73 2209.16L3517.58 2540.29L3602.65 3018.75C3615.01 3088.23 3587.87 3157.24 3531.84 3198.85C3500.18 3222.36 3463.78 3234.29 3426.98 3234.3ZM3370.17 3170.89C3413.7 3192.5 3462.97 3188.06 3502.2 3158.94C3543.01 3128.64 3562.75 3078.25 3553.71 3027.44L3463.93 2522.5L3835.67 2172.95C3873.58 2137.3 3887.22 2083.97 3871.27 2033.78C3855.53 1984.26 3816.09 1950.48 3765.78 1943.43L3244.17 1870.31L3002.26 1397.45C2979.49 1352.95 2936.67 1326.39 2887.7 1326.39C2838.74 1326.39 2795.91 1352.95 2773.15 1397.45L2531.23 1870.31L2009.63 1943.43C1959.32 1950.48 1919.88 1984.26 1904.14 2033.78C1888.19 2083.97 1901.83 2137.3 1939.74 2172.95L2311.47 2522.5L2221.7 3027.44C2212.66 3078.25 2232.4 3128.64 2273.21 3158.94C2312.42 3188.06 2361.69 3192.5 2405.22 3170.9C2417.4 3163.08 2527.93 3092.08 2638.64 3021.17C2697.33 2983.57 2756.08 2946.01 2800.24 2917.89C2822.36 2903.8 2840.83 2892.08 2853.82 2883.91C2881.21 2866.68 2886.15 2863.61 2898.96 2870.11L2901.09 2871.32L3370.17 3170.89Z" fill="#371A45"/>
<path d="M2495.41 1986.58C2404.56 2127.57 2277.51 2246.49 2121.57 2328.48C2089.76 2345.18 2056.87 2360.36 2022.83 2373.86C2006.28 2380.47 1989.34 2386.63 1972.17 2392.53C1920.32 2410.01 1868.03 2423.06 1815.62 2431.9C1770.47 2439.63 1725.21 2444.14 1680.25 2445.73C1625.96 2447.68 1572 2445.19 1518.85 2438.62C1499.47 2436.17 1480.21 2433.21 1461.08 2429.76C1111.01 2365.85 803.898 2122.44 678.545 1766.47C493.777 1242.11 773.474 672.292 1303.1 493.662C1405.13 459.33 1509.08 441.838 1611.61 440.081C1623.59 439.763 1635.63 439.789 1647.65 440.063C1679.82 440.581 1711.78 442.604 1743.46 446.118C1816.74 454.27 1888.58 470.314 1957.67 493.556C2026.76 516.717 2093.27 547.174 2155.79 584.228C2175.67 595.997 2195.17 608.411 2214.27 621.553C2242.88 641.26 2270.54 662.324 2297.14 684.993C2429.85 797.464 2535.21 945.028 2596.72 1119.72C2703.03 1421.34 2655.6 1737.96 2495.41 1986.58Z" fill="white"/>
<path d="M1644.49 2448.87C1602.61 2448.87 1560.4 2446.27 1518.54 2441.1C1499.28 2438.66 1479.8 2435.67 1460.64 2432.22C1097.87 2366 797.289 2111.21 676.187 1767.29C586.962 1514.08 602.315 1242.25 719.427 1001.88C837.476 759.577 1044.48 578.25 1302.3 491.285C1402.88 457.443 1506.93 439.37 1611.57 437.576C1622.93 437.281 1635.09 437.268 1647.71 437.563C1679.79 438.079 1712.1 440.119 1743.74 443.632C1816.46 451.715 1888.7 467.717 1958.47 491.178C2027.58 514.35 2094.4 544.93 2157.07 582.071C2177.23 594.006 2196.95 606.595 2215.69 619.494C2244.94 639.638 2272.89 661.035 2298.76 683.092C2435.71 799.14 2539.57 949.841 2599.08 1118.89C2702.08 1411.14 2665.06 1727.89 2497.52 1987.93C2404.63 2132.09 2275.03 2250.61 2122.74 2330.69C2090.49 2347.62 2057.19 2362.93 2023.75 2376.18C2008.45 2382.3 1991.84 2388.42 1972.98 2394.89C1921.73 2412.17 1868.93 2425.45 1816.04 2434.37C1771.74 2441.95 1726.09 2446.61 1680.35 2448.23C1668.44 2448.66 1656.48 2448.87 1644.49 2448.87ZM1629.43 442.349C1623.34 442.349 1617.41 442.425 1611.67 442.576C1507.53 444.37 1403.98 462.355 1303.9 496.033C1047.36 582.557 841.377 762.983 723.92 1004.07C607.406 1243.23 592.129 1513.69 680.907 1765.63C801.417 2107.86 1100.53 2361.39 1461.53 2427.3C1480.6 2430.73 1499.99 2433.71 1519.16 2436.14C1572.73 2442.75 1626.88 2445.12 1680.17 2443.23C1725.68 2441.62 1771.11 2436.98 1815.2 2429.44C1867.84 2420.56 1920.39 2407.34 1971.37 2390.15C1990.14 2383.72 2006.67 2377.62 2021.9 2371.54C2055.18 2358.34 2088.32 2343.11 2120.41 2326.26C2271.95 2246.59 2400.89 2128.66 2493.31 1985.23C2660.01 1726.49 2696.84 1411.33 2594.36 1120.55C2535.14 952.342 2431.8 802.384 2295.52 686.903C2269.77 664.953 2241.96 643.663 2212.86 623.613C2194.21 610.784 2174.58 598.257 2154.52 586.378C2092.15 549.414 2025.66 518.985 1956.88 495.926C1887.44 472.572 1815.55 456.651 1743.19 448.607C1711.71 445.113 1679.55 443.08 1647.62 442.563C1641.42 442.425 1635.35 442.349 1629.43 442.349Z" fill="#371A45"/>
<path d="M678.552 1766.44C803.87 2122.45 1111.03 2365.88 1461.11 2429.74C1480.24 2433.21 1499.48 2436.17 1518.83 2438.61C1571.99 2445.19 1625.95 2447.65 1680.23 2445.74C1725.2 2444.12 1770.47 2439.63 1815.59 2431.92C1868.03 2423.09 1920.3 2410.03 1972.19 2392.55C1989.33 2386.6 2006.26 2380.48 2022.84 2373.9C2056.89 2360.38 2089.75 2345.14 2121.57 2328.46C2277.51 2246.47 2404.58 2127.6 2495.43 1986.56C2545.35 1909.11 2584.34 1825 2611.12 1736.83C2521.31 1869.41 2398.82 1981.19 2250.05 2059.42C2218.26 2076.18 2185.37 2091.34 2151.32 2104.85C2134.8 2111.46 2117.87 2117.59 2100.67 2123.51C2048.78 2140.99 1996.51 2154.05 1944.13 2162.9C1898.95 2170.59 1853.74 2175.1 1808.78 2176.73C1754.49 2178.63 1700.48 2176.15 1647.37 2169.59C1627.96 2167.13 1608.72 2164.17 1589.59 2160.69C1239.51 2096.84 932.41 1853.44 807.034 1497.4C733.838 1289.72 733.591 1074.93 792.792 880.166C622.258 1131.6 569.471 1456.95 678.552 1766.44Z" fill="#E8E8E8"/>
<path d="M1644.49 2465.64C1601.93 2465.64 1559.02 2462.99 1516.49 2457.74C1496.88 2455.26 1477.11 2452.22 1457.67 2448.72C1088.96 2381.41 783.471 2122.44 660.373 1772.86C569.65 1515.39 585.268 1238.97 704.356 994.536C824.383 748.17 1034.84 563.809 1296.94 475.403C1399.16 441.007 1504.92 422.645 1611.28 420.813C1622.75 420.517 1635.21 420.505 1648.1 420.8C1680.58 421.322 1713.43 423.4 1745.59 426.969C1819.5 435.19 1892.92 451.443 1963.82 475.289C2034.03 498.833 2101.93 529.911 2165.61 567.65C2186.09 579.773 2206.14 592.571 2225.19 605.684C2254.93 626.155 2283.34 647.911 2309.64 670.333C2448.82 788.275 2554.39 941.47 2614.9 1113.32C2719.63 1410.49 2681.98 1732.58 2511.61 1997.01C2417.16 2143.59 2285.39 2264.1 2130.54 2345.53C2097.76 2362.74 2063.91 2378.29 2029.93 2391.77C2014.41 2397.97 1997.55 2404.19 1978.42 2410.75C1926.25 2428.33 1872.59 2441.83 1818.82 2450.9C1773.83 2458.6 1727.43 2463.34 1680.94 2464.98C1668.83 2465.42 1656.68 2465.64 1644.49 2465.64ZM1629.41 459.113C1623.46 459.113 1617.69 459.189 1612.11 459.333C1509.54 461.102 1407.7 478.791 1309.24 511.921C1056.99 596.997 854.471 774.39 738.991 1011.41C624.453 1246.51 609.441 1512.39 696.714 1760.06C815.236 2096.63 1109.45 2345.98 1464.55 2410.8C1483.29 2414.18 1502.39 2417.12 1521.27 2419.51C1573.89 2426.01 1627.15 2428.34 1679.57 2426.48C1724.35 2424.9 1769.02 2420.33 1812.37 2412.91C1864.18 2404.18 1915.86 2391.18 1966.01 2374.27C1984.44 2367.95 2000.71 2361.95 2015.68 2355.97C2048.45 2342.98 2081.05 2327.99 2112.61 2311.42C2261.59 2233.09 2388.36 2117.15 2479.21 1976.14C2643.09 1721.8 2679.3 1411.98 2578.55 1126.12C2520.31 960.707 2418.69 813.254 2284.68 699.693C2259.34 678.082 2231.99 657.145 2203.34 637.423C2185.02 624.808 2165.71 612.482 2145.98 600.806C2084.62 564.44 2019.2 534.5 1951.55 511.821C1883.23 488.838 1812.51 473.182 1741.34 465.27C1710.38 461.833 1678.76 459.831 1647.35 459.328C1641.22 459.189 1635.23 459.113 1629.41 459.113Z" fill="#371A45"/>
<path d="M1644.49 2471.22C1601.7 2471.22 1558.56 2468.56 1515.8 2463.28C1496.08 2460.79 1476.21 2457.74 1456.67 2454.21C1085.99 2386.55 778.863 2126.18 655.104 1774.72C563.877 1515.82 579.584 1237.88 699.333 992.088C820.02 744.369 1031.63 558.994 1295.16 470.109C1397.92 435.531 1504.25 417.067 1611.18 415.23C1622.72 414.922 1635.26 414.929 1648.23 415.217C1680.85 415.74 1713.87 417.829 1746.21 421.418C1820.51 429.677 1894.33 446.026 1965.6 469.997C2036.18 493.659 2104.44 524.902 2168.46 562.847C2189.05 575.028 2209.21 587.895 2228.36 601.083C2258.25 621.661 2286.82 643.53 2313.26 666.085C2453.18 784.651 2559.33 938.681 2620.17 1111.47C2725.47 1410.27 2687.62 1734.15 2516.3 2000.04C2421.34 2147.43 2288.84 2268.61 2133.14 2350.47C2100.18 2367.78 2066.15 2383.41 2031.99 2396.96C2016.4 2403.19 1999.45 2409.44 1980.23 2416.03C1927.76 2433.72 1873.81 2447.3 1819.75 2456.41C1774.53 2464.15 1727.87 2468.92 1681.14 2470.57C1668.96 2471.01 1656.74 2471.22 1644.49 2471.22ZM1629.39 464.702C1623.5 464.702 1617.78 464.778 1612.27 464.923C1510.21 466.679 1408.93 484.267 1311.03 517.214C1060.21 601.812 858.834 778.192 744.014 1013.86C630.139 1247.6 615.213 1511.94 701.989 1758.2C819.843 2092.89 1112.42 2340.85 1465.55 2405.31C1484.18 2408.67 1503.19 2411.58 1521.97 2413.96C1574.29 2420.42 1627.27 2422.74 1679.37 2420.9C1723.9 2419.32 1768.33 2414.78 1811.43 2407.4C1862.97 2398.72 1914.36 2385.78 1964.23 2368.97C1982.54 2362.69 1998.73 2356.73 2013.6 2350.78C2046.21 2337.86 2078.62 2322.96 2110.02 2306.47C2258.14 2228.59 2384.19 2113.31 2474.52 1973.12C2637.45 1720.24 2673.45 1412.19 2573.28 1127.98C2515.37 963.495 2414.33 816.873 2281.08 703.954C2255.86 682.456 2228.66 661.639 2200.18 642.024C2181.95 629.479 2162.76 617.229 2143.13 605.608C2082.11 569.443 2017.06 539.674 1949.77 517.113C1881.83 494.261 1811.5 478.688 1740.72 470.82C1709.94 467.402 1678.5 465.413 1647.26 464.915C1641.14 464.772 1635.19 464.702 1629.39 464.702Z" fill="#371A45"/>
<path d="M2329.1 2183.1C1707.09 2548.26 919.632 2196.13 925.872 1486.24C930.117 1003.27 1412.35 637.93 1881.92 675.039C2223.67 702.048 2546.45 875.956 2652.86 1410.86C2652.86 1410.86 2662.99 1654.56 2585.47 1810.54C2507.96 1966.51 2405.82 2105.09 2405.82 2105.09L2329.1 2183.1Z" fill="#371A45"/>
<path d="M925.9 1486.24C919.643 2196.12 1707.12 2548.24 2329.11 2183.12L2344.64 2167.29C1683.42 2233.66 1059.13 1799.12 1051.92 1081.16C974.004 1199.36 927.234 1337.2 925.9 1486.24Z" fill="#220F2D"/>
<path d="M1803.54 2456.82C1520.21 2456.82 1251.24 2350.23 1063.89 2163.31C885.102 1984.92 791.824 1750.15 794.127 1484.38C796.261 1240.25 904.749 1007.51 1099.6 829.017C1316.02 630.77 1613.57 525.745 1895.54 547.998C2052.22 560.386 2191.34 599.132 2309.02 663.164L2311.26 664.385L2313.2 666.034C2453.18 784.65 2559.33 938.681 2620.17 1111.47C2725.47 1410.27 2687.62 1734.14 2516.3 2000.04C2421.34 2147.43 2288.84 2268.61 2133.14 2350.47C2100.18 2367.78 2066.15 2383.41 2031.99 2396.96C2016.4 2403.19 1999.45 2409.44 1980.23 2416.03C1927.76 2433.72 1873.81 2447.3 1819.75 2456.41L1815.89 2456.76C1811.78 2456.8 1807.65 2456.82 1803.54 2456.82ZM1820.14 594.75C1573.62 594.75 1321.37 693.279 1133.18 865.667C948.6 1034.74 845.848 1254.63 843.833 1484.81C841.642 1736.93 929.878 1959.39 1099 2128.13C1279.24 2307.96 1539.62 2409.66 1813.4 2407.07C1864.24 2398.4 1914.97 2385.58 1964.23 2368.97C1982.54 2362.69 1998.73 2356.73 2013.6 2350.78C2046.21 2337.86 2078.63 2322.96 2110.02 2306.47C2258.14 2228.59 2384.19 2113.32 2474.52 1973.12C2637.45 1720.24 2673.45 1412.2 2573.28 1127.98C2515.66 964.303 2415.31 818.31 2283.02 705.612C2171.98 645.658 2040.3 609.305 1891.62 597.553C1867.9 595.676 1844.04 594.75 1820.14 594.75Z" fill="#371A45"/>
<path d="M479.522 1408.72C453.687 1604.72 549.327 1784.94 693.191 1811.23C837.055 1837.52 974.618 1699.92 1000.45 1503.92C1000.64 1502.7 1000.77 1501.39 1000.89 1500.15C1025.06 1305.61 929.637 1127.5 786.781 1101.41C675.646 1081.1 568.273 1158.6 513.249 1285.24C497.07 1322.54 485.4 1364.15 479.522 1408.72Z" fill="white"/>
<path d="M479.522 1408.72C453.687 1604.72 549.327 1784.94 693.191 1811.23C837.055 1837.52 974.618 1699.92 1000.45 1503.92C1000.64 1502.7 1000.77 1501.39 1000.89 1500.15C982.427 1517.37 955.2 1532.68 922.727 1519.91C865.86 1497.52 777.645 1352.33 777.645 1352.33C777.645 1352.33 663.176 1322.49 513.249 1285.24C497.07 1322.54 485.4 1364.15 479.522 1408.72Z" fill="#E8E8E8"/>
<path d="M728.95 1839.33C715.573 1839.33 702.146 1838.11 688.726 1835.66C532.271 1807.07 427.359 1614.09 454.855 1405.47C470.731 1285.03 526.631 1181.87 608.22 1122.44C664.887 1081.16 728.19 1065.45 791.22 1076.96C947.675 1105.54 1052.59 1298.52 1025.09 1507.15C1009.22 1627.59 953.315 1730.75 871.72 1790.18C827.119 1822.67 778.409 1839.33 728.95 1839.33ZM751.335 1123.04C712.243 1123.04 673.397 1136.46 637.483 1162.62C567.88 1213.32 518.03 1306.53 504.13 1411.97C480.039 1594.73 566.859 1762.86 697.662 1786.76C746.964 1795.77 797.06 1783.07 842.453 1750.01C912.063 1699.31 961.913 1606.09 975.812 1500.65C999.903 1317.88 913.089 1149.75 782.286 1125.86C771.988 1123.97 761.652 1123.04 751.335 1123.04Z" fill="#371A45"/>
<path d="M866.775 1482.1C872.292 1325.02 780.506 1194.3 661.765 1190.13C543.025 1185.96 442.295 1309.92 436.778 1467C431.261 1624.08 523.047 1754.79 641.787 1758.96C760.528 1763.13 861.258 1639.18 866.775 1482.1Z" fill="white"/>
<path d="M647.052 1761.77C617.907 1761.77 589.107 1753.92 561.83 1738.34C500.883 1703.5 456.623 1634.74 440.394 1549.68C411.28 1397.11 482.187 1239.13 598.449 1197.52C646.788 1180.22 696.286 1184.77 741.578 1210.66C802.525 1245.5 846.785 1314.26 863.007 1399.3C892.121 1551.88 821.215 1709.87 704.953 1751.47C685.722 1758.35 666.309 1761.77 647.052 1761.77ZM445.493 1548.71C461.438 1632.27 504.785 1699.74 564.411 1733.82C608.35 1758.94 656.348 1763.35 703.202 1746.57C817.154 1705.8 886.556 1550.45 857.907 1400.27C841.962 1316.73 798.627 1249.26 738.996 1215.17C695.05 1190.05 647.058 1185.64 600.198 1202.42C486.248 1243.19 416.846 1398.55 445.493 1548.71Z" fill="#371A45"/>
<path d="M837.424 1621.27C857.46 1571.24 863.63 1515.51 857.788 1461.59C802.347 1571.8 689.489 1604.52 596.626 1533.26C536.6 1487.24 498.777 1408.33 489.784 1324.89C486.241 1331.82 482.987 1339.17 479.933 1346.75C428.974 1474.17 467.685 1638.92 566.423 1714.72C665.161 1790.52 786.478 1748.61 837.424 1621.27Z" fill="#E8E8E8"/>
<path d="M640.536 1783.83C630.339 1783.83 620.109 1782.86 609.905 1780.92C488.928 1757.84 408.435 1598.78 430.466 1426.37C443.528 1324.13 490.684 1234.54 556.605 1186.73C599.234 1155.79 646.478 1144.16 693.212 1153.07C814.189 1176.16 894.682 1335.21 872.649 1507.63C859.587 1609.86 812.438 1699.44 746.517 1747.26C713.193 1771.44 677.048 1783.83 640.536 1783.83ZM662.909 1199.91C636.747 1199.91 610.441 1209.08 585.79 1226.96C530.765 1266.88 491.132 1343.78 479.771 1432.67C461.005 1579.52 523.565 1713.84 619.223 1732.09C652.133 1738.37 686.076 1729.71 717.337 1707.03C772.362 1667.11 811.995 1590.21 823.35 1501.33C842.116 1354.48 779.555 1220.15 683.897 1201.9C676.934 1200.57 669.928 1199.91 662.909 1199.91Z" fill="#371A45"/>
<g opacity="0.5">
<path d="M1618.09 851.492C1618.09 851.492 2059.45 914.452 2284.78 1185.64C2285.01 1185.93 2285.25 1186.21 2285.49 1186.5C2332.86 1243.61 2363.81 1312.26 2375.62 1384.98C2391.24 1481.14 2387.75 1549.57 2382.32 1609.67C2365.74 1792.46 2323.31 1874.8 2323.31 1874.8C2437.44 1788.29 2506.76 1684.32 2522.1 1532.22C2523.58 1517.22 2524.53 1501.7 2525.01 1485.73C2525.13 1482.05 2525.17 1478.4 2525.15 1474.72C2525.23 1474.69 2525.2 1474.61 2525.11 1474.5C2523.77 1442.07 2520.37 1399.52 2512.48 1351.8C2488.76 1207.87 2417.58 1030.94 2246.77 928.867C1927.39 738.007 1604.57 830.945 1618.09 851.492Z" fill="white"/>
</g>
<g opacity="0.5">
<path d="M1370.65 1330.13C1399.93 1253.32 1369.46 1170.39 1302.59 1144.9C1235.73 1119.41 1157.79 1161.01 1128.51 1237.82C1099.23 1314.63 1129.7 1397.56 1196.56 1423.05C1263.43 1448.54 1341.37 1406.93 1370.65 1330.13Z" fill="white"/>
</g>
<g opacity="0.5">
<path d="M1202.77 1584C1218.49 1552.05 1208.7 1515.06 1180.9 1501.38C1153.11 1487.7 1117.83 1502.52 1102.1 1534.47C1086.38 1566.43 1096.17 1603.42 1123.97 1617.1C1151.77 1630.77 1187.04 1615.96 1202.77 1584Z" fill="white"/>
</g>
<path d="M3026.69 2138.08C3026.63 2138.08 3026.58 2138.08 3026.52 2138.08C3012.86 2137.99 3001.84 2126.98 3001.84 2113.32C3001.84 2076.08 3024.13 2004.43 3108.52 1999.74C3182.56 1995.65 3215.76 2056.03 3222.93 2088.56C3225.89 2101.96 3217.41 2115.22 3204 2118.18C3190.64 2121.12 3177.35 2112.66 3174.39 2099.25C3173.16 2094 3160.62 2046.8 3111.28 2049.37C3055.19 2052.49 3051.67 2103.32 3051.54 2113.47C3051.36 2127.08 3040.27 2138.08 3026.69 2138.08Z" fill="#371A45"/>
<path d="M2865.96 2314.35C2799.34 2314.35 2774.12 2254.86 2770.09 2222.74C2768.37 2209.12 2778.03 2196.69 2791.65 2194.99C2805.17 2193.28 2817.61 2202.88 2819.39 2216.42C2820.09 2221.52 2827.26 2264.64 2866.36 2264.64C2867.02 2264.64 2867.7 2264.63 2868.39 2264.6C2902.25 2263.34 2906.25 2213.43 2906.4 2211.3C2907.4 2197.66 2919.16 2187.35 2932.88 2188.25C2946.53 2189.17 2956.87 2200.9 2956 2214.56C2953.87 2248.02 2933.22 2311.92 2870.24 2314.27C2868.8 2314.33 2867.37 2314.35 2865.96 2314.35Z" fill="#371A45"/>
<path d="M2675.66 2174.36C2661.98 2174.36 2650.88 2163.3 2650.81 2149.64C2650.67 2139.43 2647.11 2088.67 2591.07 2085.56C2540.05 2082.82 2528.43 2133.28 2527.96 2135.43C2525 2148.83 2511.7 2157.3 2498.34 2154.36C2484.94 2151.41 2476.46 2138.14 2479.41 2124.74C2486.58 2092.22 2519.95 2031.83 2593.83 2035.93C2678.22 2040.62 2700.51 2112.27 2700.51 2149.51C2700.51 2163.23 2689.38 2174.36 2675.66 2174.36Z" fill="#371A45"/>
<path d="M3311.46 2322.27C3356.39 2322.27 3392.82 2300.75 3392.82 2274.19C3392.82 2247.64 3356.39 2226.11 3311.46 2226.11C3266.52 2226.11 3230.09 2247.64 3230.09 2274.19C3230.09 2300.75 3266.52 2322.27 3311.46 2322.27Z" fill="#F75050"/>
<path d="M2379.06 2351.57C2423.99 2351.57 2460.42 2330.04 2460.42 2303.49C2460.42 2276.94 2423.99 2255.41 2379.06 2255.41C2334.12 2255.41 2297.69 2276.94 2297.69 2303.49C2297.69 2330.04 2334.12 2351.57 2379.06 2351.57Z" fill="#F75050"/>
<path d="M1813.65 2910.3C1698.53 2911.6 1585.14 2895.98 1485.73 2874.84C1479.69 2873.37 1473.74 2872.08 1467.96 2870.95C1466.83 2870.69 1465.71 2870.44 1464.59 2870.26C1284.41 2829.88 1155.31 2773.44 1155.31 2773.44L1027.42 2642.36L845.947 2456.48C944.496 2327.82 1070.31 2370.36 1070.31 2370.36C1843.25 2662.55 2048.46 2348.18 2142.78 2370.36C2213.97 2387.1 2168.66 2484.96 2168.66 2484.96C2168.66 2484.96 2223.81 2475.98 2274.72 2492.21C2310.27 2503.51 2343.76 2527.16 2354.97 2574.7C2382.24 2690.25 2150.2 2906.59 1813.65 2910.3Z" fill="white"/>
<path d="M1800.33 2935.23C1467.46 2935.23 1158.55 2801.99 1145.39 2796.24C1132.82 2790.75 1127.08 2776.11 1132.57 2763.53C1138.05 2750.95 1152.7 2745.18 1165.28 2750.69C1168.42 2752.06 1478.15 2885.52 1800.66 2885.52C1804.9 2885.52 1809.11 2885.5 1813.37 2885.45C2037.44 2882.99 2215.7 2782.27 2292.98 2683.55C2323.31 2644.8 2337.08 2607.2 2330.76 2580.39C2309.09 2488.43 2174.02 2509.3 2172.67 2509.53L2126.45 2517.05L2146.12 2474.55C2152.71 2460.16 2163.51 2424.54 2154.73 2406.61C2152.68 2402.44 2148.84 2397.3 2137.1 2394.54C2122.9 2391.21 2093.42 2405.63 2059.27 2422.33C1928.88 2486.09 1657.61 2618.77 1062.03 2393.81C1054.62 2391.46 950.281 2361.17 865.709 2471.56C857.362 2482.47 841.751 2484.52 830.867 2476.18C819.971 2467.83 817.905 2452.23 826.253 2441.33C934.388 2300.18 1072.41 2344.83 1078.24 2346.81L1079.07 2347.1C1654.9 2564.75 1903.75 2443.06 2037.44 2377.68C2083.64 2355.09 2117.04 2338.75 2148.48 2346.16C2178.44 2353.21 2192.73 2371.11 2199.44 2384.9C2210.68 2407.98 2208.71 2435.46 2203.85 2457.32C2204.47 2457.32 2205.09 2457.32 2205.72 2457.32C2271.33 2457.32 2358.23 2480.25 2379.15 2568.98C2389.09 2611.17 2372.39 2662.74 2332.12 2714.19C2247.52 2822.27 2054.48 2932.51 1813.91 2935.16C1809.39 2935.21 1804.84 2935.23 1800.33 2935.23Z" fill="#371A45"/>
<path d="M1628.71 2924C1620.22 2924 1611.96 2919.66 1607.32 2911.83C1493.56 2720.3 1601.68 2493.72 1606.35 2484.16C1612.37 2471.83 1627.23 2466.71 1639.58 2472.72C1651.91 2478.73 1657.03 2493.61 1651.02 2505.95C1649.47 2509.16 1550.42 2718.71 1650.05 2886.45C1657.06 2898.25 1653.18 2913.5 1641.37 2920.51C1637.4 2922.87 1633.02 2924 1628.71 2924Z" fill="#371A45"/>
<g opacity="0.15">
<path d="M1900.55 3317.09C1900.55 3317.09 1906.07 3627.75 1649.09 3683.24C1480.04 3719.74 1099.13 3525.75 858.287 3388.72C721.77 3311.05 647.299 3157.53 669.476 3002.03C675.172 2962.34 681.557 2924.71 688.72 2888.99C722.116 3033.96 802.628 3240.98 994.892 3317.09C1135.84 3372.9 1223.98 3346.52 1278.15 3301.43C1307.59 3276.93 1353 3294.22 1358.54 3332.13C1374.31 3439.91 1430.11 3559.97 1601.54 3553.8C1909.69 3542.75 1827.11 3121.38 1746.43 3030.6C1750.83 3031.8 1870.52 3068.48 1915.82 3312L1900.55 3317.09Z" fill="#371A45"/>
</g>
<g opacity="0.15">
<path d="M2092.09 2854.8C2092.09 2854.8 2047.56 3100.77 1956.02 3109.09C1864.49 3117.41 1883.91 2910.38 1883.91 2910.38C1883.91 2910.38 1653.09 2910.01 1553.83 2888.99C1553.83 2888.99 1546.91 2977.26 1709.86 3022.37C1872.81 3067.48 1911.68 3195.94 1915.82 3312C1915.82 3312 2136.62 3238.46 2092.09 2854.8Z" fill="#371A45"/>
</g>
<g opacity="0.15">
<path d="M2394.24 3439.2C2282.74 3453.44 2172.63 3414.69 2092.21 3373.7C2067.7 3361.36 2046.04 3348.68 2027.83 3337.29C2002.72 3314.42 1986.5 3289.91 1986.5 3289.91C2164.09 3074.09 2072.01 2862.67 2072.01 2862.67L2151.32 2822.8L2148.56 2828.58C2148.56 2828.58 2149.25 2832.55 2150.28 2840.06C2157 2887.52 2179.42 3073.19 2144.22 3226.39C2135.39 3264.82 2161.59 3302.77 2200.56 3308.75C2302.21 3324.36 2479.62 3314.64 2558.45 3086.34C2579.25 3235.81 2521.26 3422.89 2394.24 3439.2Z" fill="#371A45"/>
</g>
<g opacity="0.15">
<path d="M2092.21 3373.7L2092.12 3373.96C2067.96 3368.78 2045.7 3353.51 2027.83 3337.29C2046.04 3348.68 2067.7 3361.36 2092.21 3373.7Z" fill="#371A45"/>
</g>
<g opacity="0.15">
<path d="M1813.65 2910.3C1698.53 2911.6 1585.14 2895.98 1485.73 2874.84C1479.69 2873.37 1473.74 2872.08 1467.96 2870.95C1466.83 2870.69 1465.71 2870.44 1464.59 2870.26C1325.22 2843.6 879.775 2701.39 932.501 2637.01C950.535 2615.01 977.288 2622.68 1027.42 2642.36C1123.81 2680.24 1306.59 2762.4 1679.38 2762.4C2085.56 2762.4 2227.17 2589.89 2274.72 2492.21C2310.27 2503.51 2343.75 2527.16 2354.97 2574.71C2382.24 2690.25 2150.2 2906.59 1813.65 2910.3Z" fill="#371A45"/>
</g>
<path d="M2882.29 866.444C2852.61 817.884 2837.98 759.592 2844.24 698.607C2859.44 550.587 2991.76 442.913 3139.78 458.111C3287.8 473.308 3395.47 605.623 3380.27 753.644C3365.08 901.664 3232.76 1009.34 3084.74 994.14C3043.57 989.913 3005.53 976.602 2972.38 956.435L2847.7 984.397L2882.29 866.444Z" fill="#FF0068"/>
<g opacity="0.5">
<path d="M3134.48 509.658C2996.21 495.462 2871.68 588.496 2843.48 721.469C2843.44 711.97 2843.85 702.389 2844.85 692.726C2860.04 544.705 2992.36 437.032 3140.38 452.229C3288.4 467.428 3396.07 599.742 3380.87 747.762C3379.88 757.466 3378.35 766.985 3376.38 776.317C3375.86 640.331 3272.8 523.859 3134.48 509.658Z" fill="white"/>
</g>
<path d="M3112.48 1016.92C3102.59 1016.92 3092.6 1016.42 3082.56 1015.39C3042.07 1011.23 3003.86 999.032 2968.82 979.115L2852.37 1005.23C2845.01 1006.91 2837.29 1004.51 2832.12 999.001C2826.94 993.487 2825.08 985.643 2827.21 978.385L2859.2 869.313C2829.28 816.624 2816.77 757.062 2822.99 696.427C2839.38 536.932 2982.59 420.456 3141.95 436.867C3219.22 444.798 3288.77 482.348 3337.8 542.591C3386.82 602.835 3409.44 678.563 3401.51 755.826C3386.17 905.274 3259.58 1016.92 3112.48 1016.92ZM2972.38 935.081C2976.27 935.081 2980.11 936.138 2983.48 938.19C3015.08 957.415 3049.88 969.093 3086.92 972.894C3152.81 979.668 3217.44 960.354 3268.84 918.531C3320.23 876.708 3352.26 817.377 3359.02 751.462C3365.8 685.541 3346.49 620.943 3304.67 569.545C3262.84 518.153 3203.51 486.124 3137.6 479.357C3001.46 465.345 2879.45 564.717 2865.49 700.789C2859.9 755.233 2872.01 808.672 2900.52 855.311C2903.66 860.447 2904.48 866.679 2902.78 872.459L2878.39 955.628L2967.71 935.598C2969.25 935.251 2970.82 935.081 2972.38 935.081Z" fill="#371A45"/>
<g opacity="0.15">
<path d="M2880.78 863.857C2954.58 926.277 3056.24 953.61 3157.2 928.484C3269.16 900.617 3351.66 815.359 3381.33 711.886C3382.04 725.606 3381.72 739.553 3380.27 753.644C3365.07 901.664 3232.76 1009.34 3084.74 994.141C3043.57 989.913 3005.53 976.602 2972.38 956.435L2847.7 984.397L2882.29 866.444C2881.77 865.592 2881.29 864.714 2880.78 863.857Z" fill="#371A45"/>
</g>
<path d="M3026.11 650.47C3049.42 627.153 3087.23 631.331 3110.54 654.648L3114.17 658.277L3117.8 654.648C3141.12 631.331 3178.92 627.154 3202.24 650.47C3225.55 673.786 3225.55 711.59 3202.24 734.905L3198.61 738.534L3125.3 811.84C3119.15 817.987 3109.19 817.987 3103.04 811.84L3029.74 738.534L3026.11 734.905C3002.79 711.589 3002.79 673.786 3026.11 650.47Z" fill="white"/>
</svg>
