<svg width="101" height="40" viewBox="0 0 101 40" fill="none" xmlns="http://www.w3.org/2000/svg">
<g clip-path="url(#clip0_3481_985)">
<g clip-path="url(#clip1_3481_985)">
<path d="M32.9898 5.05092C34.9298 6.81652 36.48 8.83435 37.6319 11.1218L30.5302 14.653C29.0406 11.6784 26.7542 9.66931 23.6797 8.62561C20.5705 7.5732 17.5479 7.78195 14.6033 9.26053C11.6587 10.7391 9.66679 13.0266 8.61886 16.1316C7.57093 19.254 7.77012 22.2894 9.2251 25.2379C10.6801 28.1864 12.9578 30.1955 16.067 31.2479C18.5093 32.0742 20.9256 32.109 23.3246 31.3523C25.7236 30.5956 27.6895 29.2475 29.2224 27.3166L18.5959 23.7158L21.1248 16.1838L31.7513 19.7846L36.1076 21.2631L39.5286 22.4286C39.3813 23.6984 39.0782 24.9944 38.6365 26.3251C36.8871 31.5175 33.5527 35.3358 28.6335 37.7798C23.7143 40.2238 18.6738 40.563 13.5208 38.8148C8.35038 37.0579 4.54838 33.718 2.11475 28.7865C-0.310225 23.8376 -0.647988 18.7756 1.09279 13.5832C2.83358 8.40817 6.16791 4.58995 11.0785 2.13724C15.9977 -0.306769 21.0382 -0.654671 26.2086 1.09354C28.7894 1.97199 31.0498 3.28532 32.9898 5.05092Z" fill="#89878C"/>
<path d="M49.1678 20.9412C48.7521 20.6803 48.2758 20.402 47.7388 20.1149C48.3104 19.7844 48.7954 19.4713 49.1938 19.193C49.5922 18.9147 50.1725 18.5407 50.9173 18.0971C51.9479 17.4448 52.9352 16.662 53.8792 15.7314C54.8232 14.8007 55.2909 13.9223 55.2909 13.0786C55.2909 11.7305 54.7886 10.565 53.8099 9.59092C52.8313 8.61679 51.6534 8.13843 50.2937 8.14713C49.0986 8.14713 48.0506 8.54721 47.1499 9.3126C46.2492 10.0867 45.6949 11.026 45.4698 12.148L37.5713 11.2608C38.013 8.16452 39.4247 5.54656 41.8236 3.41566C44.2226 1.28477 47.0287 0.206271 50.2331 0.188876C53.7753 0.162783 56.8152 1.41523 59.3527 3.93752C61.8903 6.4598 63.172 9.48655 63.198 13.0264C63.198 14.3137 62.9988 15.5313 62.5658 16.6881C62.1414 17.8449 61.1628 18.9582 59.6472 20.0367C61.2234 20.8021 62.228 21.8284 62.6437 23.1156C63.0595 24.4028 63.276 25.6901 63.2846 26.9773C63.3106 30.5346 62.0635 33.5874 59.5519 36.1358C57.0403 38.6842 54.0178 39.9714 50.4756 39.9975C47.2625 40.0149 44.4478 38.9799 42.0228 36.8751C39.5979 34.779 38.1516 32.1697 37.6666 29.0647L45.5564 28.0732C45.7902 29.2039 46.3618 30.1519 47.2712 30.8999C48.1805 31.6479 49.2285 32.0219 50.4236 32.0132C51.7833 32.0132 52.9525 31.5174 53.9225 30.5433C54.8925 29.5779 55.3688 28.395 55.3602 27.0121C55.3602 25.7596 54.9358 24.8116 54.113 24.1593C53.2903 23.507 52.2597 22.8025 51.0299 22.0545C50.1898 21.5674 49.5662 21.1934 49.1505 20.9325L49.1678 20.9412Z" fill="#DC005E"/>
<path d="M69.2951 25.1859L68.3078 25.3164V14.1748H70.369C71.4949 14.1748 72.3869 14.4966 73.0451 15.1315C73.7034 15.7665 74.0238 16.671 74.0238 17.8365C74.0238 19.0019 73.6774 19.9152 72.9845 20.5501C72.2917 21.185 71.313 21.4981 70.0399 21.4981H69.2864V25.1859H69.2951ZM69.2951 20.4979H70.2045C71.0792 20.4979 71.7547 20.2631 72.2224 19.7847C72.6987 19.3064 72.9326 18.6627 72.9326 17.8365C72.9326 17.0102 72.716 16.3753 72.2744 15.8969C71.8327 15.4186 71.2524 15.175 70.5163 15.175H69.2864V20.5066L69.2951 20.4979Z" fill="#89878C"/>
<path d="M77.7305 18.7409H77.7652C78.0423 18.0712 78.4147 17.6015 78.8824 17.3406C79.3501 17.0797 79.965 16.9492 80.7358 16.9492L80.3374 17.8973C80.2767 17.8886 80.1468 17.8799 79.9736 17.8799C79.7138 17.8799 79.454 17.9581 79.1942 18.1147C78.9257 18.2712 78.6832 18.4887 78.4667 18.7844C78.2502 19.0714 78.0683 19.4193 77.9384 19.8281C77.8085 20.2369 77.7392 20.6805 77.7392 21.1588V25.2032L76.8125 25.3945V17.1493L77.7392 16.9579V18.7583L77.7305 18.7409Z" fill="#89878C"/>
<path d="M84.4252 14.4009L83.689 15.2358L82.9529 14.4009L83.689 13.5659L84.4252 14.4009ZM83.308 25.3772V17.1319L84.2347 16.9406V25.1858L83.308 25.3772Z" fill="#89878C"/>
<path d="M88.0107 25.3164V17.132L88.9374 16.9407V18.2714H88.972C89.1972 17.8974 89.5176 17.5843 89.9507 17.3234C90.375 17.0711 90.8254 16.9407 91.2931 16.9407C91.7088 16.9407 92.0898 16.9842 92.4449 17.0798C92.8 17.1668 93.1118 17.3234 93.3889 17.5495C93.6661 17.7669 93.8826 18.0627 94.0471 18.4367C94.2117 18.8106 94.2896 19.2542 94.2896 19.7935V25.2033L93.3629 25.3338V19.5847C93.3629 19.0107 93.1897 18.5671 92.8346 18.254C92.4796 17.9409 91.9859 17.7843 91.3364 17.7843C91.1025 17.7843 90.8514 17.8278 90.5742 17.9148C90.2971 18.0018 90.0373 18.1322 89.7948 18.3149C89.5436 18.4975 89.3444 18.7324 89.1885 19.0107C89.0326 19.2977 88.9547 19.6195 88.9547 19.9848V25.2033L88.028 25.3338L88.0107 25.3164Z" fill="#89878C"/>
<path d="M97.8838 15.1577L98.8105 14.6445V17.132H100.984V18.0627H98.8105V23.0377C98.8105 23.516 98.9231 23.8639 99.1482 24.0727C99.3734 24.2814 99.7372 24.3858 100.248 24.3858C100.577 24.3858 100.828 24.3771 101.002 24.351V25.2207C100.664 25.2816 100.387 25.3164 100.17 25.3164C99.434 25.3164 98.8711 25.1164 98.4727 24.7163C98.0743 24.3162 97.8838 23.7509 97.8838 23.0203V18.0627H96.8099L97.0351 17.132H97.8838V15.1577Z" fill="#89878C"/>
</g>
</g>
<defs>
<clipPath id="clip0_3481_985">
<rect width="101" height="40" fill="white"/>
</clipPath>
<clipPath id="clip1_3481_985">
<rect width="101" height="40" fill="white"/>
</clipPath>
</defs>
</svg>
