<svg width="102" height="76" viewBox="0 0 102 76" fill="none" xmlns="http://www.w3.org/2000/svg">
<g clip-path="url(#clip0_3484_2886)">
<path d="M14.5078 65.5328C10.9117 61.3501 7.44111 55.8386 7.63519 50.0729C7.87493 42.9669 17.5103 50.7084 19.5538 52.6033C23.8463 56.5781 28.7439 63.661 28.9951 69.7039C29.1321 72.997 25.8099 72.9276 23.5838 72.269C19.9762 71.1945 16.9851 68.225 14.4964 65.5328C13.7772 64.7586 12.6355 65.9256 13.3548 66.6882C15.9805 69.5306 25.5702 78.5084 29.6572 72.7659C31.5067 70.1661 30.2851 66.8615 29.1892 64.2156C27.3397 59.7093 24.6911 55.5844 21.3462 52.0834C18.9716 49.6107 10.0212 41.7999 6.90454 47.0688C3.27416 53.2042 9.58737 62.3091 13.3548 66.6882C14.0397 67.4855 15.1814 66.3185 14.4964 65.5328H14.5078Z" fill="#4D2566"/>
<path d="M8.9709 47.3808C15.8435 41.9039 23.344 43.7873 29.1549 49.9112C35.7535 56.867 36.2787 66.3878 28.0589 72.1189C27.2027 72.7197 28.0133 74.1409 28.8809 73.5401C37.0664 67.8437 38.0482 58.2882 31.7921 50.5236C25.3989 42.5741 16.2317 39.5468 7.82927 46.2369C7.00729 46.8955 8.16034 48.0394 8.9709 47.3923V47.3808Z" fill="#4D2566"/>
<path d="M16.1974 48.9983C12.3387 55.8732 8.47999 62.7597 4.62128 69.6346C4.34729 70.1199 4.67836 70.9518 5.31768 70.8709C13.2863 69.831 21.2548 68.7911 29.2234 67.7512C30.2395 67.6241 30.2623 65.9834 29.2234 66.1105C21.2548 67.1504 13.2863 68.1903 5.31768 69.2186C5.546 69.6346 5.78574 70.039 6.01407 70.455C9.87278 63.5801 13.7315 56.6936 17.5902 49.8187C18.1039 48.8943 16.7111 48.074 16.1974 48.9868V48.9983Z" fill="#4D2566"/>
<path d="M16.186 60.6337C12.43 63.5454 8.66265 66.4456 4.90669 69.3573C4.08472 69.9928 4.89528 71.414 5.72867 70.7785C9.48463 67.8668 13.252 64.9666 17.008 62.0549C17.8299 61.4194 17.0194 59.9982 16.186 60.6337Z" fill="#4D2566"/>
<path d="M5.72875 69.3458C4.11905 68.2481 2.01845 68.1557 0.956735 70.0275C0.0091823 71.7029 0.637079 73.9214 2.02987 75.123C3.51399 76.4171 5.68308 75.9549 6.8133 74.4413C8.16042 72.6504 7.36128 70.5821 5.72875 69.3458C4.89536 68.7103 4.0848 70.1431 4.90677 70.767C5.84291 71.4718 6.2539 72.6042 5.43192 73.5747C4.72411 74.4182 3.63957 74.4529 2.87467 73.7018C2.15545 72.997 1.89287 71.7838 2.34952 70.8594C2.90892 69.7387 4.10763 70.2239 4.90677 70.767C5.77441 71.3563 6.58497 69.9351 5.72875 69.3458Z" fill="#4D2566"/>
<path d="M17.7272 57.0749C17.008 57.849 16.46 58.7387 15.8093 59.5706C15.6152 59.8133 15.5809 60.0559 15.7065 60.3448C16.1974 61.4425 16.8938 62.3784 17.7158 63.245C17.8984 63.4298 18.2638 63.5107 18.4807 63.349C19.2456 62.7597 20.079 62.2744 20.9466 61.8238C21.2434 61.6736 21.3576 61.2229 21.1749 60.9456C20.3529 59.6977 19.531 58.4499 18.709 57.2135C18.2523 56.5318 17.1564 57.1673 17.613 57.8606C18.435 59.1085 19.257 60.3563 20.079 61.5927C20.1589 61.3038 20.2274 61.0034 20.3073 60.7145C19.4511 61.1652 18.6177 61.6389 17.8414 62.2397C18.0925 62.2744 18.3551 62.3091 18.6062 62.3437C17.8528 61.558 17.2363 60.703 16.7911 59.7093C16.7568 59.9635 16.7226 60.2293 16.6883 60.4834C17.339 59.6631 17.887 58.7618 18.6062 57.9877C19.1656 57.3869 18.2752 56.4741 17.7044 57.0864L17.7272 57.0749Z" fill="#4D2566"/>
<path d="M7.06437 50.6738C11.1286 51.8986 15.0672 54.3828 17.6244 57.8491C18.1039 58.5077 19.2113 57.8607 18.7204 57.2021C15.9577 53.4469 11.8136 50.7547 7.39545 49.4375C6.60772 49.2064 6.27665 50.4427 7.06437 50.6738Z" fill="#4D2566"/>
<path d="M18.0811 51.3092C18.0925 53.3082 18.3893 55.3995 17.9669 57.3638C17.7957 58.1726 19.0172 58.5077 19.1885 57.7104C19.6451 55.6075 19.3597 53.4353 19.3483 51.3092C19.3483 50.4773 18.0697 50.4773 18.0811 51.3092Z" fill="#4D2566"/>
<path d="M20.41 60.0213C21.6772 59.432 22.8417 58.6463 23.9605 57.8029C24.6112 57.3176 23.9719 56.1968 23.3212 56.6936C22.2024 57.5371 21.0379 58.3228 19.7707 58.9121C19.0287 59.2587 19.668 60.3564 20.41 60.0213Z" fill="#4D2566"/>
<path d="M20.5927 61.8238C24.2801 63.4645 26.415 68.9529 27.2712 72.6503C27.4539 73.4591 28.6754 73.1125 28.4928 72.3037C27.5566 68.2827 25.2277 62.4939 21.232 60.7146C20.4899 60.3795 19.8506 61.4887 20.5927 61.8238Z" fill="#4D2566"/>
<path d="M20.3644 60.9457C23.0244 61.0035 25.7985 61.9394 27.5909 64.0076C28.1274 64.6316 29.0179 63.7188 28.4928 63.1064C26.4949 60.7839 23.3554 59.7325 20.3758 59.6632C19.5538 59.6516 19.5652 60.9342 20.3758 60.9457H20.3644Z" fill="#4D2566"/>
<path d="M19.4511 61.8238C19.6908 63.9268 19.4739 66.515 18.0012 68.1557C17.4532 68.7681 18.3437 69.6693 18.9031 69.0569C20.6155 67.1736 21.0037 64.2849 20.7297 61.8238C20.6383 61.015 19.3711 61.0035 19.4625 61.8238H19.4511Z" fill="#4D2566"/>
<path d="M10.8203 59.5129C11.9734 58.1264 16.0262 58.369 17.4418 59.2009C18.1496 59.6169 18.7889 58.5077 18.0811 58.0917C16.8938 57.3984 15.2955 57.3638 13.9712 57.3869C12.6698 57.3984 10.8318 57.5255 9.92987 58.6116C9.40472 59.2356 10.2952 60.1484 10.8318 59.5129H10.8203Z" fill="#4D2566"/>
<path d="M24.9651 45.1045C26.0839 43.7873 26.5862 43.8682 27.9448 44.6654C29.2691 45.4396 30.3765 46.5026 31.4382 47.6002C33.5388 49.7956 34.9658 52.6033 36.1417 55.3879C36.233 55.0182 36.3358 54.6369 36.4271 54.2672C35.6165 54.8911 34.7946 55.5151 33.984 56.139C33.162 56.7629 33.9726 58.1957 34.806 57.5602C35.6165 56.9362 36.4385 56.3123 37.2491 55.6884C37.6372 55.3879 37.7285 55.0182 37.5345 54.5676C35.959 50.8355 33.8813 47.4616 30.8445 44.781C29.6001 43.6833 28.1503 42.8398 26.6433 42.1581C25.6044 41.6844 24.3715 43.2904 23.8121 43.949C23.1385 44.7463 24.2802 45.9133 24.9537 45.1045H24.9651Z" fill="#4D2566"/>
<path d="M23.4696 43.3366C22.9901 41.8346 22.7846 38.4029 25.2848 39.0153C26.3693 39.281 27.374 40.0321 28.2759 40.6676C30.4449 42.1812 32.3172 44.1801 34.0525 46.1675C35.7764 48.1433 37.3975 50.3733 38.4021 52.8113C39.6465 55.8386 39.7606 60.4372 35.4339 58.3459C34.4977 57.8953 33.6758 59.3049 34.6233 59.7671C37.0093 60.9225 40.5027 61.5465 40.731 57.8375C41.0164 53.0424 38.6304 49.2294 35.7535 45.6591C33.162 42.4354 29.7143 38.8188 25.7186 37.4323C21.4603 35.9533 21.0265 40.9911 21.9056 43.7757C22.2252 44.7809 23.7892 44.3534 23.4696 43.3366Z" fill="#4D2566"/>
<path d="M23.5038 39.0038C28.3444 35.3526 32.8081 31.089 38.0596 28.027C42.6946 25.3349 48.2087 31.5743 50.8345 34.8326C52.6268 37.0511 54.2479 39.801 54.5676 42.6897C54.8758 45.4165 52.4327 47.4848 50.686 49.2064C47.2726 52.5803 43.4253 55.5613 39.5437 58.346C38.6989 58.9468 39.5095 60.3795 40.3657 59.7671C44.9779 56.4626 49.5558 52.8922 53.4374 48.7326C57.5701 44.3073 56.1773 39.7202 53.0036 35.0522C50.2751 31.0312 45.172 25.5659 39.8976 25.6584C37.3061 25.7046 34.5548 28.3159 32.614 29.7602C29.2348 32.2791 26.0611 35.0522 22.6933 37.5826C21.8713 38.2065 22.6705 39.6277 23.5153 39.0038H23.5038Z" fill="#4D2566"/>
<path d="M44.0189 27.6573C45.6172 26.6059 47.3753 25.5659 48.7567 24.2256C49.5102 23.4977 48.3685 22.3307 47.6151 23.0702C46.3364 24.3181 44.6925 25.2655 43.2084 26.2477C42.3407 26.8254 43.1513 28.2466 44.0303 27.6573H44.0189Z" fill="#4D2566"/>
<path d="M56.2115 41.4995C57.5358 40.3441 58.8601 39.1539 60.2986 38.1603C61.1548 37.571 60.3442 36.1498 59.4766 36.7506C57.924 37.8252 56.4855 39.0962 55.0585 40.3441C54.2593 41.0373 55.4124 42.1928 56.2001 41.4995H56.2115Z" fill="#4D2566"/>
<path d="M47.0443 23.7172C52.3643 25.173 59.5565 33.4229 59.4195 39.0961C59.4081 39.697 60.1273 40.1476 60.6411 39.801C62.8672 38.322 65.0135 36.7506 67.1141 35.0867C68.2101 34.2202 70.9957 32.5332 71.3838 31.0773C71.7491 29.7255 70.676 27.3684 70.1508 26.1667C69.0549 23.6594 67.6164 21.4525 65.8697 19.3611C64.1002 17.2467 59.4766 12.8906 56.3029 13.7803C54.853 14.1847 53.0835 16.4263 51.9533 17.4084C50.1495 18.9683 48.2772 20.5397 46.7018 22.3422C46.0054 23.1279 47.147 24.2949 47.8434 23.4976C49.8527 21.2214 52.2615 19.2802 54.5562 17.3044C55.9604 16.0912 56.6111 15.2362 58.5747 15.8717C60.7096 16.5649 62.5248 18.2288 64.066 19.7886C66.8515 22.6079 68.8836 26.3516 69.7056 30.2339C69.9225 31.2622 66.6346 33.3651 65.9725 33.9082C64.0089 35.5027 61.9425 36.9701 59.8305 38.3567C60.2415 38.5877 60.6411 38.8304 61.0521 39.0615C61.1434 35.2023 58.609 31.7706 56.2915 28.9398C54.0767 26.2476 50.96 23.047 47.5009 22.0995C46.4963 21.8222 46.0625 23.4052 47.0671 23.6825L47.0443 23.7172Z" fill="#4D2566"/>
<path d="M62.5019 17.004C63.4723 16.1028 64.2144 14.8665 65.5501 15.5366C66.7716 16.1375 67.7648 17.1889 68.6667 18.1941C69.58 19.2109 70.3906 20.4126 70.9043 21.6951C71.4409 23.0586 70.0709 23.5092 68.975 24.0985C68.0502 24.5953 68.8722 26.005 69.7969 25.5197C70.9728 24.8842 72.8108 23.9598 72.7423 22.4346C72.6624 20.7708 71.4409 19.0607 70.4591 17.8244C69.2147 16.2646 67.6963 14.6238 65.8126 13.8612C63.6664 12.9831 62.8901 14.4274 61.3603 15.8601C60.5954 16.5765 61.737 17.732 62.5019 17.0156V17.004Z" fill="#4D2566"/>
<path d="M22.3965 1.02432C17.2363 4.42133 11.3226 7.5757 6.8018 11.8277C6.50497 12.105 6.45931 12.7174 6.8018 12.9832C13.6287 18.4138 20.8781 23.3475 28.0247 28.3391C28.253 28.5008 28.6183 28.4893 28.8467 28.3391C34.0411 24.9189 39.2355 21.5104 44.4413 18.1018C44.9893 17.7436 44.9322 17.0504 44.4413 16.6806C37.3518 11.4696 30.2851 6.24694 23.2184 1.02432C22.3736 0.40038 21.5631 1.82158 22.3965 2.44552C29.4631 7.66814 36.5412 12.8792 43.6079 18.1018V16.6806C41.005 18.3907 38.4135 20.1007 35.8106 21.7992C34.0297 22.9778 32.2373 24.1448 30.4564 25.3233C29.8627 25.7046 29.2805 26.0975 28.6868 26.4788C27.7507 27.0912 28.2644 26.525 28.8124 26.8948C21.7914 21.9957 14.6562 17.1543 7.94343 11.8162V12.9716C12.3615 8.82358 18.1724 5.73854 23.2184 2.42241C24.0861 1.84469 23.2755 0.423489 22.3965 1.00121V1.02432Z" fill="#4D2566"/>
<path d="M30.1253 27.7382C31.6437 28.0848 32.3286 29.8988 33.8128 30.3726C34.8174 30.6846 35.2398 29.1016 34.2466 28.7896C33.6187 28.5932 33.105 27.8653 32.6369 27.4146C32.0432 26.8485 31.3697 26.3401 30.5591 26.1552C29.5431 25.9241 29.1092 27.4955 30.1253 27.7382Z" fill="#4D2566"/>
<path d="M41.5302 19.4999C43.334 21.002 45.2747 22.3192 47.3068 23.5093C48.2087 24.0408 49.0307 22.6196 48.1288 22.0881C46.2223 20.9788 44.3843 19.7541 42.6832 18.3444C41.8841 17.6743 40.731 18.8297 41.5416 19.4999H41.5302Z" fill="#4D2566"/>
<path d="M60.1502 53.7126C63.4723 50.5004 66.783 47.2883 70.1052 44.0762C71.4409 42.7821 72.7766 41.488 74.1123 40.2054C73.747 40.5636 72.7994 39.9859 73.8155 40.6098C74.4776 41.0258 75.1512 41.4302 75.8133 41.8462C83.976 46.9186 92.1386 51.9794 100.301 57.0518C100.244 56.6243 100.187 56.1968 100.141 55.7693C96.9107 59.1778 93.6798 62.5749 90.449 65.9834C88.8964 67.6242 87.3438 69.2649 85.7798 70.9056C85.1062 71.622 86.7958 71.3447 86.1907 70.9287C85.5743 70.4897 84.9464 70.0506 84.3299 69.6115C76.2129 63.8805 68.1073 58.1495 59.9903 52.43C59.1341 51.8292 58.3236 53.2504 59.1684 53.8512C67.9932 60.0791 76.8066 66.3069 85.6314 72.5348C85.9168 72.7428 86.3734 72.6619 86.6132 72.4077C91.4993 67.2544 96.3855 62.1011 101.283 56.9363C101.648 56.555 101.569 55.931 101.123 55.6537C92.093 50.0498 83.0741 44.4459 74.0438 38.842C73.7356 38.6456 73.3246 38.7149 73.062 38.9691C68.3813 43.4984 63.6892 48.0393 59.0085 52.5687C58.2551 53.2966 59.3967 54.4636 60.1502 53.7241V53.7126Z" fill="#4D2566"/>
<path d="M54.3849 46.4794C56.691 48.2126 59.0085 49.9342 61.3146 51.6674C62.1594 52.2913 62.9586 50.8701 62.1252 50.2462C59.8191 48.513 57.5016 46.7914 55.1955 45.0582C54.3507 44.4343 53.5515 45.8555 54.3849 46.4794Z" fill="#4D2566"/>
<path d="M64.1915 36.9239C66.5319 38.6687 68.8836 40.4249 71.224 42.1812C72.0688 42.8052 72.8679 41.384 72.0345 40.76C69.6942 39.0037 67.3424 37.259 65.0021 35.5143C64.1573 34.8904 63.3581 36.3115 64.1801 36.9355L64.1915 36.9239Z" fill="#4D2566"/>
<path d="M15.0101 17.4778C19.9534 13.8844 24.908 10.2794 29.8513 6.68596C30.5134 6.21222 29.8741 5.09144 29.212 5.57673C24.2687 9.17017 19.3141 12.7752 14.3708 16.3686C13.7087 16.8423 14.348 17.9631 15.0101 17.4778Z" fill="#4D2566"/>
<path d="M15.0444 7.49467C22.0311 12.6595 29.0065 17.8359 35.9933 23.0008C36.6554 23.486 37.2833 22.3768 36.6326 21.8915C29.6458 16.7267 22.6705 11.5503 15.6837 6.38544C15.0215 5.90016 14.3936 7.00938 15.0444 7.49467Z" fill="#4D2566"/>
<path d="M68.564 59.016C73.3131 54.4982 78.0623 49.9804 82.8001 45.4626C83.3937 44.8965 82.5033 43.9837 81.8982 44.5498C77.149 49.0676 72.3998 53.5854 67.6621 58.1148C67.0684 58.6809 67.9589 59.5822 68.564 59.016Z" fill="#4D2566"/>
<path d="M66.9429 47.5656C75.6421 53.2504 84.3527 58.9467 93.0519 64.6315C93.7369 65.0821 94.3762 63.9729 93.6912 63.5223C84.992 57.8375 76.2814 52.1411 67.5822 46.4563C66.8972 46.0057 66.2579 47.1149 66.9429 47.5656Z" fill="#4D2566"/>
<path d="M32.1231 36.635C32.1231 36.635 32.3058 36.1844 32.7054 35.6645C33.0935 35.1214 33.6872 34.5206 34.3607 34.0237C35.0686 33.55 35.8563 33.1687 36.4956 32.9838C37.1235 32.7758 37.5916 32.7643 37.5916 32.7643C37.5916 32.7643 37.3746 33.2149 36.9522 33.7002C36.5413 34.2086 35.9248 34.7632 35.2398 35.2138C34.5662 35.7222 33.8242 36.1266 33.2077 36.3462C32.6026 36.5773 32.1231 36.635 32.1231 36.635Z" fill="#4D2566"/>
<path d="M43.6079 31.9324C43.6079 31.9324 43.4595 32.1866 43.2198 32.3599C42.9915 32.5563 42.6832 32.6718 42.375 32.6834C42.0667 32.6834 41.7585 32.5679 41.5302 32.3714C41.3018 32.1981 41.142 31.9439 41.142 31.9439C41.142 31.9439 41.2904 31.6897 41.5302 31.5164C41.7585 31.32 42.0667 31.2044 42.375 31.1929C42.6832 31.1929 42.9915 31.32 43.2198 31.5164C43.4481 31.6897 43.6079 31.9439 43.6079 31.9439V31.9324Z" fill="#4D2566"/>
<path d="M53.7228 21.6836C53.7228 21.6836 53.9169 21.2099 54.3735 20.6668C54.8188 20.1006 55.538 19.4767 56.4285 19.0723C56.8737 18.8759 57.3646 18.7257 57.8669 18.7026C58.1067 18.6794 58.3692 18.7141 58.5976 18.7488C58.8373 18.8181 59.0542 18.8643 59.2254 18.9914C59.4081 19.0954 59.5565 19.2109 59.6593 19.3496C59.7734 19.4651 59.8533 19.5807 59.8876 19.6962C59.9789 19.9042 60.0018 20.0198 60.0018 20.0198C60.0018 20.0198 59.8648 19.9735 59.6821 19.9158C59.4994 19.8464 59.2369 19.8002 58.9629 19.8118C58.8373 19.8002 58.6775 19.858 58.5405 19.8696C58.3806 19.9158 58.2322 19.9389 58.0724 20.0082C57.9126 20.0544 57.7413 20.1353 57.5587 20.1931C57.3874 20.274 57.1933 20.3433 57.0221 20.4242C56.28 20.7592 55.5037 21.129 54.853 21.3485C54.2137 21.5912 53.7114 21.672 53.7114 21.672L53.7228 21.6836Z" fill="#4D2566"/>
<path d="M63.5751 23.0702C63.5751 23.0702 63.3011 23.0471 63.0613 22.9431C63.0042 22.92 62.9357 22.8853 62.8787 22.8506C62.8216 22.8275 62.7645 22.8391 62.7188 22.8275C62.6732 22.8275 62.6389 22.8275 62.6161 22.8044C62.5818 22.8044 62.5818 22.7813 62.5476 22.7582C62.4791 22.712 62.4334 22.6311 62.3992 22.5387C62.3763 22.4347 62.3193 22.3422 62.2964 22.2151C62.2393 21.9841 62.2051 21.6952 62.2051 21.6952C62.2051 21.6952 62.3992 21.5103 62.6732 21.4525C62.8102 21.4179 62.9814 21.3948 63.1298 21.4525C63.2782 21.4988 63.4266 21.5796 63.5636 21.6836C63.6207 21.7299 63.6892 21.8338 63.7349 21.9147C63.792 21.9956 63.8262 22.088 63.849 22.1805C63.8719 22.2614 63.8947 22.3538 63.8947 22.4347C63.8833 22.504 63.849 22.5618 63.8262 22.6311C63.7349 22.8737 63.5522 23.0817 63.5522 23.0817L63.5751 23.0702Z" fill="#4D2566"/>
<path d="M19.2684 46.387C19.2684 46.387 19.8392 46.2484 20.6612 46.283C21.4946 46.283 22.5791 46.5026 23.6066 46.9763C23.8577 47.115 24.1203 47.2305 24.3486 47.3923C24.5884 47.5425 24.8167 47.7158 25.0222 47.9007C25.4332 48.2704 25.7643 48.6864 25.9583 49.1023C26.0611 49.2987 26.141 49.4952 26.1753 49.68C26.2209 49.8534 26.2552 50.0036 26.2438 50.1422C26.2438 50.408 26.2323 50.5466 26.2323 50.5466C26.2323 50.5466 26.1296 50.4311 25.9698 50.2578C25.9013 50.1653 25.7871 50.0729 25.6729 49.9689C25.5702 49.8534 25.4218 49.7609 25.2848 49.6454C25.1592 49.5298 24.9651 49.4374 24.8053 49.3103C24.6226 49.2063 24.4514 49.0908 24.2459 48.9868C23.8577 48.7672 23.4125 48.5593 22.9673 48.3397C22.0654 47.9238 21.1407 47.4962 20.4329 47.115C19.725 46.7452 19.257 46.3986 19.257 46.3986L19.2684 46.387Z" fill="#4D2566"/>
<path d="M28.9038 53.2388C28.9038 53.2388 28.6412 53.2735 28.4129 53.2273C28.1617 53.1926 27.9562 53.0655 27.8535 52.8807C27.7507 52.6958 27.7507 52.4531 27.8535 52.2221C27.9334 52.0025 28.0932 51.783 28.0932 51.783C28.0932 51.783 28.3558 51.7483 28.5841 51.7945C28.8353 51.8292 29.0407 51.9563 29.1435 52.1412C29.2462 52.326 29.2462 52.5687 29.1435 52.7998C29.0636 53.0193 28.9038 53.2388 28.9038 53.2388Z" fill="#4D2566"/>
<path d="M51.8848 10.2678C51.8848 10.2678 51.9076 10.1869 51.9418 10.0482C51.9533 9.9789 51.9875 9.89802 52.056 9.79403C52.1131 9.70159 52.193 9.56294 52.2957 9.48206C52.6953 9.05454 53.4145 8.61547 54.305 8.26884C55.1955 7.91065 56.2686 7.65645 57.4331 7.46003C58.0153 7.36759 58.609 7.29826 59.2369 7.25205C59.8533 7.20583 60.4698 7.19427 61.1091 7.20583C62.3649 7.24049 63.6436 7.37914 64.808 7.71422C65.3902 7.87599 65.9496 8.07241 66.452 8.31506C66.9657 8.54614 67.4223 8.82345 67.8219 9.12387C68.2215 9.41273 68.5526 9.7247 68.8037 10.0482C69.0777 10.3371 69.2375 10.6606 69.386 10.9033C69.5344 11.1459 69.58 11.3654 69.6371 11.5041C69.6828 11.6427 69.717 11.7121 69.717 11.7121C69.717 11.7121 69.6599 11.6543 69.5458 11.5619C69.4316 11.4694 69.2946 11.3077 69.0891 11.1459C68.8836 10.9841 68.6325 10.7877 68.3242 10.6144C68.1758 10.5104 68.016 10.4295 67.8333 10.3486C67.6507 10.2678 67.4794 10.1638 67.2739 10.0944C65.6985 9.43584 63.4038 9.17009 61.0521 9.13542C60.4812 9.11231 59.8762 9.12387 59.2939 9.12387C58.7117 9.13542 58.1409 9.14698 57.5815 9.15853C56.4741 9.19319 55.4352 9.25097 54.5562 9.3434C54.1224 9.40117 53.7114 9.44739 53.3689 9.52827C53.0264 9.60915 52.7296 9.69004 52.5012 9.79403C52.3757 9.84024 52.3072 9.89802 52.2158 9.94423C52.1245 9.99045 52.056 10.0482 52.0103 10.106C51.9076 10.21 51.8505 10.2678 51.8505 10.2678H51.8848Z" fill="#4D2566"/>
<path d="M39.7835 66.3185C39.7835 66.3185 40.0004 66.3185 40.3657 66.3416C40.5598 66.3879 40.7653 66.2954 40.9594 66.2723C41.1534 66.2723 41.4046 66.1221 41.6443 66.0528C41.7699 66.0297 41.8955 65.9257 42.0211 65.8564C42.1467 65.7755 42.2837 65.7408 42.4092 65.6484C42.6718 65.4751 42.9344 65.2902 43.2084 65.0707C43.4824 64.8742 43.7564 64.62 44.0418 64.3889C44.3158 64.1347 44.6126 63.8921 44.8866 63.6263C46.0168 62.5749 47.2155 61.4888 48.2201 60.7493C48.711 60.3795 49.1791 60.1022 49.5102 59.9289C49.8527 59.7556 50.0467 59.6863 50.0467 59.6863C50.0467 59.6863 49.9554 59.8943 49.7727 60.2062C49.5901 60.5298 49.3503 60.9804 49.0193 61.5003C48.6996 62.0318 48.2886 62.6211 47.8206 63.2335C47.3411 63.8459 46.7817 64.4698 46.1652 65.0475C45.5373 65.6137 44.8523 66.1452 44.0988 66.515C43.7449 66.7229 43.334 66.85 42.9686 66.9656C42.5919 67.0696 42.2152 67.1273 41.8613 67.1273C41.4959 67.1042 41.1991 67.1158 40.9023 66.9887C40.6169 66.8963 40.3885 66.8269 40.2516 66.6883C39.9547 66.4687 39.7949 66.3185 39.7949 66.3185H39.7835Z" fill="#4D2566"/>
<path d="M44.7039 70.0621C44.7039 70.0621 44.7267 69.9465 44.7952 69.7848C44.8523 69.6115 44.9893 69.4035 45.0807 69.1608C45.1834 68.9297 45.2976 68.7102 45.4688 68.4445C45.6286 68.2134 45.8227 67.9476 46.051 67.7281C46.4963 67.2659 47.0671 66.8731 47.6151 66.6882C48.1516 66.5033 48.6083 66.538 48.6083 66.538C48.6083 66.538 48.6083 66.6535 48.5626 66.8384C48.5284 67.0233 48.4599 67.2312 48.3685 67.497C48.1973 67.9938 47.8776 68.5716 47.4096 69.0684C47.1584 69.311 46.9073 69.5306 46.599 69.7039C46.325 69.8772 45.9825 70.0043 45.6971 70.0736C45.4117 70.1545 45.172 70.1199 45.0007 70.1083C44.8181 70.0967 44.7153 70.0736 44.7153 70.0736L44.7039 70.0621Z" fill="#4D2566"/>
<path d="M56.3942 5.70379C56.3942 5.70379 56.4627 5.55358 56.6111 5.33405C56.7595 5.11451 57.0678 4.8141 57.4331 4.54834C57.8098 4.28259 58.2893 4.03995 58.8259 3.85508C59.3624 3.6702 59.9447 3.56621 60.5497 3.52C60.8466 3.52 61.1548 3.49689 61.4516 3.53155C61.7484 3.55466 62.0339 3.60088 62.3193 3.65865C62.8787 3.7742 63.3924 4.00528 63.792 4.27104C63.986 4.42124 64.1687 4.53679 64.3057 4.69855C64.4427 4.84876 64.5569 4.9643 64.6253 5.10296C64.7623 5.35716 64.808 5.49581 64.808 5.49581C64.808 5.49581 64.6368 5.46115 64.4084 5.40337C64.2943 5.36871 64.1344 5.38026 63.9746 5.3456C63.8262 5.32249 63.6207 5.3456 63.4381 5.32249C62.6732 5.31094 61.6685 5.38026 60.6525 5.42648C59.6136 5.48425 58.5861 5.54203 57.8098 5.57669C57.6043 5.57669 57.4217 5.5998 57.2618 5.61135C57.102 5.63446 56.9536 5.62291 56.8166 5.64602C56.554 5.69224 56.3942 5.70379 56.3942 5.70379Z" fill="#4D2566"/>
<path d="M23.207 23.1742C27.4767 19.4421 32.6255 15.5714 37.6943 13.0409C38.4249 12.6712 37.7856 11.5735 37.055 11.9317C31.8834 14.5083 26.6776 18.46 22.3165 22.2729C21.7001 22.816 22.602 23.7172 23.2184 23.1742H23.207Z" fill="#4D2566"/>
<path d="M78.2792 65.8101C82.195 60.6452 87.1269 55.3533 92.3327 51.5057C92.9834 51.0204 92.3555 49.9111 91.6934 50.3964C86.2935 54.3827 81.2475 59.8018 77.1833 65.163C76.681 65.8216 77.7883 66.4571 78.2792 65.8101Z" fill="#4D2566"/>
<path d="M40.0461 54.7987C41.4388 55.0297 42.7517 55.6075 44.1445 55.8386C44.8067 55.9426 45.0921 54.9142 44.4299 54.8102C43.0371 54.5791 41.7243 54.0014 40.3315 53.7703C39.6693 53.6663 39.3839 54.6947 40.0461 54.7987Z" fill="#4D2566"/>
<path d="M38.893 52.2451C41.4617 53.4006 44.1217 54.3249 46.9529 54.3942C47.6379 54.4173 47.6379 53.3428 46.9529 53.3312C44.3158 53.2619 41.8156 52.4069 39.4296 51.3323C38.8131 51.055 38.2765 51.9794 38.893 52.2567V52.2451Z" fill="#4D2566"/>
<path d="M37.5231 50.0382C40.9708 49.8649 44.4528 51.3786 47.8434 51.8869C48.5055 51.9909 48.7909 50.9626 48.1288 50.8586C44.6468 50.3386 41.0849 48.8019 37.5231 48.9752C36.8495 49.0099 36.8381 50.0729 37.5231 50.0382Z" fill="#4D2566"/>
<path d="M47.2041 29.0092C48.0946 27.5302 49.6243 26.6405 51.1199 25.8779C51.7249 25.5659 51.1884 24.6416 50.5833 24.9535C48.9279 25.8086 47.284 26.8254 46.2908 28.4661C45.9369 29.0554 46.8502 29.5984 47.2041 29.0092Z" fill="#4D2566"/>
<path d="M48.7681 30.985C50.0582 29.6909 51.4395 28.5239 52.9693 27.5418C53.5401 27.172 53.015 26.2477 52.4328 26.6174C50.8231 27.6458 49.3732 28.8705 48.0146 30.234C47.5352 30.7192 48.2772 31.4703 48.7567 30.985H48.7681Z" fill="#4D2566"/>
<path d="M50.2066 33.2728C51.6336 31.6551 53.3118 30.3033 55.0242 28.9976C55.5608 28.5932 55.0242 27.6573 54.4877 28.0733C52.7067 29.4251 50.9486 30.8232 49.4531 32.5217C48.9964 33.0301 49.7499 33.7927 50.1952 33.2728H50.2066Z" fill="#4D2566"/>
<path d="M7.7836 53.493C9.10789 53.4699 10.4436 53.2388 11.7451 53.0771C12.4072 52.9962 12.4186 51.9216 11.7451 52.0025C10.4322 52.1643 9.09647 52.3954 7.7836 52.4185C7.09862 52.43 7.09862 53.5046 7.7836 53.4815V53.493Z" fill="#4D2566"/>
<path d="M8.05759 55.5613C9.73579 54.9258 11.5966 54.6369 13.389 54.7525C14.074 54.7987 14.0626 53.7241 13.389 53.6895C11.5281 53.5739 9.53029 53.8744 7.7836 54.5445C7.1557 54.7872 7.42969 55.8155 8.06901 55.5729L8.05759 55.5613Z" fill="#4D2566"/>
<path d="M8.74257 57.3522C10.2153 56.786 11.825 56.5549 13.389 56.682C14.0626 56.7398 14.0626 55.6653 13.389 55.6075C11.7451 55.4688 10.0098 55.7346 8.45716 56.3239C7.82926 56.5665 8.10325 57.5949 8.74257 57.3522Z" fill="#4D2566"/>
<path d="M14.074 56.8207C14.759 56.8207 15.4439 56.8207 16.1175 56.9362C16.7796 57.0633 17.065 56.035 16.4029 55.9079C15.638 55.7692 14.8503 55.7461 14.074 55.7461C13.389 55.7461 13.389 56.8091 14.074 56.8207Z" fill="#4D2566"/>
<path d="M62.4448 50.8932C62.6618 52.3606 63.0499 53.7934 63.2668 55.2493C63.3696 55.931 64.3856 55.6421 64.2829 54.9604C64.066 53.493 63.6778 52.0602 63.4609 50.6044C63.3581 49.9227 62.3421 50.2115 62.4448 50.8932Z" fill="#4D2566"/>
<path d="M64.6824 47.762C64.7281 51.0897 65.1619 54.5098 65.9268 57.745C66.0866 58.4152 67.1027 58.1263 66.9429 57.4562C66.2008 54.3018 65.767 50.9972 65.7327 47.7504C65.7327 47.0572 64.671 47.0572 64.6824 47.7504V47.762Z" fill="#4D2566"/>
<path d="M66.5319 47.0109C66.4405 50.7199 67.8676 54.1516 68.1758 57.8028C68.2329 58.4845 69.2946 58.4845 69.2261 57.8028C68.9179 54.1516 67.5023 50.6968 67.5822 47.0109C67.5936 46.3176 66.5433 46.3176 66.5319 47.0109Z" fill="#4D2566"/>
<path d="M80.0716 62.7943C80.1058 64.9434 80.4598 67.0695 80.9164 69.1608C81.0648 69.831 82.0809 69.5537 81.9325 68.872C81.4986 66.8615 81.1561 64.851 81.1333 62.7828C81.1333 62.0895 80.0716 62.0895 80.083 62.7828L80.0716 62.7943Z" fill="#4D2566"/>
<path d="M81.5101 60.9225C81.7498 63.9151 82.1265 66.8962 82.9599 69.7848C83.154 70.4434 84.1701 70.1661 83.976 69.4959C83.1654 66.6998 82.7887 63.8112 82.5604 60.9225C82.5033 60.2408 81.453 60.2408 81.4986 60.9225H81.5101Z" fill="#4D2566"/>
<path d="M82.9599 58.993C83.7933 63.0717 84.4098 67.1966 85.4258 71.2407C85.5971 71.9109 86.6131 71.622 86.4419 70.9518C85.4258 66.9078 84.8094 62.7828 83.976 58.7041C83.839 58.034 82.8229 58.3113 82.9599 58.993Z" fill="#4D2566"/>
<path d="M9.91845 10.0599C9.90703 11.7468 9.66729 13.5378 10.1468 15.19C10.3408 15.8487 11.3569 15.5713 11.1628 14.9012C10.7176 13.3529 10.9687 11.6428 10.9802 10.0599C10.9802 9.3666 9.92986 9.3666 9.92986 10.0599H9.91845Z" fill="#4D2566"/>
<path d="M11.9848 8.67334C11.5852 10.8687 11.3112 13.3991 11.7793 15.606C11.9277 16.2762 12.9438 15.9989 12.7954 15.3172C12.373 13.3298 12.6355 10.9496 13.0009 8.9622C13.1264 8.29204 12.1104 8.00318 11.9848 8.67334Z" fill="#4D2566"/>
<path d="M13.8114 7.77203C13.8 10.6144 13.6173 13.4453 13.6059 16.2877C13.6059 16.9809 14.6562 16.9809 14.6562 16.2877C14.6676 13.4453 14.8503 10.6144 14.8617 7.77203C14.8617 7.07876 13.8114 7.07876 13.8114 7.77203Z" fill="#4D2566"/>
<path d="M24.6911 21.2676C24.6911 22.4693 24.6683 23.7403 25.1706 24.8611C25.456 25.485 26.3579 24.942 26.0839 24.318C25.6729 23.3937 25.7414 22.2498 25.7414 21.2676C25.7414 20.5744 24.6911 20.5744 24.6911 21.2676Z" fill="#4D2566"/>
<path d="M26.1182 19.3958C26.3465 21.9262 26.5177 24.5491 27.1571 27.0102C27.3283 27.6803 28.3444 27.3915 28.1731 26.7213C27.5566 24.3526 27.3854 21.8222 27.1685 19.3842C27.1 18.7025 26.0497 18.7025 26.1068 19.3842L26.1182 19.3958Z" fill="#4D2566"/>
<path d="M28.3786 17.7436C28.4357 20.5975 29.1321 23.3937 28.9951 26.2592C28.9608 26.9525 30.0111 26.9409 30.0454 26.2592C30.1824 23.4053 29.486 20.5975 29.4289 17.7436C29.4175 17.0503 28.3558 17.0503 28.3786 17.7436Z" fill="#4D2566"/>
<path d="M59.6136 35.2254C60.7895 36.1382 62.1937 36.6466 63.5066 37.3052C64.1116 37.6057 64.6482 36.6813 64.0431 36.3809C62.7302 35.7223 61.3146 35.2139 60.1502 34.3011C59.6136 33.8851 59.0884 34.8095 59.6136 35.2254Z" fill="#4D2566"/>
<path d="M58.7117 32.7296C58.5519 32.8221 58.5519 32.7527 58.7688 32.8221C59.0428 32.9029 59.2939 33.0531 59.5451 33.1802C60.2072 33.5153 60.858 33.8851 61.5201 34.2317C62.559 34.7979 63.6892 35.4911 64.8651 35.6876C65.5272 35.8031 65.8126 34.7748 65.1505 34.6592C63.6892 34.405 62.3078 33.446 61.0178 32.7527C60.3671 32.3945 58.9743 31.3546 58.1751 31.8053C57.5815 32.1403 58.1181 33.0647 58.7117 32.7296Z" fill="#4D2566"/>
</g>
<defs>
<clipPath id="clip0_3484_2886">
<rect width="101" height="75" fill="white" transform="translate(0.5 0.874023)"/>
</clipPath>
</defs>
</svg>
