<svg width="87" height="93" viewBox="0 0 87 93" fill="none" xmlns="http://www.w3.org/2000/svg">
<g clip-path="url(#clip0_3491_30657)">
<path d="M48.3779 7.82589C42.9695 -0.918336 28.8663 -0.150176 20.5985 3.26814C10.144 7.58264 4.69676 17.8504 6.59875 28.8479C8.11258 37.6049 15.0607 45.8114 24.713 43.8782C29.5521 42.9052 34.3394 41.5609 38.9973 39.935C42.8531 38.5907 47.2264 37.0032 50.0988 33.9946C50.9139 33.1496 49.62 31.8565 48.8049 32.7143C43.9399 37.7969 34.8828 39.5509 28.2841 41.2025C25.9163 41.7914 23.1215 42.7772 20.6631 42.4443C14.7631 41.6377 10.8297 36.7343 9.07005 31.4596C7.58209 26.9659 7.94438 21.5888 9.23825 17.095C10.7262 11.9227 14.9442 8.45322 19.4598 5.84148C26.7702 1.61659 41.6886 0.477155 46.7864 8.73488C47.4075 9.73349 48.986 8.8245 48.3779 7.81309V7.82589Z" fill="#4D2566"/>
<path d="M49.7882 34.0201C55.0672 30.3586 53.8122 20.4109 52.6865 15.149C52.169 12.7549 51.1468 9.27257 48.8566 7.90268C46.5277 6.50719 43.0083 7.45459 40.537 7.96669C33.6536 9.38779 23.6391 13.0878 20.896 20.2317C17.519 29.0015 24.1178 37.4769 31.2341 42.0346C32.2304 42.6747 33.149 41.1 32.1657 40.4599C25.7222 36.3246 19.0976 28.2205 22.9015 20.2573C25.6575 14.4833 33.6924 11.6411 39.4372 10.0919C41.7921 9.46461 44.2505 9.02932 46.6959 9.09333C49.4648 9.17014 50.4222 13.5743 50.9268 15.6227C51.9619 19.822 53.1523 29.4752 48.8696 32.4454C47.9121 33.1111 48.8308 34.6859 49.8012 34.0201H49.7882Z" fill="#4D2566"/>
<path d="M24.1437 43.2381C21.7888 49.5754 38.1175 44.864 39.5925 44.4287C42.2967 43.635 56.0247 37.4513 50.3187 32.9447C49.4001 32.2278 48.0932 33.4952 49.0248 34.225C52.6994 37.1184 40.5241 42.2011 39.1138 42.6748C38.0916 43.0204 25.127 45.837 25.9163 43.7118C26.3303 42.6107 24.5577 42.137 24.1437 43.2253V43.2381Z" fill="#4D2566"/>
<path d="M25.4893 44.4415C16.2899 47.463 11.0626 59.6895 10.6615 68.549C10.4674 72.761 12.033 78.7271 16.6392 80.0714C20.3267 81.1468 21.7888 76.7299 22.0088 74.0669C21.4136 74.1437 20.8055 74.2333 20.2103 74.3102C20.5985 76.9219 22.9921 77.8565 24.9976 75.8593C28.6593 72.2361 21.97 66.2317 25.4634 62.5189C26.2656 61.6611 24.9717 60.3809 24.1695 61.2386C22.9145 62.5701 22.7463 63.9784 22.8239 65.758C22.8757 66.7822 23.1344 67.8192 23.3415 68.805C23.4709 69.3299 23.5873 69.8676 23.6908 70.3925C23.7684 70.7766 23.8331 71.1735 23.9108 71.5576C24.6095 72.8891 23.9625 73.6444 21.97 73.8237C21.8147 72.7482 20.2491 73.1195 20.1715 74.0669C19.9903 76.2434 18.9941 79.3416 16.0958 77.9205C14.1291 76.9603 13.4433 74.3102 12.9128 72.441C11.8907 68.8434 12.667 64.8234 13.8186 61.3411C15.7076 55.567 19.8351 48.2055 25.9939 46.1827C27.1066 45.8114 26.6279 44.0574 25.5022 44.4287L25.4893 44.4415Z" fill="#4D2566"/>
<path d="M50.7457 36.7983C52.376 39.9606 54.9767 41.0744 58.4184 40.1782C60.3074 39.6917 62.0671 38.5907 63.7232 37.6049C64.9265 36.8751 69.0799 34.3274 66.2333 37.3104C65.7287 37.8481 66.0393 38.9236 66.8803 38.8595C72.2628 38.4243 74.8376 43.1996 69.8691 46.3363C66.2204 48.6408 61.032 50.8172 56.6587 49.729C55.5071 49.4474 55.0284 51.1885 56.167 51.483C59.4793 52.3151 62.714 51.4702 65.8452 50.3179C68.3682 49.3833 72.1981 47.9238 73.6343 45.4785C76.5843 40.4599 71.8099 36.6447 66.8673 37.0544C67.0873 37.5665 67.2943 38.0914 67.5143 38.6035C68.213 37.8609 70.4772 36.0174 69.1446 34.7627C68.1612 33.8409 67.5143 33.4824 66.2075 34.0713C62.0283 35.9661 55.5718 42.2395 52.3113 35.8893C51.7808 34.8395 50.1893 35.7613 50.7198 36.8111L50.7457 36.7983Z" fill="#4D2566"/>
<path d="M24.2601 74.0285C26.9514 84.1298 39.6831 90.672 49.2448 92.4643C53.3593 93.2325 58.7548 93.1301 62.0283 90.1214C65.7805 86.6903 63.348 82.7983 60.9155 79.3544C58.9359 76.5762 56.814 73.7852 60.4627 71.2247C63.2574 69.2531 67.372 69.5091 70.6196 69.0611C75.9245 68.3313 80.8282 66.2701 81.6175 60.5345C81.9021 58.4348 82.1997 50.5868 77.8911 51.6878C75.1481 52.392 72.7803 53.8643 69.895 54.402C65.9487 55.1446 61.1743 55.0933 57.8232 52.6608C56.8657 51.9695 55.9471 53.5442 56.8916 54.2356C60.385 56.7705 65.25 56.9369 69.3904 56.3096C71.577 55.9767 73.8154 55.5414 75.8209 54.594C77.3089 53.8899 79.0168 53.0833 79.6767 55.1958C80.2201 56.9625 79.9613 59.1774 79.7155 60.957C78.8227 67.4607 70.0244 67.0894 65.1853 67.8704C62.1447 68.3569 56.4517 69.8804 56.4646 73.9005C56.4646 77.3188 59.3111 80.0585 61.032 82.7855C65.0171 89.0588 56.9433 91.2225 52.0654 91.0048C42.5167 90.5823 28.6463 83.336 26.0457 73.5676C25.7481 72.441 23.9755 72.9147 24.2731 74.0541L24.2601 74.0285Z" fill="#4D2566"/>
<path d="M15.2548 41.4457C12.4859 42.4059 9.14768 44.8256 10.7521 48.0647C11.2696 49.1145 12.8482 48.1927 12.3435 47.1429C11.3731 45.1841 14.2585 43.699 15.7464 43.1869C16.8592 42.8028 16.3804 41.0488 15.2548 41.4329V41.4457Z" fill="#4D2566"/>
<path d="M11.3602 53.1473C11.8907 54.4532 12.4729 55.9511 13.4563 57.0009C14.2585 57.8587 15.5523 56.5784 14.7501 55.7207C14.0256 54.9397 13.5339 53.6594 13.1328 52.6736C12.9387 52.2127 12.5247 51.8927 12.0071 52.0335C11.5672 52.1487 11.1791 52.6864 11.3602 53.1473Z" fill="#4D2566"/>
<path d="M6.70226 27.2859C-4.12746 32.5734 -1.17743 51.3421 10.7521 53.2625C12.0848 53.4802 14.3749 53.621 15.2806 52.3664C15.8629 51.547 16.5357 49.2169 15.0736 48.7944C11.3861 47.7062 8.44899 45.5937 6.6505 42.1882C4.89084 38.8595 5.58953 34.8395 8.90184 32.8423C9.6911 32.3686 8.96654 31.1395 8.17727 31.6132C1.72085 35.5052 4.26978 44.2111 9.6911 47.847C10.6744 48.5128 11.6707 49.0377 12.7576 49.5114C14.362 50.2027 14.7501 51.7134 12.6153 51.9311C8.94066 52.3023 5.82243 49.921 3.88162 47.0789C-0.245838 41.036 0.504608 31.8949 7.42683 28.5022C8.25491 28.0925 7.53034 26.8762 6.70226 27.2731V27.2859Z" fill="#4D2566"/>
<path d="M3.05354 31.3572C3.8428 32.7271 4.73557 34.1994 6.52112 34.2634C7.29744 34.289 7.29744 33.1111 6.52112 33.0727C5.25312 33.0343 4.63206 31.7028 4.08864 30.7554C3.71341 30.0897 2.67832 30.6914 3.05354 31.3572Z" fill="#4D2566"/>
<path d="M1.0351 35.4924C2.01844 36.9391 3.77811 37.5025 5.43427 36.8367C6.13296 36.5551 5.83537 35.4028 5.1108 35.6973C3.98513 36.1454 2.78183 35.9405 2.0702 34.8907C1.64322 34.2634 0.608122 34.8523 1.0351 35.4924Z" fill="#4D2566"/>
<path d="M0.776325 42.5083C2.62656 43.0204 4.67088 41.9706 5.64129 40.3959C6.04239 39.7429 5.00729 39.1412 4.60619 39.7941C3.92044 40.9208 2.43248 41.7401 1.09979 41.3561C0.349347 41.1512 0.0388177 42.2907 0.776325 42.4955V42.5083Z" fill="#4D2566"/>
<path d="M2.32897 46.5924C4.32154 47.6422 6.10708 45.9906 6.87046 44.2367C7.16806 43.5453 6.13296 42.9436 5.83537 43.635C5.36957 44.7104 4.29566 46.2851 2.93709 45.5682C2.25134 45.2097 1.65616 46.2339 2.32897 46.5924Z" fill="#4D2566"/>
<path d="M6.50818 50.7404C7.95732 49.9595 8.74658 48.3975 9.10886 46.8612C9.29001 46.1187 8.13846 45.7986 7.95732 46.5411C7.65973 47.783 7.09042 49.0761 5.913 49.7162C5.24018 50.0875 5.83537 51.0989 6.52112 50.7404H6.50818Z" fill="#4D2566"/>
<path d="M10.0663 52.8785C11.3731 51.8927 12.046 50.3051 11.9166 48.692C11.8519 47.9366 10.6615 47.9366 10.7133 48.692C10.8168 49.857 10.4286 51.1245 9.45821 51.8671C8.85009 52.328 9.45821 53.3522 10.0663 52.8913V52.8785Z" fill="#4D2566"/>
<path d="M34.3653 52.9425C31.247 55.8743 31.7128 58.422 32.8902 62.314C33.9642 65.8732 35.5168 69.7908 39.4761 70.4309C40.6017 70.6102 41.7662 70.5462 42.8013 70.0341C45.5055 68.6898 48.1709 67.2047 50.8492 65.7964C52.9194 64.7081 54.6014 63.1974 56.4258 61.7763C57.3186 61.085 58.3925 60.1888 58.3019 58.9213C58.0043 55.0677 55.4554 44.2239 49.9435 45.0176C46.9676 45.4529 43.9011 47.4757 41.3134 48.884C38.9973 50.1387 36.733 51.4702 34.4946 52.8529C33.7183 53.3394 34.43 54.5684 35.2192 54.0819C38.1175 52.2896 41.0675 50.5996 44.0822 49.0121C45.9454 48.0391 47.8604 47.0661 49.8917 46.4899C52.9194 45.6194 54.7308 51.2909 55.4554 53.2754C56.3093 55.6054 57.6679 58.9982 55.3907 60.7777C52.0266 63.4407 48.6237 65.2587 44.8586 67.2687C40.8346 69.4067 38.0657 69.9316 35.6462 65.4379C34.7664 63.7864 34.2229 61.9556 33.7442 60.1632C33.0196 57.4618 33.3302 55.8999 35.3615 53.9795C36.0344 53.3522 35.0122 52.3408 34.3394 52.9809L34.3653 52.9425Z" fill="#4D2566"/>
<path d="M34.1582 53.5954C34.1971 59.3566 38.001 65.9884 41.8568 70.0981C42.4908 70.7766 43.5 69.7652 42.8789 69.0867C39.269 65.2459 35.6333 58.9597 35.5944 53.5954C35.5944 52.6736 34.1453 52.6736 34.1582 53.5954Z" fill="#4D2566"/>
<path d="M44.0564 53.1857C42.2449 52.8913 40.8476 53.9283 40.2783 55.6054C39.7478 57.1674 40.3559 58.9982 42.025 59.4975C45.6866 60.5857 48.1191 54.1459 44.0564 53.1857C43.1507 52.9681 42.7754 54.338 43.6811 54.5556C45.9195 55.0805 44.354 58.5373 42.4131 58.1276C40.5112 57.7307 41.8309 54.2612 43.6811 54.5556C44.5869 54.6965 44.975 53.3266 44.0564 53.1857Z" fill="#4D2566"/>
<path d="M51.3279 50.0491C49.5941 49.7674 48.2744 50.7532 47.718 52.3536C47.2134 53.8387 47.7957 55.5927 49.3871 56.0664C52.8806 57.1034 55.1966 50.9709 51.315 50.0491C50.4093 49.8315 50.0341 51.2013 50.9398 51.419C52.9841 51.9055 51.535 55.0677 49.7753 54.6965C48.0415 54.338 49.2577 51.1501 50.9398 51.419C51.8455 51.5598 52.2336 50.1899 51.315 50.0491H51.3279Z" fill="#4D2566"/>
<path d="M20.3009 49.857C24.4671 49.8314 30.3672 52.0847 33.4337 54.8629C34.1194 55.4774 35.1286 54.4788 34.4558 53.8515C31.1176 50.83 24.8294 48.3975 20.3009 48.4231C19.3693 48.4231 19.3693 49.8442 20.3009 49.8442V49.857Z" fill="#4D2566"/>
<path d="M23.5614 47.4117C27.1584 47.527 32.2562 49.2681 34.2617 52.4304C34.7534 53.1985 35.9955 52.4944 35.5039 51.7134C33.2137 48.1031 27.7018 46.1187 23.5744 45.9906C22.6428 45.965 22.6557 47.3861 23.5744 47.4117H23.5614Z" fill="#4D2566"/>
<path d="M50.7327 36.7215C50.7586 38.0658 50.9139 39.4101 51.0045 40.7415C51.0821 41.8554 51.4056 43.8654 50.6292 44.8C50.047 45.5041 51.0562 46.5156 51.6514 45.7986C53.5146 43.5325 52.2078 39.3589 52.1689 36.7087C52.156 35.7869 50.7198 35.7869 50.7327 36.7087V36.7215Z" fill="#4D2566"/>
<path d="M53.7087 39.8326C54.1227 41.5865 54.4979 44.3391 53.3205 45.8754C52.7641 46.6052 54.0062 47.3093 54.5626 46.5924C55.9859 44.736 55.5977 41.5609 55.106 39.4485C54.899 38.5523 53.5146 38.9364 53.7216 39.8198L53.7087 39.8326Z" fill="#4D2566"/>
<path d="M36.8107 69.2019C36.1637 73.4652 33.4596 78.151 29.6944 80.4298C29.9402 80.8395 30.1731 81.2492 30.4189 81.6589C30.7295 81.4669 30.9236 81.326 31.1823 81.0828C31.8681 80.4554 30.8459 79.4568 30.1602 80.0714C30.0049 80.1866 29.8367 80.3018 29.6814 80.417C28.9051 80.9035 29.6167 82.1326 30.406 81.6461C34.4688 79.1752 37.4706 74.1821 38.1822 69.5732C38.3245 68.677 36.9401 68.2929 36.7977 69.1891L36.8107 69.2019Z" fill="#4D2566"/>
<path d="M39.7348 70.4694C39.7348 74.9759 35.8015 81.198 32.1398 83.6177C31.3764 84.117 32.088 85.3589 32.8644 84.8468C37.0048 82.1198 41.184 75.5136 41.184 70.4694C41.184 69.5604 39.7478 69.5476 39.7478 70.4694H39.7348Z" fill="#4D2566"/>
<path d="M58.1596 58.8829C59.971 58.4604 61.2261 57.0521 62.3129 55.6439C62.8693 54.9141 61.6272 54.21 61.0708 54.9269C60.2168 56.0407 59.2076 57.1802 57.7844 57.513C56.8786 57.7179 57.2668 59.0878 58.1596 58.8829Z" fill="#4D2566"/>
<path d="M11.5672 68.6258C15.1383 70.5078 20.9349 69.5348 24.2342 67.5247C25.0235 67.051 24.2989 65.822 23.5097 66.2957C20.6761 68.0112 15.3841 69.0226 12.2918 67.3967C11.4767 66.9614 10.7521 68.1905 11.5672 68.6258Z" fill="#4D2566"/>
<path d="M61.1743 38.5651C63.9432 40.4727 66.4274 45.581 65.7417 48.9097C65.5605 49.8058 66.945 50.1899 67.1261 49.2809C67.9413 45.2737 65.2371 39.6277 61.8989 37.3232C61.1355 36.7983 60.4239 38.0274 61.1743 38.5523V38.5651Z" fill="#4D2566"/>
<path d="M68.2777 56.0919C69.4422 59.6255 69.7786 64.0168 67.8895 67.3583C67.4367 68.1649 68.6788 68.8818 69.1316 68.0752C71.2148 64.4009 70.956 59.6255 69.675 55.7207C69.3904 54.8501 68.006 55.2214 68.2906 56.0919H68.2777Z" fill="#4D2566"/>
<path d="M43.3189 90.5311C49.3095 88.7644 56.6199 83.6049 59.5181 78.0357C59.9451 77.2292 58.703 76.4994 58.276 77.3188C55.546 82.5679 48.6108 87.4841 42.9436 89.1612C42.0638 89.4301 42.439 90.8 43.3189 90.5311Z" fill="#4D2566"/>
<path d="M18.5283 10.1176C18.5283 10.1176 18.3342 10.284 17.9848 10.54C17.8166 10.6681 17.6484 10.8601 17.4285 11.0393C17.2214 11.2314 17.0144 11.4874 16.7815 11.7179C16.5745 11.9995 16.3157 12.2556 16.0828 12.5885C15.837 12.8957 15.617 13.2414 15.3712 13.5999C15.1383 13.9456 14.9184 14.3424 14.6855 14.7265C14.4526 15.1106 14.2455 15.5075 14.0515 15.93C13.8315 16.3268 13.6504 16.7493 13.4563 17.159C13.301 17.5815 13.0811 17.9784 12.9517 18.3881C12.7964 18.785 12.6411 19.1818 12.5118 19.5531C12.3694 19.9244 12.2659 20.2957 12.1495 20.6285C12.033 20.9614 11.9554 21.2815 11.8648 21.5503C11.7742 21.832 11.7096 22.0752 11.6578 22.2801C11.5413 22.6898 11.4637 22.933 11.4637 22.933C11.4637 22.933 11.399 22.6898 11.3214 22.2673C11.2826 22.0496 11.2308 21.7936 11.2308 21.4863C11.2179 21.1919 11.1791 20.8462 11.2049 20.4749C11.2179 20.1036 11.2308 19.694 11.2955 19.2715C11.3473 18.849 11.412 18.4009 11.5413 17.9528C11.6449 17.4919 11.7872 17.031 11.9554 16.5701C12.1495 16.122 12.3177 15.6483 12.5506 15.2002C12.7835 14.7521 13.0422 14.3168 13.301 13.9071C13.5598 13.4847 13.8833 13.1134 14.1808 12.7421C14.4914 12.3836 14.8148 12.0508 15.1513 11.7691C15.4618 11.4618 15.8241 11.2442 16.1346 11.0265C16.7815 10.6169 17.4026 10.3736 17.8296 10.2712C18.2565 10.1816 18.5024 10.1432 18.5024 10.1432L18.5283 10.1176Z" fill="#4D2566"/>
<path d="M11.5543 26.2105C11.5543 26.2105 11.619 26.2745 11.7225 26.3769C11.826 26.4666 11.9295 26.6458 12.0589 26.7738C12.1883 26.9019 12.2918 27.0427 12.4082 27.2219C12.4988 27.3884 12.6153 27.5676 12.68 27.7468C12.8352 28.1053 12.8999 28.5022 12.9258 28.8735C12.9387 29.0783 12.9517 29.2447 12.9646 29.36C12.9646 29.5008 12.9646 29.5904 12.9646 29.5904C12.9646 29.5904 12.874 29.6032 12.7317 29.5904C12.5894 29.5904 12.3694 29.5648 12.1753 29.4624C11.9554 29.3728 11.7354 29.2319 11.5672 29.0399C11.3731 28.8479 11.2438 28.6046 11.1273 28.3614C11.0367 28.1053 10.972 27.8364 10.972 27.5676C10.972 27.3115 11.0109 27.0427 11.1014 26.825C11.1661 26.6074 11.3084 26.4794 11.399 26.3769C11.4896 26.2745 11.5672 26.2105 11.5672 26.2105H11.5543Z" fill="#4D2566"/>
<path d="M48.7014 8.9397C43.5518 6.98089 25.5669 11.2826 22.164 19.7195C18.7482 28.1565 26.5115 39.9606 30.8459 41.1768C37.5482 40.2294 49.8659 36.1198 51.4056 30.2945C53.7087 24.623 53.3205 12.358 48.7014 8.9397Z" fill="#4D2566"/>
<path d="M32.2433 17.4791C32.2433 17.4791 31.9457 17.6583 31.4023 17.9528C31.1176 18.0808 30.82 18.2985 30.4966 18.5289C30.3284 18.6441 30.1602 18.7594 29.979 18.9002C29.8108 19.0538 29.6426 19.2203 29.4615 19.3867C29.2803 19.5403 29.0992 19.7196 28.9569 19.9372C28.8016 20.1421 28.6205 20.3341 28.4781 20.5517C28.3488 20.7822 28.2194 21.0254 28.077 21.2687C27.9347 21.5119 27.87 21.7936 27.7536 22.0497C27.6242 22.3057 27.5854 22.6002 27.5207 22.8946C27.456 23.1763 27.4042 23.4707 27.3913 23.778C27.3007 24.3797 27.3654 25.0071 27.4042 25.6344C27.5077 26.2617 27.5724 26.8891 27.7794 27.4908C27.9218 28.1053 28.1676 28.6942 28.3746 29.2704C28.6334 29.8209 28.8663 30.3714 29.1251 30.8835C29.4097 31.37 29.6556 31.8693 29.9143 32.3046C30.1861 32.7271 30.4319 33.124 30.6518 33.4824C30.8718 33.8281 31.0918 34.1226 31.26 34.3786C31.5964 34.8779 31.7905 35.1852 31.7905 35.1852C31.7905 35.1852 31.5058 34.9803 31.0271 34.6091C30.7942 34.417 30.4836 34.1994 30.1731 33.8921C29.8626 33.5977 29.5262 33.252 29.151 32.8679C28.7887 32.471 28.4393 32.0101 28.077 31.5236C27.7277 31.0243 27.3783 30.4738 27.0549 29.8721C26.7832 29.2576 26.4209 28.643 26.2527 27.9389C26.0068 27.2603 25.8904 26.5306 25.761 25.8008C25.7222 25.0583 25.6834 24.3157 25.7998 23.5732C25.8257 23.3939 25.8386 23.2019 25.8775 23.0227L26.0327 22.4977C26.1362 22.1521 26.2268 21.8064 26.4079 21.4863C26.5761 21.1663 26.6926 20.8334 26.8996 20.5645C27.1066 20.2957 27.3137 20.0268 27.5077 19.7708C27.9735 19.3227 28.4005 18.8746 28.8922 18.6185C29.1251 18.4777 29.358 18.3369 29.565 18.2088C29.7979 18.1064 30.0308 18.0296 30.2249 17.94C30.6389 17.7608 31.0012 17.6583 31.2988 17.6199C31.9069 17.5047 32.2562 17.4535 32.2562 17.4535L32.2433 17.4791Z" fill="white"/>
<path d="M6.19765 66.2445C6.19765 66.2445 6.1459 66.3213 6.05532 66.4621C5.95181 66.6158 5.88712 66.8078 5.83537 67.1023C5.73186 67.6656 5.79655 68.5105 5.96475 69.5092C6.1459 70.5078 6.40467 71.6728 6.75402 72.9019C6.84459 73.2091 6.92222 73.5292 7.02573 73.8109C7.12924 74.1309 7.23275 74.4766 7.33626 74.7711C7.54328 75.3728 7.77618 76.0129 8.04789 76.6146C8.29372 77.2292 8.60425 77.8053 8.90185 78.3814C9.22531 78.9447 9.54878 79.4824 9.89813 79.9817C10.5968 80.9932 11.399 81.8253 12.1624 82.4911C12.5506 82.8111 12.9129 83.1056 13.2622 83.3488C13.6115 83.5921 13.9221 83.7713 14.1808 83.9506C14.7243 84.245 15.0348 84.4371 15.0348 84.4371C15.0348 84.4371 14.6725 84.4243 14.0256 84.3475C13.7151 84.2706 13.3269 84.2194 12.887 84.0786C12.667 84.0018 12.4471 83.925 12.2012 83.8481C11.9683 83.7585 11.7225 83.6305 11.4637 83.5153C10.4545 83.0288 9.3547 82.2222 8.39723 81.1724C7.43977 80.1226 6.63757 78.8167 6.05532 77.4596C5.75773 76.7683 5.52484 76.0897 5.33076 75.36C5.21431 75.0015 5.16255 74.6686 5.08492 74.3358C4.99435 73.9773 4.94259 73.6444 4.89084 73.2987C4.7097 71.9545 4.63207 70.6742 4.73557 69.5732C4.81321 68.4721 5.07198 67.5375 5.43427 66.9614C5.58953 66.6798 5.83537 66.4621 5.96475 66.3853C6.12002 66.3085 6.19765 66.2573 6.19765 66.2573V66.2445Z" fill="#4D2566"/>
<path d="M3.41583 76.8323C3.41583 76.8323 3.5064 76.9987 3.60991 77.2804C3.64872 77.4212 3.73929 77.5876 3.81693 77.7541C3.89456 77.9205 3.98513 78.1125 4.08864 78.3174C4.4768 79.1368 5.03317 80.097 5.66716 80.9931C5.83537 81.2108 5.99063 81.4412 6.15884 81.6333C6.32704 81.8509 6.49524 82.043 6.66345 82.235C7.01279 82.6063 7.3492 82.9648 7.69854 83.2336C8.02201 83.5409 8.35842 83.7585 8.59132 83.925C8.83715 84.0786 8.99242 84.1938 8.99242 84.1938C8.99242 84.1938 8.83715 84.2578 8.52662 84.3346C8.37136 84.3731 8.17728 84.3986 7.95732 84.3986C7.73736 84.4115 7.47859 84.3987 7.20687 84.3602C6.65051 84.2834 6.04239 84.0402 5.46014 83.6817C5.17549 83.4897 4.8779 83.2848 4.63207 83.0288C4.36035 82.7855 4.14039 82.4911 3.92044 82.2094C3.72635 81.9021 3.51933 81.6077 3.37701 81.2748C3.20881 80.9675 3.11823 80.6219 3.01472 80.3146C2.84652 79.6617 2.79477 79.0343 2.85946 78.5094C2.8724 78.2534 2.92415 77.9973 2.98885 77.7797C3.0406 77.562 3.1053 77.3956 3.16999 77.2548C3.29938 76.9859 3.40289 76.8323 3.40289 76.8323H3.41583Z" fill="#4D2566"/>
<path d="M83.843 51.7518C83.843 51.7518 84.0241 51.7774 84.3217 51.8414C84.464 51.8671 84.6452 51.9439 84.8522 52.0591C85.0721 52.1615 85.2792 52.3151 85.4862 52.5072C85.9131 52.8785 86.2884 53.4162 86.5601 54.0435C86.6895 54.3636 86.8059 54.6964 86.8706 55.0421C86.9612 55.3878 86.9741 55.7335 87.0129 56.0919C87.0388 56.7961 86.9482 57.4874 86.7671 58.1148C86.586 58.7421 86.3272 59.2926 86.0296 59.7279C85.7449 60.1632 85.4215 60.4832 85.1886 60.6753C84.9427 60.8673 84.7875 60.957 84.7875 60.957C84.7875 60.957 84.7875 60.7649 84.8134 60.4833C84.8263 60.3424 84.8134 60.1632 84.8392 59.9711C84.8522 59.7791 84.8392 59.5615 84.8651 59.331C84.9039 58.422 84.9169 57.2698 84.8651 56.1687C84.8522 55.8999 84.8522 55.6182 84.8134 55.3494C84.8004 55.0805 84.7616 54.8245 84.7357 54.5684C84.7098 54.3124 84.6581 54.0819 84.6193 53.8387C84.5546 53.621 84.5287 53.3778 84.4511 53.1857C84.3864 52.9809 84.3346 52.776 84.2699 52.6352C84.2052 52.4816 84.1535 52.3023 84.0629 52.1743C83.9076 51.9183 83.843 51.7518 83.843 51.7518Z" fill="#4D2566"/>
<path d="M84.0759 63.9528C84.0759 63.9528 84.1405 64.0296 84.2052 64.1576C84.2829 64.2857 84.3605 64.4393 84.4252 64.6185C84.4511 64.7081 84.477 64.7978 84.4899 64.8874C84.5158 64.9642 84.5546 65.041 84.5675 65.1178C84.5934 65.1818 84.6063 65.2587 84.6063 65.3099C84.6063 65.3739 84.6063 65.4123 84.5805 65.5019C84.4899 65.822 84.2311 66.1036 83.8688 66.2957C83.7006 66.3853 83.5195 66.4365 83.3772 66.4621C83.2348 66.4877 83.1443 66.5005 83.1443 66.5005C83.1443 66.5005 83.0666 66.4237 82.989 66.3085C82.8984 66.1933 82.7949 66.0524 82.7043 65.8988C82.5232 65.6043 82.4456 65.2331 82.5361 64.913C82.562 64.8362 82.6138 64.7081 82.6655 64.6185C82.7173 64.5161 82.782 64.4265 82.8596 64.3497C82.9243 64.2729 83.0149 64.196 83.0925 64.1448C83.1701 64.1064 83.2607 64.0808 83.3513 64.0424C83.5324 63.9912 83.7136 63.9656 83.8559 63.9656C83.9982 63.9656 84.1017 63.9656 84.1017 63.9656L84.0759 63.9528Z" fill="#4D2566"/>
</g>
<defs>
<clipPath id="clip0_3491_30657">
<rect width="87" height="92" fill="white" transform="translate(0 0.874023)"/>
</clipPath>
</defs>
</svg>
