<svg width="120" height="71" viewBox="0 0 120 71" fill="none" xmlns="http://www.w3.org/2000/svg">
<g clip-path="url(#clip0_3487_149)">
<path d="M3.19312 61.53C4.86125 58.9032 5.06223 56.9181 5.74556 54.0307C6.77056 49.7397 12.2975 45.3484 16.7391 46.3309C18.6083 46.7319 20.2965 49.0379 21.9646 50.0003C24.1151 51.2636 26.7077 50.9829 29.0391 50.642C30.8479 50.3813 30.0842 47.6343 28.2754 47.8949C21.5426 48.8775 18.97 41.5987 11.8955 43.8846C9.14212 44.7869 6.3686 47.2733 4.80096 49.6595C2.65048 52.9479 2.75097 56.8179 0.680876 60.0662C-0.303924 61.6102 2.16813 63.0539 3.15293 61.5099L3.19312 61.53Z" fill="#4D2566"/>
<path d="M32.717 32.3349C30.9484 37.7288 30.3053 43.4034 28.818 48.8574C27.8332 52.4867 25.9239 57.9809 28.6371 61.3896C30.7072 63.9963 33.2195 63.6955 35.7719 61.8709C37.4601 60.6678 38.6057 58.7829 39.6709 57.0585C41.5199 54.0508 41.4596 52.7875 45.6199 52.3263C47.7302 52.1057 47.9714 54.6122 48.9763 55.715C50.0616 56.9181 51.3478 57.6801 52.9356 58.0009C55.0458 58.442 57.0154 57.0184 57.5581 55.0132C59.5277 47.7746 56.0306 39.0121 54.6037 31.9539C54.2419 30.1493 51.4885 30.9112 51.8503 32.7159C53.036 38.5509 54.7846 44.3458 55.1664 50.3212C55.2468 51.7248 55.2468 53.2687 54.6841 54.5721C53.4983 57.3994 50.5238 52.8076 50.1218 51.9854C49.2375 50.1006 47.5694 49.5993 45.6199 49.499C38.8871 49.1582 38.5253 54.5921 34.9881 58.7428C33.1391 61.2092 31.5312 60.4672 30.1646 56.5171C30.245 55.1536 30.466 53.8101 30.8077 52.5068C31.2097 50.7021 31.7724 48.9175 32.2146 47.133C33.3601 42.4609 33.943 37.6686 35.4704 33.0768C36.0533 31.3323 33.2999 30.5904 32.717 32.3149V32.3349Z" fill="#4D2566"/>
<path d="M32.4357 20.7451C27.8734 25.4171 21.4019 32.8562 21.4421 39.7941C21.4823 46.6718 30.9484 39.9746 32.8175 38.3905C34.2244 37.2074 32.1945 35.2023 30.8077 36.3853C29.2602 37.7087 27.5921 38.992 25.6627 39.754C22.8489 40.8769 25.0798 36.245 25.5421 35.2023C27.572 30.5904 30.9484 26.3194 34.4455 22.7503C35.7317 21.4269 33.7219 19.4217 32.4357 20.7451Z" fill="#4D2566"/>
<path d="M36.2744 21.2464C27.6122 18.74 31.6719 8.89466 37.1788 5.20517C46.0822 -0.750145 56.4326 11.0201 50.564 19.3816C50.1018 20.0433 50.4836 20.9256 51.0665 21.3266C55.7292 24.4747 56.9552 32.756 55.1062 37.7288C54.463 39.4532 57.2164 40.1951 57.8596 38.4908C60.1909 32.2146 58.2615 22.7503 52.5135 18.8803C52.6743 19.522 52.8552 20.1837 53.016 20.8253C60.3316 10.4186 48.1322 -3.67767 36.616 2.29769C28.0543 6.74914 24.1352 20.705 35.5107 23.9935C37.2793 24.5148 38.0229 21.7678 36.2744 21.2464Z" fill="#4D2566"/>
<path d="M30.7876 18.2988C22.9293 16.1132 22.4068 25.9585 23.6328 31.192C23.9543 32.5956 26.1249 31.994 25.7832 30.5904C24.9592 27.1215 24.4568 18.8402 30.1847 20.4243C31.5714 20.8053 32.1543 18.6598 30.7876 18.2788V18.2988Z" fill="#4D2566"/>
<path d="M29.4009 13.5867C23.7533 12.8448 24.5573 21.6875 27.5318 24.1338C28.6371 25.0362 30.2249 23.4721 29.1195 22.5698C27.592 21.3066 25.9842 15.3713 29.421 15.8325C30.8479 16.0129 30.8278 13.7872 29.421 13.6068L29.4009 13.5867Z" fill="#4D2566"/>
<path d="M38.8067 29.5277C38.3847 31.7935 38.3244 36.3853 40.294 38.0897C41.942 39.4933 45.3185 38.6712 47.2278 38.4506C48.8356 38.2501 52.0714 38.2702 52.4733 36.2049C52.7145 35.0018 52.4331 33.6984 52.2724 32.4953C52.1719 31.7534 52.0513 31.0316 51.9307 30.2897C51.8905 30.049 51.8503 29.7884 51.8101 29.5477C51.7297 28.9261 51.9709 29.0665 51.4885 29.5477C52.1116 28.9061 51.7096 27.5426 50.7047 27.6428C47.0871 28.0038 43.4895 28.3647 39.8719 28.7256C38.445 28.866 38.445 31.0917 39.8719 30.9514C43.4895 30.5904 47.0871 30.2295 50.7047 29.8686C50.4434 29.2269 50.1822 28.6053 49.9209 27.9637C49.0768 28.8058 49.7601 30.7308 49.9209 31.7133C50.0817 32.776 50.2425 33.8388 50.3028 34.9216C50.3429 35.5231 50.0214 35.864 50.5037 35.5432C50.2425 35.7236 49.7802 35.7637 49.4787 35.8239C47.2881 36.3252 44.9567 36.5257 42.7057 36.5257C40.4548 36.5257 40.6356 31.7133 40.9371 30.1092C41.1984 28.7056 39.0479 28.104 38.7866 29.5076L38.8067 29.5277Z" fill="#4D2566"/>
<path d="M33.2195 43.4034C35.993 41.7391 38.8469 40.2352 40.8366 37.6085C41.7008 36.4655 39.7714 35.3627 38.9072 36.4856C37.1788 38.7715 34.4856 40.0548 32.094 41.4985C30.868 42.2404 31.9935 44.1653 33.2195 43.4234V43.4034Z" fill="#4D2566"/>
<path d="M32.5361 23.031C33.6214 26.52 35.993 29.7483 39.5704 30.8912C40.9371 31.3324 41.5199 29.1868 40.1533 28.7457C37.3396 27.8434 35.5106 25.1565 34.6665 22.4295C34.2445 21.066 32.094 21.6474 32.516 23.031H32.5361Z" fill="#4D2566"/>
<path d="M51.79 22.7904C50.966 24.6752 50.0415 26.52 49.0165 28.3246C48.313 29.5678 50.2425 30.6907 50.9459 29.4475C51.9508 27.6429 52.8753 25.8182 53.7194 23.9133C54.3022 22.6099 52.3728 21.487 51.79 22.7904Z" fill="#4D2566"/>
<path d="M49.1572 37.5684C50.1621 40.0147 52.2925 41.5185 54.9253 41.7391C56.3522 41.8594 56.3522 39.6337 54.9253 39.5134C53.3777 39.3931 51.8905 38.4306 51.3077 36.9668C50.765 35.6635 48.6145 36.2249 49.1572 37.5483V37.5684Z" fill="#4D2566"/>
<path d="M29.3406 52.9479C31.7523 55.5947 35.4905 56.4369 38.9273 56.7577C40.3542 56.878 40.3542 54.6523 38.9273 54.532C36.0734 54.2713 32.918 53.5695 30.9283 51.3839C29.9636 50.3212 28.3759 51.9052 29.3406 52.968V52.9479Z" fill="#4D2566"/>
<path d="M50.8253 54.0508C51.3277 53.2287 52.3929 52.8276 53.2169 52.4065C54.1816 51.9253 55.1463 51.404 55.9503 50.6621C56.9954 49.6795 55.4277 48.1155 54.3625 49.098C52.7145 50.642 50.1219 50.9027 48.8959 52.9279C48.1523 54.151 50.0817 55.2739 50.8253 54.0508Z" fill="#4D2566"/>
<path d="M45.8209 8.63398C39.3895 7.97228 34.7469 9.79697 35.9729 18.1384C37.1989 26.4598 47.1674 22.8104 49.1571 20.8053C51.1669 18.8001 53.4782 10.1178 45.8209 8.65403V8.63398Z" fill="#4D2566"/>
<path d="M36.0734 23.412C39.1283 24.8156 42.4042 24.7554 45.64 24.0737C47.8709 23.5924 50.966 22.5297 52.0312 20.324C52.6542 19.0407 50.7248 17.8978 50.1018 19.2012C49.2777 20.9055 46.7052 21.5071 45.0371 21.9282C42.5047 22.5698 39.5905 22.6099 37.1788 21.5071C35.8724 20.9055 34.7469 22.8305 36.0533 23.432L36.0734 23.412Z" fill="#4D2566"/>
<path d="M43.8513 11.7019C43.8513 11.7019 43.7106 11.8222 43.4493 12.0027C43.3287 12.0829 43.1479 12.1631 43.0273 12.3034C42.9067 12.4237 42.7861 12.544 42.6454 12.6844C42.1028 13.286 41.6807 13.9677 41.2989 14.85C40.8969 15.7122 40.5753 16.7148 40.2739 17.5168C40.1332 17.9179 40.0327 18.2788 39.9523 18.5595C39.892 18.8603 39.8719 19.0207 39.8719 19.0207C39.8719 19.0207 39.7111 18.9405 39.4699 18.7199C39.2489 18.4994 38.9675 18.1184 38.7866 17.6171C38.3645 16.6145 38.3244 15.1508 38.9273 13.7872C39.2288 13.1255 39.6709 12.4839 40.2739 12.0428C40.5552 11.8021 40.8768 11.6417 41.1783 11.5214C41.4797 11.3811 41.8214 11.361 42.0827 11.3009C42.364 11.2607 42.6655 11.3009 42.8866 11.3209C43.1278 11.3209 43.2685 11.4412 43.4091 11.4813C43.6905 11.6016 43.8513 11.7019 43.8513 11.7019Z" fill="white"/>
<path d="M57.5983 46.6918C60.4321 45.589 63.1051 44.1653 66.0193 43.2229C70.9634 41.6188 76.41 44.6666 80.5703 46.9926C85.9163 49.9803 90.7398 52.4667 96.9501 52.988C99.6231 53.2086 102.196 53.4693 104.788 54.1911C108.848 55.3541 108.748 58.823 109.471 62.0513C110.255 65.5604 114.395 68.6082 117.751 69.4905C119.52 69.9717 120.284 67.2246 118.515 66.7434C111.24 64.7984 113.812 57.9809 109.773 53.7099C106.798 50.5417 100.97 50.3613 96.9501 50.1207C88.8506 49.6394 83.3237 44.1252 76.0281 41.5586C68.3708 38.8517 63.9895 41.1777 56.8547 43.9247C55.1664 44.5864 55.89 47.3335 57.6184 46.6718L57.5983 46.6918Z" fill="#4D2566"/>
<path d="M88.2477 7.13011C82.0575 21.1863 74.6816 34.7211 70.2801 49.4991C69.7576 51.2636 72.511 52.0055 73.0335 50.261C77.3546 35.7236 84.61 22.3893 90.6996 8.57382C91.4232 6.90955 88.9712 5.46583 88.2276 7.13011H88.2477Z" fill="#4D2566"/>
<path d="M90.1972 9.07512C97.5329 4.10233 99.5427 14.469 105.472 15.4716C105.19 14.7698 104.909 14.088 104.628 13.3862C102.578 16.2736 100.186 18.9004 98.1359 21.7878C96.3471 24.3344 95.5231 27.8233 92.8702 29.6881C93.5736 29.9688 94.257 30.2496 94.9604 30.5303C93.9756 24.9961 87.6045 20.1436 82.0575 21.7076C80.2889 22.2089 81.0526 24.956 82.8212 24.4547C86.9413 23.2917 91.5035 27.322 92.207 31.2722C92.3677 32.1344 93.5937 32.6157 94.2971 32.1144C96.7893 30.3699 97.9952 27.8033 99.3819 25.1565C101.392 21.3467 104.607 18.2988 107.079 14.7898C107.582 14.088 107.079 12.8448 106.235 12.7045C103.522 12.2433 100.608 7.75172 98.1962 6.20775C95.1011 4.22264 91.7045 4.60362 88.7702 6.58873C87.2629 7.61136 88.6898 10.0777 90.2173 9.03502L90.1972 9.07512Z" fill="#4D2566"/>
<path d="M97.4124 28.7256C100.387 28.7256 101.13 34.5205 101.573 36.5658C101.834 37.7087 103.663 38.0296 104.185 36.9067C106.477 31.8537 109.531 27.2418 112.365 22.4896C112.606 22.0886 112.667 21.4469 112.365 21.0459C110.275 18.3189 108.547 16.1734 105.13 15.2309C103.361 14.7497 102.598 17.4968 104.366 17.978C105.934 18.3991 106.999 19.0207 108.084 20.2037C109.913 22.1688 108.667 23.0511 107.441 25.0161C105.331 28.4048 103.341 31.8136 101.693 35.463C102.557 35.5833 103.422 35.6835 104.306 35.8038C103.482 32.0542 102.336 25.8382 97.3923 25.8783C95.5633 25.8783 95.5633 28.7256 97.3923 28.7256H97.4124Z" fill="#4D2566"/>
<path d="M4.47941 55.314C9.38331 55.5947 14.3877 51.6045 16.7593 47.5541C17.4828 46.3109 15.5534 45.188 14.8299 46.4312C12.8402 49.8399 8.59949 53.3289 4.47941 53.0883C3.03236 53.0081 3.05245 55.2338 4.47941 55.314Z" fill="#4D2566"/>
<path d="M100.97 51.9855C96.5883 57.3994 106.838 61.5902 110.898 62.0513C112.325 62.2118 112.305 59.986 110.898 59.8256C108.908 59.605 100.126 56.5372 102.537 53.5695C103.442 52.4667 101.874 50.8826 100.95 51.9855H100.97Z" fill="#4D2566"/>
<path d="M71.4659 65.3598C73.4154 64.7583 75.0232 63.4349 76.5507 62.1315C78.6007 60.3871 78.4399 60.2066 81.3541 60.4472C84.1678 60.6878 88.4487 61.0287 88.107 64.6781C87.8457 67.4653 88.6497 68.8488 90.8403 70.5933C91.9457 71.4756 93.5536 69.9116 92.4281 69.0293C90.9006 67.8262 90.157 66.7434 90.3379 64.6781C90.4384 63.5151 90.559 62.3722 89.956 61.3295C88.931 59.585 86.2379 59.0637 84.4693 58.6827C82.2786 58.2014 79.9271 57.9809 77.6762 58.1413C76.7517 58.2014 76.2693 59.2642 75.7468 59.8457C74.5007 61.2092 72.6919 62.6729 70.8831 63.2143C69.5164 63.6354 70.0992 65.7809 71.486 65.3598H71.4659Z" fill="#4D2566"/>
<path d="M75.6865 61.4698C78.6409 64.7182 84.7104 66.8236 88.8305 64.7583C90.1168 64.1166 88.9913 62.1917 87.705 62.8333C84.5095 64.4375 79.4649 62.312 77.2541 59.8858C76.2894 58.823 74.7017 60.4071 75.6664 61.4498L75.6865 61.4698Z" fill="#4D2566"/>
<path d="M6.97153 58.5423C7.15241 59.585 6.85094 60.5274 6.3485 61.4298C5.74556 62.4724 7.35339 63.3948 7.95633 62.3722C8.74015 61.0087 9.04162 59.6051 8.78035 58.0611C8.57937 56.878 6.79065 57.3793 6.99163 58.5624L6.97153 58.5423Z" fill="#4D2566"/>
<path d="M9.60437 58.0611C9.78525 58.8632 9.80535 59.6452 9.80535 60.4472C9.80535 61.6503 11.6745 61.6503 11.6544 60.4472C11.6544 59.4647 11.6142 58.5223 11.373 57.5598C11.0916 56.3968 9.3029 56.8981 9.58427 58.0611H9.60437Z" fill="#4D2566"/>
<path d="M12.2171 56.6173C12.2171 57.1186 12.2774 57.64 12.5789 58.041C12.8803 58.442 13.3828 58.6626 13.845 58.3819C14.247 58.1413 14.4882 57.5197 14.1867 57.1186C14.0661 56.9582 14.0661 56.8379 14.0661 56.6173C14.0661 55.4143 12.197 55.4143 12.2171 56.6173Z" fill="#4D2566"/>
<path d="M93.3928 66.9439C93.7143 68.3876 94.5986 69.7712 95.9854 70.3727C96.4477 70.5732 96.9702 70.5131 97.2516 70.0318C97.4927 69.6308 97.3722 68.9691 96.9099 68.7686C95.905 68.3275 95.4026 67.4853 95.1614 66.4426C94.9001 65.2796 93.1114 65.7609 93.3727 66.9439H93.3928Z" fill="#4D2566"/>
<path d="M97.5731 67.6457C98.0957 68.6884 98.779 69.5907 99.8241 70.1321C100.889 70.6935 101.814 69.0894 100.769 68.528C99.9849 68.1069 99.5628 67.4853 99.181 66.7033C98.6383 65.6406 97.0305 66.583 97.5731 67.6457Z" fill="#4D2566"/>
<path d="M85.434 16.7348C86.3585 18.9204 86.6801 21.2865 87.6046 23.4521C88.0668 24.5349 89.8555 24.0536 89.3933 22.9508C88.4688 20.7652 88.1472 18.3991 87.2227 16.2335C86.7604 15.1507 84.9717 15.632 85.434 16.7348Z" fill="#4D2566"/>
<path d="M86.9815 12.6443C89.2526 17.3163 90.7197 22.3493 92.1869 27.322C92.5285 28.465 94.3173 27.9837 93.9756 26.8207C92.4682 21.6876 90.9207 16.5343 88.5893 11.7019C88.0668 10.6191 86.459 11.5615 86.9815 12.6443Z" fill="#4D2566"/>
<path d="M89.2928 8.57384C91.2624 14.2685 93.9756 19.6624 95.0609 25.6177C95.282 26.8007 97.0707 26.2994 96.8496 25.1164C95.7643 19.1611 93.031 13.7471 91.0815 8.07255C90.6996 6.94966 88.8908 7.4309 89.2928 8.57384Z" fill="#4D2566"/>
<path d="M99.8643 21.0659C100.186 24.5549 101.231 27.9236 102.537 31.1519C102.98 32.2347 104.788 31.7735 104.326 30.6506C103.08 27.5827 102.015 24.3544 101.713 21.0459C101.593 19.8628 99.7437 19.8628 99.8442 21.0459L99.8643 21.0659Z" fill="#4D2566"/>
<path d="M102.296 19.141C103.12 22.8305 104.909 26.159 106.155 29.7082C106.557 30.831 108.346 30.3498 107.944 29.2069C106.698 25.6577 104.909 22.3292 104.085 18.6397C103.824 17.4767 102.035 17.9579 102.296 19.141Z" fill="#4D2566"/>
</g>
<defs>
<clipPath id="clip0_3487_149">
<rect width="119" height="70" fill="white" transform="translate(0.5 0.874023)"/>
</clipPath>
</defs>
</svg>
